<?xml version="1.0" standalone="no"?>
<!DOCTYPE svg PUBLIC "-//W3C//DTD SVG 20010904//EN"
 "http://www.w3.org/TR/2001/REC-SVG-20010904/DTD/svg10.dtd">
<svg version="1.0" xmlns="http://www.w3.org/2000/svg"
 width="512.000000pt" height="512.000000pt" viewBox="0 0 512.000000 512.000000"
 preserveAspectRatio="xMidYMid meet">

<g transform="translate(0.000000,512.000000) scale(0.100000,-0.100000)"
fill="#000000" stroke="none">
<path d="M2370 5050 c-326 -25 -639 -114 -935 -263 -487 -247 -869 -633 -1114
-1127 -174 -350 -254 -696 -254 -1095 0 -406 80 -754 254 -1106 249 -502 637
-890 1138 -1137 695 -344 1509 -344 2202 -1 502 249 889 636 1138 1138 173
350 254 700 254 1101 0 401 -81 751 -254 1101 -249 502 -636 889 -1138 1138
-240 119 -501 199 -766 235 -141 19 -390 27 -525 16z m1197 -1082 c91 -141
152 -305 185 -493 46 -274 1 -715 -95 -905 -42 -85 -81 -114 -247 -180 -131
-53 -133 -54 -109 -69 42 -27 120 -104 135 -133 31 -60 20 -89 -63 -173 -77
-78 -175 -161 -245 -207 l-36 -25 -129 18 c-70 11 -138 21 -151 24 l-24 6 25
-33 c64 -85 83 -161 51 -206 -35 -51 -320 -168 -464 -191 -161 -26 -337 -6
-466 53 l-54 25 -100 -107 c-128 -136 -180 -207 -230 -309 -22 -45 -50 -89
-63 -98 -32 -22 -71 -18 -106 11 -44 37 -42 82 9 180 50 96 119 188 248 330
l101 112 -19 39 c-75 155 -34 456 96 717 69 138 135 219 187 231 23 6 33 1 70
-36 24 -24 57 -62 75 -84 32 -39 32 -39 51 -20 11 11 42 86 70 166 27 81 56
160 65 177 9 17 51 59 93 93 43 35 120 99 171 142 51 43 95 77 96 75 2 -1 13
-46 25 -98 67 -282 125 -267 222 57 23 76 50 156 61 178 11 22 75 96 142 165
123 126 197 225 237 316 67 155 72 247 24 424 -10 38 107 -87 162 -172z"/>
<path d="M3273 2988 c-6 -7 -48 -78 -95 -158 -47 -80 -107 -174 -133 -210 -49
-67 -193 -220 -206 -220 -4 0 -17 28 -28 63 -42 125 -133 247 -174 231 -28
-10 -28 -35 1 -62 15 -15 38 -42 50 -59 26 -37 94 -222 86 -234 -13 -22 -143
-105 -249 -159 -65 -33 -148 -80 -184 -105 l-66 -44 -14 32 c-52 116 -79 163
-113 198 -40 41 -63 46 -81 17 -9 -13 -1 -26 35 -67 43 -47 108 -177 108 -214
0 -8 -47 -56 -104 -106 -57 -50 -139 -130 -183 -179 l-80 -87 24 -19 25 -18
77 76 76 76 95 -55 c98 -56 153 -72 205 -57 23 6 30 14 30 33 0 22 -5 24 -62
30 -47 4 -78 16 -137 49 -42 24 -76 47 -76 51 0 17 189 173 281 231 30 20 84
51 120 71 l67 37 53 -30 c137 -77 178 -93 231 -88 54 6 72 21 57 49 -7 14 -21
18 -58 17 -49 -1 -123 28 -180 71 l-24 18 64 43 c104 70 221 174 304 270 70
82 80 89 104 82 43 -11 222 -5 271 10 32 10 46 20 48 34 5 36 -18 45 -73 29
-57 -18 -225 -20 -225 -4 0 6 13 29 29 52 31 46 143 243 154 270 3 9 -1 23 -9
32 -19 18 -28 19 -41 3z"/>
</g>
</svg>
