
<svg version="1.1" xmlns="http://www.w3.org/2000/svg" width="512" height="512" viewBox="0 0 512 512" preserveAspectRatio="xMidYMid meet">
<path d="M0 0 C1.0358499 -0.00453111 2.07169979 -0.00906223 3.13893908 -0.01373065 C6.61494396 -0.02640556 10.09079278 -0.02475226 13.56681824 -0.02310181 C16.05700889 -0.02908512 18.54719769 -0.03589021 21.03738403 -0.04345703 C27.10272426 -0.05930654 33.16800297 -0.0655663 39.23335818 -0.06668179 C44.16452639 -0.06763259 49.09568178 -0.07174448 54.02684593 -0.07808304 C68.0125186 -0.09569401 81.9981606 -0.10492217 95.98384444 -0.10342209 C97.11449655 -0.10330222 97.11449655 -0.10330222 98.26799011 -0.10317993 C99.40002535 -0.10305729 99.40002535 -0.10305729 100.55492999 -0.10293217 C112.7839286 -0.10211938 125.012804 -0.12125553 137.24176697 -0.14945666 C149.80319052 -0.17819552 162.36455401 -0.1919964 174.92601126 -0.19026911 C181.97638031 -0.18960554 189.02662021 -0.19508337 196.07695961 -0.21662521 C202.70816413 -0.2367568 209.33914261 -0.23615305 215.97037697 -0.22159195 C218.40359902 -0.2194989 220.83683801 -0.22423411 223.27003098 -0.23631287 C226.59318381 -0.25174044 229.91539299 -0.24247258 233.23852539 -0.22705078 C234.20011293 -0.23733791 235.16170046 -0.24762503 236.15242702 -0.25822389 C242.23753698 -0.19587245 246.69158823 0.90462007 251.80973816 4.26742554 C254.05192566 6.23226929 254.05192566 6.23226929 255.68473816 8.20492554 C256.23903503 8.85332397 256.79333191 9.50172241 257.36442566 10.16976929 C260.97606792 15.41153117 261.09977103 20.08394053 261.0771637 26.24284363 C261.08169481 27.14801985 261.08622592 28.05319607 261.09089434 28.98580188 C261.10355685 32.01958832 261.10191677 35.05319567 261.1002655 38.08700562 C261.1062496 40.26192964 261.11305487 42.43685153 261.12062073 44.61177063 C261.13830023 50.5209255 261.14297694 56.43002245 261.1442523 62.33920121 C261.14615109 67.27208083 261.15350842 72.20494695 261.16059649 77.13782138 C261.17688556 88.7764887 261.18176498 100.41512508 261.18034363 112.05380249 C261.17914213 124.05929707 261.20024446 136.06458686 261.23183095 148.07003862 C261.25798384 158.37761875 261.26871133 168.68514015 261.26743281 178.99275321 C261.26692288 185.1488719 261.27262354 191.30483088 261.29378891 197.46091652 C261.31315441 203.25168163 261.31330707 209.0421344 261.29875565 214.83291054 C261.29666435 216.95652218 261.30138746 219.08015328 261.31347656 221.20373154 C261.32892943 224.10653981 261.31962027 227.00827117 261.30421448 229.91105652 C261.3145016 230.74813371 261.32478873 231.5852109 261.33538759 232.44765407 C261.26809664 238.19930809 259.91651654 242.41251503 256.80973816 247.26742554 C254.84489441 249.50961304 254.84489441 249.50961304 252.87223816 251.14242554 C252.22383972 251.69672241 251.57544128 252.25101929 250.90739441 252.82211304 C246.76482016 255.67640069 243.21086218 256.495647 238.17419434 256.51626587 C237.45346237 256.50907532 236.73273041 256.50188477 235.99015808 256.49447632 C235.21889587 256.49476837 234.44763367 256.49506042 233.65299988 256.49536133 C231.11528596 256.49397306 228.57786925 256.47843569 226.04020691 256.46273804 C224.2761552 256.45900612 222.5121014 256.45615999 220.74804688 256.4541626 C216.11364481 256.44654023 211.47936885 256.42690375 206.84501648 256.40475464 C202.11257127 256.38426611 197.3801056 256.37515445 192.64762878 256.36508179 C183.36827662 256.34365653 174.08901789 256.30953745 164.80973816 256.26742554 C164.83592224 257.07373413 164.86210632 257.88004272 164.88908386 258.71078491 C164.99360076 262.39613026 165.05824054 266.08116292 165.12223816 269.76742554 C165.16413269 271.03586304 165.20602722 272.30430054 165.24919128 273.61117554 C165.3873482 284.22162632 165.3873482 284.22162632 162.48161316 289.01742554 C160.42195708 291.83639464 158.1447942 294.07784196 154.96598816 295.64633179 C149.18233942 297.31227409 143.12730679 296.99703048 137.43473816 295.20492554 C129.30967829 289.20785754 124.85939665 279.90496689 119.93473816 271.32992554 C117.25348816 266.68930054 114.57223816 262.04867554 111.80973816 257.26742554 C96.29973816 257.26742554 80.78973816 257.26742554 64.80973816 257.26742554 C74.80615019 265.60827463 74.80615019 265.60827463 85.05973816 273.57992554 C90.8146887 277.93518153 96.4765738 282.38153988 102.05973816 286.95492554 C107.83035631 291.6813834 113.67352414 296.28491446 119.60270691 300.81039429 C124.79404727 304.77535833 129.91303382 308.83329888 135.04362488 312.87631226 C137.96344864 315.17616791 140.88675709 317.47158498 143.80973816 319.76742554 C144.97642177 320.68407064 146.14308843 321.60073731 147.30973816 322.51742554 C148.17598816 323.19805054 148.17598816 323.19805054 149.05973816 323.89242554 C154.30973817 328.01742554 154.30973817 328.01742554 156.06095886 329.3934021 C157.22353391 330.30684233 158.38613144 331.22025395 159.54875183 332.13363647 C162.52820852 334.47442931 165.50723103 336.81577135 168.48551941 339.15805054 C169.09460144 339.63693726 169.70368347 340.11582397 170.33122253 340.60922241 C171.47199726 341.50616743 172.61263696 342.40328423 173.75309753 343.30062866 C174.28354675 343.71764038 174.81399597 344.1346521 175.36051941 344.56430054 C175.87359681 344.97493524 176.38667421 345.38556993 176.91529942 345.80864811 C178.21064127 346.80610209 179.54018761 347.76024682 180.89545345 348.67462063 C187.42494185 353.258771 190.58309678 358.22115091 194.06388855 365.30477905 C194.62115631 366.39522018 195.17842407 367.48566132 195.75257874 368.60914612 C197.26269476 371.57691452 198.75255327 374.5531142 200.23224187 377.53605771 C201.47622802 380.0374346 202.73385746 382.53184194 203.99141306 385.0264172 C206.96145537 390.91861165 209.90882962 396.82174912 212.84172058 402.73251343 C215.85355353 408.80146645 218.90132836 414.85133083 221.96780211 420.89283425 C224.61270119 426.1067445 227.23541205 431.33140267 229.84089273 436.56512207 C231.39141839 439.67931292 232.94942206 442.78908114 234.52865791 445.88882637 C236.29134724 449.35165751 238.00740165 452.83648305 239.72013855 456.3243103 C240.23899124 457.32896332 240.75784393 458.33361633 241.29241943 459.36871338 C244.94422829 466.94736751 245.87238559 473.8911725 244.80973816 482.26742554 C242.71759394 487.5337001 239.53766186 491.1154764 234.80973816 494.26742554 C230.3205422 496.95534698 225.77592503 497.03618211 220.6592865 496.84805298 C209.82061734 495.9038046 199.28852928 491.42633788 189.06755066 487.94711304 C186.48864745 487.08328656 183.90776406 486.22543891 181.32704163 485.36706543 C175.94097867 483.57165783 170.56106244 481.75876654 165.18473816 479.93441772 C158.99386519 477.83384577 152.79489669 475.75880746 146.5907737 473.69772708 C140.58445278 471.70195096 134.58340455 469.69077819 128.58485031 467.67178726 C126.04827259 466.81814708 123.51005096 465.9700298 120.97075272 465.12444687 C117.42038516 463.93918403 113.87643409 462.73640877 110.33366394 461.52865601 C109.29555069 461.18554886 108.25743744 460.84244171 107.18786621 460.48893738 C97.76256631 457.23746954 90.44583368 451.97835082 82.80973816 445.70492554 C77.37752516 441.29922878 71.88093141 436.99594852 66.30973816 432.76742554 C58.93964386 427.16655826 51.68545532 421.43318338 44.48454285 415.61679077 C42.26421365 413.82790455 40.03650639 412.0482869 37.80973816 410.26742554 C37.80609253 411.1140979 37.8024469 411.96077026 37.7986908 412.83309937 C37.76072666 420.83642168 37.70377878 428.83933998 37.62583542 436.84237671 C37.5864303 440.95624317 37.55420796 445.06989781 37.53874207 449.18392944 C37.52352915 453.15885028 37.48900273 457.13318854 37.44142914 461.10784912 C37.42666282 462.61953652 37.41869988 464.13130712 37.41785431 465.64306641 C37.40881403 473.70587766 37.38503471 480.35866881 32.80973816 487.26742554 C30.84489441 489.50961304 30.84489441 489.50961304 28.87223816 491.14242554 C28.22383972 491.69672241 27.57544128 492.25101929 26.90739441 492.82211304 C21.93835721 496.24584444 17.34178425 496.55823342 11.44174194 496.53485107 C10.60190256 496.53938219 9.76206318 496.5439133 8.89677411 496.54858172 C6.08409608 496.56123658 3.27161142 496.55960464 0.45890808 496.55795288 C-1.55838266 496.56393747 -3.57567111 496.57074285 -5.59295654 496.57830811 C-11.07237394 496.5959828 -16.55172889 496.60066412 -22.03117204 496.60193968 C-26.60616487 496.60383894 -31.18114316 496.61119683 -35.7561304 496.61828387 C-46.55099486 496.63457115 -57.34582596 496.63945252 -68.14070129 496.63803101 C-79.27368912 496.63682959 -90.40648309 496.65793072 -101.53942186 496.68951833 C-111.09966278 496.71567645 -120.65984036 496.72639849 -130.22011679 496.72512019 C-135.9291097 496.7246104 -141.63793035 496.73030283 -147.34688759 496.75147629 C-152.7174233 496.7708506 -158.0876223 496.77098848 -163.45816994 496.75644302 C-165.42697644 496.75435281 -167.39580397 496.75906843 -169.36457443 496.77116394 C-172.05721557 496.78663249 -174.74869798 496.77729782 -177.4413147 496.76190186 C-178.21613672 496.77218898 -178.99095873 496.78247611 -179.78926021 496.79307497 C-185.36462524 496.7228693 -189.4773546 495.24456738 -194.19026184 492.26742554 C-196.43244934 490.30258179 -196.43244934 490.30258179 -198.06526184 488.32992554 C-198.61955872 487.6815271 -199.17385559 487.03312866 -199.74494934 486.36508179 C-202.81436411 481.91028252 -203.44206666 478.08201466 -203.45768738 472.72169495 C-203.46221849 472.07786608 -203.4667496 471.4340372 -203.47141802 470.77069837 C-203.48404062 468.62134033 -203.48244308 466.47223638 -203.48078918 464.32284546 C-203.48677582 462.77845434 -203.49358168 461.23406621 -203.50114441 459.68968201 C-203.5187988 455.49947589 -203.52349958 451.30935149 -203.52477598 447.11911178 C-203.52619856 444.49932937 -203.53047021 441.87956768 -203.53577042 439.25979042 C-203.55426948 430.11477975 -203.56244126 420.96982735 -203.56086731 411.82479858 C-203.55966623 403.30930138 -203.58076216 394.79405776 -203.61235464 386.27862471 C-203.63853487 378.96040063 -203.64923386 371.64225927 -203.64795649 364.32398874 C-203.64744733 359.95636694 -203.65310486 355.58897051 -203.67431259 351.22139549 C-203.69372429 347.11153843 -203.69379965 343.00212102 -203.67927933 338.89224815 C-203.67719368 337.3878566 -203.68187758 335.88343732 -203.69400024 334.37909317 C-203.75379643 326.44171366 -203.67001011 320.07949809 -199.19026184 313.26742554 C-197.22541809 311.02523804 -197.22541809 311.02523804 -195.25276184 309.39242554 C-194.6043634 308.83812866 -193.95596497 308.28383179 -193.28791809 307.71273804 C-188.57418111 304.46491181 -184.49909878 304.00652779 -178.82966614 303.94857788 C-178.10717178 303.93853226 -177.38467743 303.92848663 -176.64028931 303.9181366 C-174.26502743 303.88737892 -171.88987788 303.87029037 -169.51448059 303.85336304 C-167.8625187 303.8346454 -166.21056631 303.81507154 -164.55862427 303.79467773 C-160.22025663 303.74341343 -155.88185802 303.70375727 -151.54335022 303.66653442 C-147.11242546 303.62645897 -142.68162893 303.5753828 -138.25080872 303.52523804 C-129.56404745 303.42854627 -120.87722257 303.34412 -112.19026184 303.26742554 C-110.87026184 300.62742554 -109.55026184 297.98742554 -108.19026184 295.26742554 C-109.51026184 294.60742554 -110.83026184 293.94742554 -112.19026184 293.26742554 C-114.17443512 291.82310567 -116.12947929 290.33848425 -118.06526184 288.82992554 C-118.63478577 288.38745483 -119.20430969 287.94498413 -119.79109192 287.48910522 C-121.59415393 286.08609374 -123.39286024 284.67767944 -125.19026184 283.26742554 C-125.74536438 282.83220581 -126.30046692 282.39698608 -126.87239075 281.94857788 C-129.12128617 280.18420328 -131.36885965 278.41816634 -133.61457825 276.64974976 C-138.376388 272.90081472 -143.15530982 269.17426694 -147.94026184 265.45492554 C-148.69492737 264.86832153 -149.4495929 264.28171753 -150.22712708 263.67733765 C-152.54796634 261.87376873 -154.86906431 260.07053333 -157.19026184 258.26742554 C-175.56827564 243.99137211 -175.56827564 243.99137211 -183.85432434 237.4546814 C-187.1227269 234.87959062 -190.40692195 232.32671724 -193.70588684 229.79086304 C-210.19649656 217.09948526 -210.19649656 217.09948526 -217.19026184 210.26742554 C-217.80772278 209.68605835 -218.42518372 209.10469116 -219.06135559 208.50570679 C-223.13670192 204.32144251 -225.80317371 199.6160492 -228.44026184 194.45492554 C-228.76977844 193.81546997 -229.09929504 193.1760144 -229.438797 192.5171814 C-234.03187576 183.10195728 -235.73475492 173.88548664 -235.62776184 163.45492554 C-235.6194635 162.40393677 -235.61116516 161.352948 -235.60261536 160.27011108 C-235.28404639 145.56492206 -230.61424105 133.68302915 -222.31135559 121.51351929 C-213.16771618 109.41436007 -201.1014856 102.68211553 -187.30354309 97.09945679 C-180.54450202 94.99774037 -173.64882847 94.97296673 -166.62776184 94.89242554 C-165.19098083 94.87115601 -165.19098083 94.87115601 -163.72517395 94.84945679 C-151.71182421 94.93174705 -139.3995404 98.52252306 -129.44026184 105.32992554 C-123.51132941 109.67472133 -117.75874067 114.25552204 -112.00471497 118.82797241 C-109.07515698 121.15206739 -106.13222301 123.45906678 -103.19026184 125.76742554 C-102.02352736 126.68400589 -100.85686077 127.60067267 -99.69026184 128.51742554 C-99.11276184 128.97117554 -98.53526184 129.42492554 -97.94026184 129.89242554 C-64.69026184 156.01742554 -64.69026184 156.01742554 -62.93977356 157.39291382 C-61.77487007 158.30812546 -60.60983131 159.22316497 -59.44465637 160.13803101 C-56.49987139 162.45055575 -53.55760999 164.76616788 -50.61994934 167.08773804 C-50.02440247 167.55760132 -49.42885559 168.0274646 -48.81526184 168.51156616 C-47.18691538 169.79643329 -45.55963892 171.08265613 -43.93244934 172.36898804 C-40.64187764 174.94182583 -37.30010951 177.44553109 -33.95637512 179.94857788 C-33.40091507 180.36475876 -32.84545502 180.78093964 -32.27316284 181.20973206 C-30.9123971 182.2292319 -29.55135714 183.24836572 -28.19026184 184.26742554 C-28.18879528 183.41412659 -28.18732872 182.56082764 -28.18581772 181.68167114 C-28.14874679 160.90756044 -28.0897282 140.13361285 -28.0063591 119.3596344 C-27.96657002 109.31343319 -27.93417684 99.2673103 -27.91926575 89.22103882 C-27.90624857 80.46348175 -27.87928218 71.70609702 -27.83564878 62.94863701 C-27.81303549 58.31270221 -27.79735108 53.67697995 -27.79837799 49.04098511 C-27.79912468 44.67423562 -27.78117043 40.30795596 -27.74909401 35.94132805 C-27.74060028 34.34182822 -27.73884152 32.74227566 -27.74445915 31.14276314 C-27.79008677 16.15002498 -27.79008677 16.15002498 -23.19026184 9.26742554 C-21.22541809 7.02523804 -21.22541809 7.02523804 -19.25276184 5.39242554 C-18.6043634 4.83812866 -17.95596497 4.28383179 -17.28791809 3.71273804 C-11.70354045 -0.13497095 -6.56496211 -0.02099913 0 0 Z " fill="#000000" transform="translate(243.1902618408203,7.732574462890625)" />
<path d="M0 0 C1.00121462 -0.00638882 2.00242925 -0.01277764 3.03398371 -0.01936007 C6.39297471 -0.03463534 9.75079105 -0.01413097 13.10974121 0.00622559 C15.51613252 0.00272517 17.92252152 -0.00293249 20.3289032 -0.0105896 C26.18880369 -0.02337612 32.04838899 -0.01288464 37.90823877 0.00852364 C44.73239629 0.03253941 51.55647449 0.03081892 58.38066489 0.02821773 C70.55686776 0.02452769 82.7329074 0.04535179 94.90905762 0.07946777 C106.72387823 0.11255907 118.53852753 0.12672606 130.35339355 0.1204834 C143.21931008 0.11371883 156.08515484 0.1161815 168.95106077 0.1358428 C169.97165748 0.13740203 169.97165748 0.13740203 171.01287231 0.13899276 C172.37940866 0.14108365 173.74594498 0.14319462 175.11248127 0.14532593 C179.86912707 0.15222056 184.62575076 0.152891 189.38240051 0.15144348 C195.78460503 0.14985316 202.18664739 0.16475279 208.58880043 0.19067001 C210.94102801 0.19784309 213.29327741 0.19990998 215.64551353 0.19655228 C218.85138343 0.19284841 222.0566507 0.20754761 225.26245117 0.22705078 C226.1977587 0.22172286 227.13306623 0.21639493 228.0967164 0.21090555 C231.98615882 0.25185072 234.60968148 0.38245924 238.18552399 2.02111053 C240.13122559 3.62145996 240.13122559 3.62145996 241.13122559 5.62145996 C241.23362083 8.39398429 241.27459931 11.14164653 241.27166748 13.91462708 C241.27612416 15.21659359 241.27612416 15.21659359 241.28067088 16.54486245 C241.2893835 19.47055105 241.29086829 22.39619885 241.2923584 25.32189941 C241.29698476 27.41257821 241.30200917 29.50325615 241.30740356 31.59393311 C241.32054713 37.2861173 241.32697634 42.97828969 241.33141422 48.67048669 C241.33434181 52.22408918 241.33844601 55.77768843 241.3429184 59.33128929 C241.3565985 70.44196633 241.36626263 81.55263596 241.37012029 92.66332084 C241.3746024 105.50326233 241.39215528 118.34309745 241.42112088 131.18300658 C241.4427145 141.09811953 241.45282333 151.01320249 241.45416141 160.92833871 C241.4552111 166.85467022 241.46115386 172.78090181 241.47898102 178.70720863 C241.49542157 184.28119268 241.49763674 189.85500125 241.48884201 195.42900085 C241.48806948 197.47646745 241.49244267 199.52394333 241.50230026 201.57138634 C241.51495656 204.36358229 241.50917738 207.15515082 241.49871826 209.94734192 C241.51080287 211.16660723 241.51080287 211.16660723 241.52313161 212.41050416 C241.49283294 215.86199132 241.21531766 218.43383779 239.79575729 221.60109234 C238.13122559 223.62145996 238.13122559 223.62145996 235.13122559 224.62145996 C232.25551658 224.7130062 229.40449273 224.7474296 226.52893066 224.73498535 C225.65067123 224.73513138 224.7724118 224.7352774 223.86753845 224.73542786 C220.96191954 224.73473068 218.05636457 224.72694735 215.15075684 224.71911621 C213.13722265 224.71725134 211.123688 224.71582776 209.1101532 224.71482849 C203.80830637 224.71100876 198.50648689 224.70118308 193.20465088 224.69012451 C187.79541392 224.67989873 182.38617255 224.67532836 176.97692871 224.67028809 C166.36168038 224.65956035 155.74645954 224.64196792 145.13122559 224.62145996 C145.13122559 237.49145996 145.13122559 250.36145996 145.13122559 263.62145996 C143.81122559 263.95145996 142.49122559 264.28145996 141.13122559 264.62145996 C140.57660645 263.68350586 140.0219873 262.74555176 139.45056152 261.7791748 C137.37980513 258.27818345 135.30686145 254.77849138 133.23327637 251.2791748 C132.33847918 249.76845726 131.44426456 248.2573945 130.55065918 246.74597168 C129.26136202 244.56552153 127.96993035 242.38634787 126.67810059 240.20739746 C126.28314392 239.53840424 125.88818726 238.86941101 125.48126221 238.18014526 C123.68120481 235.14820607 121.84774329 232.17652388 119.8470459 229.27233887 C118.13122559 226.62145996 118.13122559 226.62145996 118.13122559 224.62145996 C117.47523502 224.62422534 116.81924446 224.62699072 116.1433754 224.6298399 C100.18596594 224.69607615 84.22860426 224.745729 68.27109146 224.77689648 C60.55417191 224.79236923 52.83734408 224.81346648 45.1204834 224.84777832 C38.39492092 224.87766827 31.66942488 224.897032 24.94379783 224.90372545 C21.38218956 224.90763842 17.82077133 224.91684272 14.25922394 224.93865013 C10.28455528 224.96278997 6.31007301 224.96343021 2.33532715 224.96203613 C1.15281372 224.97282196 -0.02969971 224.98360779 -1.24804688 224.99472046 C-2.33055725 224.99059647 -3.41306763 224.98647247 -4.52838135 224.98222351 C-5.93872461 224.98637158 -5.93872461 224.98637158 -7.37755966 224.99060345 C-9.86877441 224.62145996 -9.86877441 224.62145996 -12.14004898 223.28641224 C-13.86877441 221.62145996 -13.86877441 221.62145996 -14.86877441 218.62145996 C-14.97344065 215.80900173 -15.02096004 213.02089651 -15.02267456 210.20803833 C-15.02705681 209.33920623 -15.03143907 208.47037413 -15.03595412 207.57521379 C-15.04935007 204.65263873 -15.05552271 201.73009383 -15.06164551 198.80749512 C-15.06954568 196.71666833 -15.07781457 194.6258429 -15.08642578 192.53501892 C-15.11264983 185.66020003 -15.12795112 178.78537502 -15.14221191 171.91052246 C-15.14757093 169.54593273 -15.15294843 167.18134304 -15.15834427 164.81675339 C-15.17997114 154.98413178 -15.19870973 145.15151182 -15.20996666 135.31887245 C-15.22621909 121.21464369 -15.25943067 107.11068984 -15.31636751 93.00656474 C-15.35501723 83.09568002 -15.37459331 73.184869 -15.37988722 63.27391088 C-15.3835467 57.35086441 -15.395632 51.42811112 -15.42798996 45.50514603 C-15.45798396 39.93516975 -15.46441331 34.36566541 -15.4526062 28.79562569 C-15.45238476 26.74975771 -15.46074793 24.70386837 -15.47826004 22.65807533 C-15.50084816 19.8677601 -15.49270516 17.07917129 -15.47677612 14.28884888 C-15.49759925 13.07060675 -15.49759925 13.07060675 -15.51884305 11.82775366 C-15.4656952 8.0569676 -14.99151123 5.81329967 -12.94757271 2.6185894 C-8.59178334 -0.20688806 -5.09374824 -0.06817305 0 0 Z " fill="#E5E8EC" transform="translate(246.8687744140625,23.3785400390625)" />
<path d="M0 0 C1.32 0.33 2.64 0.66 4 1 C4 13.87 4 26.74 4 40 C8.05027466 39.97643433 8.05027466 39.97643433 12.18237305 39.95239258 C21.10306862 39.90268666 30.02377031 39.86954697 38.94456768 39.84456348 C44.35333773 39.82890661 49.7619659 39.80766774 55.1706543 39.77368164 C60.39019478 39.74108927 65.60959878 39.72314715 70.82923317 39.71536827 C72.82074952 39.70982457 74.81225839 39.69899912 76.80371666 39.68280983 C79.59286017 39.66103733 82.38143949 39.65803302 85.1706543 39.65942383 C86.40603943 39.64324509 86.40603943 39.64324509 87.66638184 39.6267395 C91.32646849 39.64649247 93.62340389 39.82409598 96.98933411 41.39628601 C99 43 99 43 100 45 C100.10027292 46.95248062 100.13510863 48.90843312 100.14044189 50.86347961 C100.14615204 52.1127121 100.15186218 53.36194458 100.15774536 54.64903259 C100.15899078 56.04116811 100.16011586 57.43330375 100.16113281 58.82543945 C100.16576006 60.28558478 100.17078459 61.74572889 100.17617798 63.20587158 C100.18931373 67.17910219 100.19574932 71.15231588 100.20018864 75.12556481 C100.20311771 77.60710583 100.20722222 80.08864221 100.21169281 82.57018089 C100.22537137 90.33201143 100.23503604 98.09383138 100.2388947 105.85567313 C100.24337529 114.81975984 100.26092168 123.78369404 100.2898953 132.74773437 C100.31150464 139.67348873 100.3215986 146.59920016 100.32293582 153.52498788 C100.32398447 157.66281407 100.32990475 161.80049699 100.34775543 165.93828773 C100.36422308 169.83134584 100.36639808 173.72415277 100.35761642 177.61723328 C100.35684532 179.04547994 100.36119848 180.47374002 100.37107468 181.90195274 C100.38377485 183.85311735 100.37613268 185.80438265 100.36749268 187.75556946 C100.36895924 188.84714009 100.3704258 189.93871073 100.3719368 191.06335926 C99.94491209 194.43494864 99.05938267 196.31249422 97 199 C93.34658117 200.21780628 89.99100566 200.144807 86.18727112 200.14044189 C85.38307029 200.14341302 84.57886947 200.14638414 83.75029892 200.1494453 C81.04649417 200.15814027 78.34273365 200.1596412 75.63891602 200.16113281 C73.7041006 200.16576034 71.76928609 200.17078491 69.83447266 200.17617798 C64.57215321 200.18930834 59.30984652 200.19574792 54.04751325 200.20018864 C50.76209608 200.2031177 47.47668242 200.20722214 44.19126701 200.21169281 C33.91834102 200.22536801 23.64542302 200.23503515 13.37248856 200.2388947 C1.50151205 200.24337883 -10.36934951 200.26094311 -22.24029106 200.2898953 C-31.40891808 200.31148321 -40.57751268 200.3215974 -49.74616486 200.32293582 C-55.22588107 200.32398572 -60.70548923 200.32993291 -66.18517876 200.34775543 C-71.33729854 200.36418668 -76.48922847 200.36641576 -81.64136505 200.35761642 C-83.53444742 200.35684345 -85.4275398 200.36122285 -87.32059669 200.37107468 C-89.90072223 200.38371699 -92.4801674 200.3779598 -95.06028748 200.36749268 C-96.18951611 200.37957728 -96.18951611 200.37957728 -97.34155744 200.39190602 C-100.46762785 200.36215153 -102.66850163 200.18190399 -105.43373203 198.66453171 C-107 197 -107 197 -108 194 C-108.101791 192.00736058 -108.14369571 190.01147742 -108.15390015 188.01626587 C-108.16250061 186.76565872 -108.17110107 185.51505157 -108.17996216 184.22654724 C-108.18439722 182.83804363 -108.18869559 181.44953957 -108.19287109 180.06103516 C-108.20077348 178.60074163 -108.20904251 177.14045005 -108.21765137 175.68016052 C-108.24384991 170.88314677 -108.25917417 166.08612436 -108.2734375 161.2890625 C-108.27879757 159.6376889 -108.28417508 157.98631535 -108.28956985 156.33494186 C-108.31119302 149.46700357 -108.32993081 142.59906761 -108.34119225 135.7311039 C-108.35744032 125.88686071 -108.39064502 116.04301164 -108.44759309 106.19891703 C-108.48627059 99.27739186 -108.50582216 92.35597221 -108.51111281 85.43434179 C-108.51476855 81.29976437 -108.52681328 77.16560752 -108.55921555 73.031147 C-108.58925903 69.14206091 -108.59562179 65.25365068 -108.58383179 61.36447334 C-108.58361075 59.93781962 -108.59194073 58.51113486 -108.60948563 57.084589 C-108.63214812 55.13575818 -108.62090686 53.18662128 -108.60800171 51.23770142 C-108.61131186 50.1474296 -108.614622 49.05715778 -108.61803246 47.93384743 C-108 45 -108 45 -105.68939877 42.1477232 C-103 40 -103 40 -99.36161804 39.39872742 C-97.93731498 39.38433093 -96.51256729 39.39731214 -95.08862305 39.43237305 C-94.30760727 39.43164291 -93.52659149 39.43091278 -92.72190857 39.43016052 C-90.15112844 39.43363242 -87.58218065 39.47247187 -85.01171875 39.51171875 C-83.22525523 39.52104836 -81.43877888 39.52816378 -79.65229797 39.53315735 C-74.95840922 39.55221562 -70.26529843 39.60130605 -65.57171631 39.65667725 C-60.77903771 39.70789516 -55.98623297 39.7306768 -51.19335938 39.75585938 C-41.79523177 39.80942614 -32.39768067 39.89472459 -23 40 C-22.71000122 39.24631134 -22.42000244 38.49262268 -22.12121582 37.71609497 C-20.6491972 34.15019597 -18.69910118 30.91645656 -16.71875 27.6171875 C-16.30459839 26.92110382 -15.89044678 26.22502014 -15.46374512 25.50784302 C-14.14584376 23.29487992 -12.82290332 21.08497573 -11.5 18.875 C-10.61036527 17.38169613 -9.7210391 15.8882084 -8.83203125 14.39453125 C-7.98204249 12.96858803 -7.13179105 11.54280136 -6.28125 10.1171875 C-5.88224487 9.44839569 -5.48323975 8.77960388 -5.07214355 8.09054565 C-3.43306898 5.35296963 -1.77032746 2.6554912 0 0 Z " fill="#E5E8EC" transform="translate(164,288)" />
<path d="M0 0 C2.14221173 0.03434359 4.28027991 0.02058721 6.42260742 0.0012207 C18.39373094 0.01345336 29.31714147 2.32380786 39.49487305 8.90551758 C46.93114424 14.58436313 51.5598836 22.27352733 55.0222168 30.84692383 C56.9658436 41.44852455 56.06449203 51.72502641 51.6472168 61.53442383 C49.61235241 65.47659394 47.18911258 68.31705007 44.0847168 71.47192383 C39.78732477 75.9884263 38.65372562 79.53454739 37.51049805 85.56176758 C35.68403621 92.4845034 31.03724617 98.87106615 25.7097168 103.59692383 C25.0497168 103.59692383 24.3897168 103.59692383 23.7097168 103.59692383 C23.7097168 106.89692383 23.7097168 110.19692383 23.7097168 113.59692383 C24.7822168 113.65879883 25.8547168 113.72067383 26.9597168 113.78442383 C37.91045387 115.24708818 47.13745353 121.03906365 55.27026367 128.22338867 C64.59860669 137.1245518 68.9738998 148.28574733 71.7097168 160.59692383 C71.7097168 171.15692383 71.7097168 181.71692383 71.7097168 192.59692383 C24.1897168 192.59692383 -23.3302832 192.59692383 -72.2902832 192.59692383 C-72.2902832 150.27029066 -72.2902832 150.27029066 -60.7355957 133.31567383 C-54.22584233 125.15419199 -43.32008337 117.59307543 -33.2902832 114.59692383 C-30.26248758 114.05906121 -27.36802421 113.79233596 -24.2902832 113.59692383 C-24.3035753 110.17421014 -24.49867862 106.93408042 -25.2902832 103.59692383 C-27.71515387 101.22021422 -27.71515387 101.22021422 -29.6027832 99.97583008 C-33.22769828 97.01380456 -35.36539507 92.79667976 -37.2902832 88.59692383 C-37.77697208 86.58736976 -38.21423469 84.56523738 -38.6027832 82.53442383 C-39.63574546 77.69743888 -41.07248955 75.30689262 -44.6652832 71.90942383 C-45.45805664 71.19915039 -46.25083008 70.48887695 -47.06762695 69.75708008 C-50.40383973 66.51467996 -52.38037621 62.80025327 -54.2902832 58.59692383 C-54.65250977 57.81961914 -55.01473633 57.04231445 -55.38793945 56.24145508 C-57.24241301 50.80648279 -56.9505497 45.24190495 -56.2902832 39.59692383 C-53.51761752 30.68854931 -48.44583726 25.27848735 -41.2902832 19.59692383 C-40.4859082 18.79254883 -39.6815332 17.98817383 -38.8527832 17.15942383 C-38.0071582 16.31379883 -37.1615332 15.46817383 -36.2902832 14.59692383 C-35.59676758 13.89438477 -34.90325195 13.1918457 -34.1887207 12.46801758 C-33.37661133 11.68555664 -32.56450195 10.9030957 -31.7277832 10.09692383 C-30.98399414 9.36473633 -30.24020508 8.63254883 -29.47387695 7.87817383 C-20.23487207 1.25783168 -11.07562384 -0.195861 0 0 Z " fill="#020201" transform="translate(320.290283203125,39.403076171875)" />
<path d="M0 0 C4.34129029 2.81791584 8.45033203 5.83773217 12.5 9.0625 C13.72524031 10.03127543 14.95050138 11.00002461 16.17578125 11.96875 C17.11478271 12.71318359 17.11478271 12.71318359 18.07275391 13.47265625 C21.27284769 16.0087326 24.47961522 18.53629074 27.6875 21.0625 C28.2753125 21.5272876 28.863125 21.9920752 29.46875 22.47094727 C31.9316413 24.41148354 34.38924143 26.25949429 37 28 C37.36889648 30.92993164 37.36889648 30.92993164 37.37109375 34.66015625 C37.38850001 36.02539283 37.40608407 37.39062715 37.42382812 38.75585938 C37.43382976 40.89937998 37.4375159 43.04273652 37.43579102 45.1862793 C37.3946137 57.15562496 37.3946137 57.15562496 42 68 C43.84118844 70.34334166 43.84118844 70.34334166 45.9375 71.9375 C46.58589844 72.48277344 47.23429687 73.02804687 47.90234375 73.58984375 C52.63441924 76.77099692 56.51578474 77.20316704 62.09399414 77.12255859 C63.01172607 77.10273926 63.92945801 77.08291992 64.875 77.0625 C66.8502509 77.05355697 68.82551449 77.04712889 70.80078125 77.04296875 C73.89117965 77.02879933 76.97825116 77.00050885 80.06787109 76.92822266 C98.15543003 76.54152513 98.15543003 76.54152513 104.09204102 80.10180664 C107.36581742 82.44358631 110.1643058 85.15111397 113 88 C114.26191916 89.02138349 115.53870031 90.02517154 116.83984375 90.99609375 C117.86207031 91.80175781 118.88429688 92.60742188 119.9375 93.4375 C121.1132663 94.36330024 122.28904801 95.28908091 123.46484375 96.21484375 C124.04862793 96.67487793 124.63241211 97.13491211 125.23388672 97.60888672 C128.15371048 99.90874237 131.07701893 102.20415945 134 104.5 C135.16668361 105.4166451 136.33335027 106.33331177 137.5 107.25 C138.0775 107.70375 138.655 108.1575 139.25 108.625 C200.5 156.75 200.5 156.75 202.25146484 158.1262207 C203.41315826 159.03893348 204.5749415 159.95153194 205.73681641 160.86401367 C208.73033662 163.2152251 211.72206754 165.56866039 214.7109375 167.92578125 C220.75557507 172.68974818 226.8126799 177.42138313 233 182 C231.67143806 184.92643237 230.20435823 187.0700763 227.98828125 189.390625 C227.10329956 190.32600098 227.10329956 190.32600098 226.20043945 191.28027344 C225.57741943 191.9302832 224.95439941 192.58029297 224.3125 193.25 C223.0407306 194.59286411 221.76988719 195.93660583 220.5 197.28125 C219.89285156 197.92320312 219.28570312 198.56515625 218.66015625 199.2265625 C216.14274046 201.9157549 213.72322681 204.68307994 211.33203125 207.484375 C209.94884668 209.05820378 208.49660542 210.53429793 207 212 C202.75916917 211.46604551 200.00221989 208.86462085 196.8125 206.25 C195.56081281 205.24495068 194.30816587 204.24109576 193.0546875 203.23828125 C192.0661377 202.44478271 192.0661377 202.44478271 191.05761719 201.63525391 C187.55603813 198.85243752 183.99625055 196.14656126 180.4375 193.4375 C178.98820286 192.33213402 177.53898307 191.22666663 176.08984375 190.12109375 C175.39487793 189.59112793 174.69991211 189.06116211 173.98388672 188.51513672 C171.15011237 186.35092264 168.32480514 184.17591107 165.5 182 C157.68153361 175.98055884 149.84016508 169.991135 142 164 C131.98779213 156.34907832 121.98352614 148.6883185 112 141 C109.28581509 138.91159466 106.5711909 136.82376044 103.85644531 134.73608398 C101.24692449 132.72914929 98.63828672 130.72110002 96.03125 128.7109375 C90.20763173 124.22314919 84.36870389 119.75643643 78.51635742 115.30615234 C70.87433945 109.49476857 63.25342975 103.66018654 55.6875 97.75 C49.52547928 92.93699685 43.30770962 88.20947682 37.0378418 83.53808594 C31.19868698 79.17622069 25.45332919 74.69901838 19.7109375 70.2109375 C14.84805941 66.41755837 9.94562815 62.68471186 5 59 C-5.47747833 51.19174941 -15.81970714 43.19242503 -26 35 C-25.40092169 31.74670925 -24.35820644 29.89335564 -22.2265625 27.3828125 C-21.65373535 26.69952881 -21.0809082 26.01624512 -20.49072266 25.31225586 C-19.87503418 24.59046143 -19.2593457 23.86866699 -18.625 23.125 C-17.35283107 21.60919284 -16.08201787 20.09224692 -14.8125 18.57421875 C-14.17441406 17.81286621 -13.53632813 17.05151367 -12.87890625 16.26708984 C-10.06537681 12.87228289 -7.33771392 9.41307957 -4.625 5.9375 C-4.15529785 5.33631348 -3.6855957 4.73512695 -3.20166016 4.11572266 C-2.13270153 2.74516933 -1.06605272 1.37281483 0 0 Z " fill="#ED7284" transform="translate(179,186)" />
<path d="M0 0 C7.20600005 3.27254736 13.44264914 7.28474743 19.640625 12.19921875 C11.58264842 23.12632336 2.91255108 33.57391648 -5.65380859 44.10253906 C-8.9315405 48.1319066 -12.20609461 52.16385685 -15.48095703 56.19555664 C-18.2004468 59.5432183 -20.92118786 62.88984726 -23.64453125 66.234375 C-30.93008539 75.18522957 -38.16394394 84.17575925 -45.359375 93.19921875 C-53.63060402 89.44635863 -59.28481786 82.66054185 -63.85546875 75.00390625 C-69.88514976 63.75894271 -71.26387554 52.91391211 -70.359375 40.19921875 C-68.31871165 30.06966094 -63.16096824 19.96253115 -56.109375 12.38671875 C-40.99178373 -1.5391705 -19.51930676 -7.59973009 0 0 Z " fill="#A8B0BB" transform="translate(94.359375,121.80078125)" />
<path d="M0 0 C2.78813052 1.36104689 5.19541637 2.78779712 7.65234375 4.6875 C8.33941406 5.21601563 9.02648437 5.74453125 9.734375 6.2890625 C10.46140625 6.85367187 11.1884375 7.41828125 11.9375 8 C12.69675781 8.58523438 13.45601563 9.17046875 14.23828125 9.7734375 C15.77826627 10.96083336 17.31717707 12.14962381 18.85498047 13.33984375 C21.73173268 15.56633078 24.6158491 17.78310525 27.5 20 C28.53125 20.7940625 29.5625 21.588125 30.625 22.40625 C34.57677422 25.44607633 38.53860018 28.47273515 42.5 31.5 C50.71206547 37.77599885 58.90529082 44.07604469 67.09375 50.3828125 C76.04722244 57.27521331 85.02148272 64.14026388 94 71 C92.59837957 74.14612093 90.93203803 76.34989679 88.55078125 78.828125 C87.86693359 79.54613281 87.18308594 80.26414062 86.47851562 81.00390625 C85.40633789 82.11572266 85.40633789 82.11572266 84.3125 83.25 C77.25967721 90.61003565 70.48725462 98.13666106 64 106 C60.28835842 104.35728782 57.31833704 102.05107313 54.125 99.5625 C53.27071411 98.89879395 53.27071411 98.89879395 52.39916992 98.22167969 C50.59610791 96.81866821 48.7974016 95.41025391 47 94 C46.44489746 93.56478027 45.88979492 93.12956055 45.31787109 92.68115234 C43.07185564 90.91903723 40.82710771 89.15533173 38.58447266 87.38891602 C33.73827164 83.57284779 28.87136721 79.78387073 24 76 C18.30364331 71.57375227 12.61259097 67.14099354 6.9375 62.6875 C6.34775391 62.22537109 5.75800781 61.76324219 5.15039062 61.28710938 C1.12012816 58.12012816 1.12012816 58.12012816 0 57 C-0.09370624 55.22008076 -0.11744271 53.43643261 -0.11352539 51.65405273 C-0.11344986 50.5129454 -0.11337433 49.37183807 -0.11329651 48.19615173 C-0.10813522 46.9545076 -0.10297394 45.71286346 -0.09765625 44.43359375 C-0.0962413 43.16983414 -0.09482635 41.90607452 -0.09336853 40.60401917 C-0.08870582 37.23875111 -0.0797148 33.8735501 -0.06866455 30.50830078 C-0.05844846 27.0765033 -0.05387049 23.64469891 -0.04882812 20.21289062 C-0.0377738 13.47524176 -0.0210171 6.73762475 0 0 Z " fill="#68D4F2" transform="translate(280,339)" />
<path d="M0 0 C0.66 0 1.32 0 2 0 C8.93 13.86 15.86 27.72 23 42 C20.70289687 45.82850522 18.84236784 48.44491762 15.875 51.625 C12.64822007 55.14370187 9.55724384 58.71933669 6.5625 62.4375 C2.62620434 67.3044435 -1.52119733 71.93289834 -5.7578125 76.5390625 C-8.26581051 79.29174324 -10.65523691 82.10812552 -13 85 C-19.3092796 84.43712576 -24.78826672 82.93784023 -30.75 80.83984375 C-31.64871826 80.53051407 -32.54743652 80.22118439 -33.47338867 79.90248108 C-36.31818272 78.9214637 -39.15908155 77.92967764 -42 76.9375 C-43.93855404 76.26686071 -45.8773539 75.59693154 -47.81640625 74.92773438 C-52.54715351 73.29335559 -57.27444015 71.64931429 -62 70 C-60.40072931 66.64421091 -58.59124536 64.24366585 -56.0625 61.5 C-54.85787109 60.18515625 -54.85787109 60.18515625 -53.62890625 58.84375 C-52.76136719 57.9053125 -51.89382813 56.966875 -51 56 C-49.63033639 54.50815982 -48.26230509 53.01483357 -46.89428711 51.52148438 C-45.95949337 50.50141179 -45.02410233 49.48188627 -44.08813477 48.46289062 C-41.20685833 45.32497618 -38.34533559 42.1705168 -35.5 39 C-31.72462783 34.79315673 -27.91019552 30.62325147 -24.0859375 26.4609375 C-21.20577393 23.32332914 -18.34468386 20.16979059 -15.5 17 C-14.78714844 16.20851563 -14.07429688 15.41703125 -13.33984375 14.6015625 C-12.08249004 13.20356989 -10.82597442 11.80480996 -9.57470703 10.40136719 C-8.07567206 8.72132216 -6.569604 7.04780653 -5.0625 5.375 C-4.58941406 4.84132813 -4.11632812 4.30765625 -3.62890625 3.7578125 C-2.46026804 2.46687494 -1.23446848 1.22813787 0 0 Z " fill="#A8B0BB" transform="translate(421,383)" />
<path d="M0 0 C4.32849844 1.44813735 7.51305255 3.76951041 11 6.625 C12.23697405 7.61751678 13.47534788 8.60829062 14.71484375 9.59765625 C15.73167236 10.41000732 15.73167236 10.41000732 16.76904297 11.23876953 C20.98951692 14.57062542 25.27970115 17.81142464 29.5625 21.0625 C31.37639103 22.44128924 33.19019492 23.82019313 35.00390625 25.19921875 C35.86258301 25.85196777 36.72125977 26.5047168 37.60595703 27.17724609 C42.75383634 31.09669 47.87641687 35.04887703 53 39 C60.07429623 44.4493627 67.15638443 49.88830301 74.25 55.3125 C74.95697021 55.85358398 75.66394043 56.39466797 76.39233398 56.95214844 C80.16244915 59.8363524 83.93823052 62.71271841 87.72265625 65.578125 C88.49125977 66.16166748 89.25986328 66.74520996 90.05175781 67.34643555 C91.52188074 68.46236363 92.99379318 69.57593946 94.46777344 70.68676758 C95.13454102 71.19361084 95.80130859 71.7004541 96.48828125 72.22265625 C97.07134033 72.66359619 97.65439941 73.10453613 98.25512695 73.55883789 C100.28871935 75.23846513 102.13497377 77.13497377 104 79 C83.87 79 63.74 79 43 79 C42.67 70.09 42.34 61.18 42 52 C37.91014564 44.23519241 37.91014564 44.23519241 33.25 41.5 C28.84024612 39.63976484 24.71570267 39.16033352 20 40 C16.30767659 41.35918204 13.58615038 43.37937018 10.875 46.25 C8.47535956 49.76947265 6.20601735 53.35645495 4 57 C-0.99987012 54.24456056 -5.34414996 50.71126077 -9.8125 47.1875 C-15.4940098 42.72515743 -21.19995448 38.30761293 -27 34 C-23.02150822 28.58374075 -18.86326964 23.35061358 -14.58984375 18.1640625 C-9.65977873 12.16376985 -4.8422067 6.07119317 0 0 Z " fill="#68D4F1" transform="translate(141,233)" />
<path d="M0 0 C1.23298828 -0.01611328 2.46597656 -0.03222656 3.73632812 -0.04882812 C11.85120284 -0.05316068 18.60523699 0.56168287 25.640625 4.78515625 C30.66440271 9.2301074 34.17064182 13.84917308 36.1875 20.3125 C36.93660937 26.18709456 36.61396745 30.88461899 34.1875 36.3125 C33.6212793 35.58329346 33.05505859 34.85408691 32.47167969 34.1027832 C30.31019359 31.46237869 28.06028261 29.07127732 25.640625 26.66796875 C24.79628906 25.82685547 23.95195312 24.98574219 23.08203125 24.11914062 C22.20933594 23.25482422 21.33664062 22.39050781 20.4375 21.5 C19.54933594 20.61634766 18.66117187 19.73269531 17.74609375 18.82226562 C15.56214557 16.6500591 13.3758916 14.4802284 11.1875 12.3125 C8.00663482 13.82196511 5.88880094 15.39191825 3.4375 17.9375 C2.51710938 18.88496094 2.51710938 18.88496094 1.578125 19.8515625 C1.11921875 20.33367187 0.6603125 20.81578125 0.1875 21.3125 C1.63792909 24.65834964 3.46488825 26.81304036 6.06640625 29.3515625 C6.82244141 30.09664062 7.57847656 30.84171875 8.35742188 31.609375 C9.54174805 32.76179688 9.54174805 32.76179688 10.75 33.9375 C12.31597891 35.46913169 13.87988939 37.00288195 15.44140625 38.5390625 C16.48276733 39.55347412 16.48276733 39.55347412 17.54516602 40.58837891 C19.1875 42.3125 19.1875 42.3125 20.1875 44.3125 C21.39199949 60.00540765 21.39199949 60.00540765 18.125 67 C15.08777067 72.01654733 11.44451788 75.52792562 6.3125 78.33984375 C1.07296794 80.63213902 -4.16685556 81.08809972 -9.8125 80.3125 C-16.07911375 78.59090282 -19.93134044 74.48129744 -24.1484375 69.7265625 C-28.22415227 63.81390587 -28.31919788 57.58053557 -28.40234375 50.66235352 C-28.31242991 46.97227366 -28.03312219 44.71908304 -26.24609375 41.42578125 C-24.53695094 39.50256399 -22.86580326 37.85771547 -20.8125 36.3125 C-16.51871187 38.23537034 -14.04096299 40.93728869 -10.8125 44.3125 C-7.59725695 42.90405282 -5.49066132 41.20905214 -3.0625 38.6875 C-2.44890625 38.05585937 -1.8353125 37.42421875 -1.203125 36.7734375 C-0.74421875 36.29132813 -0.2853125 35.80921875 0.1875 35.3125 C-1.32626081 31.74485715 -3.41763129 29.47543713 -6.1640625 26.765625 C-7.01484375 25.92128906 -7.865625 25.07695313 -8.7421875 24.20703125 C-9.63164062 23.33433594 -10.52109375 22.46164063 -11.4375 21.5625 C-12.3346875 20.67433594 -13.231875 19.78617188 -14.15625 18.87109375 C-16.37057004 16.68033031 -18.58942435 14.49437237 -20.8125 12.3125 C-23.85505769 13.77240672 -26.0781484 15.25568315 -28.5 17.625 C-29.10199219 18.19863281 -29.70398438 18.77226563 -30.32421875 19.36328125 C-31.98772808 21.24489471 -31.98772808 21.24489471 -32.30078125 23.78125 C-32.93314975 26.90930182 -34.14005643 28.19845629 -36.3125 30.5 C-38.87277498 33.1906682 -38.87277498 33.1906682 -40.8125 36.3125 C-41.4725 36.3125 -42.1325 36.3125 -42.8125 36.3125 C-44.01893566 32.69319302 -44.13518559 30.12018995 -43.8125 26.3125 C-41.02314422 21.04371685 -37.47600983 17.7417004 -32.25 14.9375 C-29.15941919 12.8771128 -27.85031242 10.40009458 -25.8125 7.3125 C-17.91155827 -0.24492252 -10.40922287 -0.02695293 0 0 Z " fill="#EDCEB2" transform="translate(323.8125,55.6875)" />
<path d="M0 0 C1.13308594 -0.020625 2.26617187 -0.04125 3.43359375 -0.0625 C8.14449945 -0.084591 11.91812365 -0.05421368 16.37109375 1.57421875 C20.06021363 4.17295837 22.70993155 7.1698631 24.75 11.25 C24.87376531 14.24212009 24.93846468 17.20998821 24.953125 20.203125 C24.95882507 21.09610291 24.96452515 21.98908081 24.97039795 22.90911865 C24.97985486 24.80219333 24.98638467 26.69528452 24.99023438 28.58837891 C24.99991474 31.47457976 25.03092091 34.36006089 25.0625 37.24609375 C25.06903264 39.08593327 25.07428209 40.92577789 25.078125 42.765625 C25.0904718 43.62520813 25.1028186 44.48479126 25.11553955 45.37042236 C25.09688415 50.43004295 24.51224786 53.84300586 21.75 58.25 C19.16085853 61.08861604 16.42195193 63.02601602 12.75 64.25 C8.65059235 64.53563869 4.54574208 64.52766471 0.4375 64.5625 C-1.25536133 64.60600586 -1.25536133 64.60600586 -2.98242188 64.65039062 C-12.30274426 64.72170563 -12.30274426 64.72170563 -15.8984375 62.390625 C-19.29687291 59.29703264 -21.78529376 56.64411871 -23.25 52.25 C-23.35456581 50.91644707 -23.40828855 49.57848212 -23.42700195 48.2409668 C-23.43983719 47.43970871 -23.45267242 46.63845062 -23.46589661 45.81291199 C-23.47328354 44.95039322 -23.48067047 44.08787445 -23.48828125 43.19921875 C-23.496353 42.30765579 -23.50442474 41.41609283 -23.51274109 40.49751282 C-23.52656906 38.61042214 -23.53729697 36.72330658 -23.54516602 34.83618164 C-23.56237345 31.958662 -23.60626988 29.08229319 -23.65039062 26.20507812 C-23.66051855 24.3698001 -23.66903434 22.53451232 -23.67578125 20.69921875 C-23.69328934 19.84277267 -23.71079742 18.9863266 -23.72883606 18.10392761 C-23.71356246 13.87140436 -23.44610187 11.61282316 -21.38745117 7.80395508 C-14.80308841 -0.06343713 -9.69752728 0.04353548 0 0 Z " fill="#010101" transform="translate(159.25,407.75)" />
<path d="M0 0 C4.18238834 0.54769371 6.59868545 2.89888889 9.75 5.5625 C10.73484375 6.38878906 11.7196875 7.21507812 12.734375 8.06640625 C13.48203125 8.70449219 14.2296875 9.34257812 15 10 C11.10085259 15.27159881 7.09214258 20.4278309 2.9375 25.5 C1.79032344 26.90621643 0.64318922 28.31246741 -0.50390625 29.71875 C-1.37426514 30.78416016 -1.37426514 30.78416016 -2.26220703 31.87109375 C-5.01420691 35.24246758 -7.75680786 38.6214591 -10.5 42 C-11.58328426 43.3333732 -12.6666177 44.66670646 -13.75 46 C-14.28625 46.66 -14.8225 47.32 -15.375 48 C-20.25 54 -20.25 54 -21.87670898 56.00195312 C-22.954542 57.32861659 -24.03218033 58.65543824 -25.10961914 59.98242188 C-27.90049082 63.41916049 -30.69520442 66.852669 -33.49609375 70.28125 C-34.36041016 71.34085938 -34.36041016 71.34085938 -35.2421875 72.421875 C-36.33075619 73.75624953 -37.42049964 75.08966705 -38.51171875 76.421875 C-42.12938652 80.86004474 -45.59518448 85.39673176 -49 90 C-52.89782292 89.17660365 -55.08786173 87.59440541 -58.1875 85.0625 C-59.06792969 84.35222656 -59.94835937 83.64195312 -60.85546875 82.91015625 C-63 81 -63 81 -64 79 C-58.11522268 71.40784047 -52.14947448 63.91604962 -45.91235352 56.60986328 C-42.59772756 52.72260895 -39.38144055 48.77148514 -36.20703125 44.76953125 C-33.43126656 41.28631503 -30.62305486 37.83016615 -27.8125 34.375 C-27.26070068 33.69638916 -26.70890137 33.01777832 -26.14038086 32.31860352 C-23.85156888 29.50431749 -21.56199106 26.69065492 -19.27246094 23.87695312 C-12.81708986 15.94260846 -6.36873421 8.00420977 0 0 Z " fill="#FBE6A4" transform="translate(152,166)" />
<path d="M0 0 C3.16786576 1.54051458 5.92422552 3.26028642 8.75 5.375 C9.54921875 5.96023437 10.3484375 6.54546875 11.171875 7.1484375 C11.77515625 7.75945312 12.3784375 8.37046875 13 9 C13 10.32 13 11.64 13 13 C11.45920176 15.0921477 9.92339667 16.95808737 8.1875 18.875 C7.16833954 20.03710764 6.1514803 21.20123673 5.13671875 22.3671875 C4.35240479 23.2658252 4.35240479 23.2658252 3.55224609 24.18261719 C1.10533274 27.04748397 -1.1962517 30.0197079 -3.5 33 C-7.57245194 38.24308167 -11.78026527 43.34439663 -16.09033203 48.39331055 C-19.39866701 52.27312818 -22.60912205 56.21650604 -25.77734375 60.2109375 C-28.64146824 63.80493554 -31.53829684 67.37177514 -34.4375 70.9375 C-34.99381104 71.62175049 -35.55012207 72.30600098 -36.12329102 73.01098633 C-40.7377026 78.68313493 -45.36386344 84.34559056 -50 90 C-53.9520518 89.41827275 -56.22095053 87.44842259 -59.25 84.9375 C-60.58804688 83.83728516 -60.58804688 83.83728516 -61.953125 82.71484375 C-62.62859375 82.14894531 -63.3040625 81.58304687 -64 81 C-63.40092169 77.74670925 -62.35820644 75.89335564 -60.2265625 73.3828125 C-59.65462158 72.70057617 -59.08268066 72.01833984 -58.4934082 71.31542969 C-57.56854614 70.23116699 -57.56854614 70.23116699 -56.625 69.125 C-55.33849916 67.59227342 -54.05335927 66.05840356 -52.76953125 64.5234375 C-52.12967285 63.75999023 -51.48981445 62.99654297 -50.83056641 62.20996094 C-48.25960779 59.1061576 -45.78053179 55.93581505 -43.3125 52.75 C-39.30133017 47.5916253 -35.15101883 42.57534777 -30.90893555 37.60571289 C-27.60496289 33.73129563 -24.39897173 29.79312553 -21.234375 25.8046875 C-18.30193075 22.12375223 -15.34028236 18.46700337 -12.375 14.8125 C-11.83633301 14.14694092 -11.29766602 13.48138184 -10.74267578 12.7956543 C-7.23003321 8.46913299 -3.64303062 4.21738229 0 0 Z " fill="#FBE6A4" transform="translate(126,145)" />
<path d="M0 0 C5.63604914 1.80086777 9.90620809 5.22787323 13.85546875 9.5703125 C17.00900243 13.76026033 18.13149005 17.72993107 18.41796875 22.9453125 C18.16673735 28.98324042 16.28742054 33.6303819 12.85546875 38.5703125 C9.29837026 42.66270251 5.18756183 45.42955419 0.0234375 47.09765625 C-4.8297344 48.15573517 -9.46319264 48.30694399 -14.27734375 46.984375 C-20.27251271 44.42173415 -24.33910932 39.74131646 -28.14453125 34.5703125 C-30.88261443 29.32231975 -30.78152785 23.36946336 -30.14453125 17.5703125 C-28.47860722 11.25321804 -24.26404707 7.42769849 -19.4609375 3.234375 C-13.45908046 -1.07724574 -7.11346606 -1.42528464 0 0 Z " fill="#030202" transform="translate(166.14453125,344.4296875)" />
<path d="M0 0 C-0.60497557 9.207967 -1.56851148 18.33715412 -2.72949219 27.48779297 C-3.00400854 29.65667037 -3.2717883 31.8263132 -3.5390625 33.99609375 C-3.7131462 35.38546628 -3.88761074 36.77479115 -4.0625 38.1640625 C-4.29646484 40.02732178 -4.29646484 40.02732178 -4.53515625 41.92822266 C-5 45 -5 45 -6 48 C-16.89 48 -27.78 48 -39 48 C-39 34.25505845 -38.6204648 26.45496673 -31.25 15.6875 C-25.14569999 8.17811815 -17.26786217 3.31728939 -8.11328125 0.3984375 C-5.39156078 -0.11471497 -2.76409476 -0.02400082 0 0 Z " fill="#F7D36E" transform="translate(303,168)" />
<path d="M0 0 C8.8442883 0.44221441 16.47048758 2.82743012 23.77734375 7.9453125 C31.76381525 14.64674272 35.73951326 22.21853977 39 32 C39 37.28 39 42.56 39 48 C28.11 48 17.22 48 6 48 C4.84504587 41.64775229 3.7301823 35.47678519 2.9296875 29.1015625 C2.84373322 28.41871185 2.75777893 27.73586121 2.66921997 27.03231812 C2.49135029 25.61271669 2.3149882 24.19292555 2.14013672 22.77294922 C1.87279563 20.60714174 1.59879394 18.44224473 1.32421875 16.27734375 C1.1506465 14.88546589 0.97745549 13.49354042 0.8046875 12.1015625 C0.64983887 10.85713379 0.49499023 9.61270508 0.33544922 8.33056641 C0.05223488 5.51862319 -0.06901914 2.82174356 0 0 Z " fill="#F8D36E" transform="translate(337,168)" />
<path d="M0 0 C26.4 0 52.8 0 80 0 C80 5.28 80 10.56 80 16 C53.6 16 27.2 16 0 16 C0 10.72 0 5.44 0 0 Z " fill="#000000" transform="translate(392,120)" />
<path d="M0 0 C26.4 0 52.8 0 80 0 C80 5.28 80 10.56 80 16 C53.6 16 27.2 16 0 16 C0 10.72 0 5.44 0 0 Z " fill="#000000" transform="translate(392,88)" />
<path d="M0 0 C26.4 0 52.8 0 80 0 C80 5.28 80 10.56 80 16 C53.6 16 27.2 16 0 16 C0 10.72 0 5.44 0 0 Z " fill="#000000" transform="translate(392,56)" />
<path d="M0 0 C1.23298828 -0.01611328 2.46597656 -0.03222656 3.73632812 -0.04882812 C11.85120284 -0.05316068 18.60523699 0.56168287 25.640625 4.78515625 C30.66440271 9.2301074 34.17064182 13.84917308 36.1875 20.3125 C36.93660937 26.18709456 36.61396745 30.88461899 34.1875 36.3125 C33.6212793 35.58329346 33.05505859 34.85408691 32.47167969 34.1027832 C30.31019359 31.46237869 28.06028261 29.07127732 25.640625 26.66796875 C24.79628906 25.82685547 23.95195312 24.98574219 23.08203125 24.11914062 C22.20933594 23.25482422 21.33664062 22.39050781 20.4375 21.5 C19.54933594 20.61634766 18.66117187 19.73269531 17.74609375 18.82226562 C15.56214557 16.6500591 13.3758916 14.4802284 11.1875 12.3125 C8.08856527 13.79395178 5.88376982 15.3194114 3.4375 17.75 C2.82390625 18.34683594 2.2103125 18.94367188 1.578125 19.55859375 C1.11921875 20.13738281 0.6603125 20.71617188 0.1875 21.3125 C0.1875 22.3025 0.1875 23.2925 0.1875 24.3125 C-3.52066154 25.05413231 -5.23398222 25.33065569 -8.8125 24.3125 C-13.37421034 20.96307981 -17.09220483 16.54268334 -20.8125 12.3125 C-23.88430914 13.68905023 -26.09598918 15.27313692 -28.5 17.625 C-29.10199219 18.19863281 -29.70398438 18.77226563 -30.32421875 19.36328125 C-31.98772808 21.24489471 -31.98772808 21.24489471 -32.30078125 23.78125 C-32.93314975 26.90930182 -34.14005643 28.19845629 -36.3125 30.5 C-38.87277498 33.1906682 -38.87277498 33.1906682 -40.8125 36.3125 C-41.4725 36.3125 -42.1325 36.3125 -42.8125 36.3125 C-44.01893566 32.69319302 -44.13518559 30.12018995 -43.8125 26.3125 C-41.02314422 21.04371685 -37.47600983 17.7417004 -32.25 14.9375 C-29.15941919 12.8771128 -27.85031242 10.40009458 -25.8125 7.3125 C-17.91155827 -0.24492252 -10.40922287 -0.02695293 0 0 Z " fill="#AD7644" transform="translate(323.8125,55.6875)" />
<path d="M0 0 C2.18066036 2.02782821 3.64903148 3.90566904 5.00878906 6.55004883 C5.3721637 7.25120316 5.73553833 7.95235748 6.10992432 8.67475891 C6.49130554 9.42790878 6.87268677 10.18105865 7.265625 10.95703125 C7.66328064 11.73761398 8.06093628 12.51819672 8.47064209 13.32243347 C9.30762526 14.97247983 10.14122873 16.6242443 10.97167969 18.27758789 C12.24410192 20.8008041 13.5394928 23.31132688 14.8359375 25.82226562 C15.64727987 27.42895785 16.4572229 29.03635763 17.265625 30.64453125 C17.65510315 31.39160843 18.0445813 32.13868561 18.44586182 32.90840149 C20.18203616 36.42568734 21.02183504 38.4665097 20.85839844 42.4597168 C20.43349121 43.71715698 20.43349121 43.71715698 20 45 C17.06470453 46.46764773 14.67480244 45.82718467 11.47659302 45.42556763 C7.59309998 44.75824405 3.96166866 43.56762858 0.24609375 42.27734375 C-0.54022934 42.01240616 -1.32655243 41.74746857 -2.13670349 41.47450256 C-4.61495206 40.63734294 -7.08869284 39.78768268 -9.5625 38.9375 C-11.25557569 38.36309543 -12.94893292 37.78952003 -14.64257812 37.21679688 C-18.76503197 35.82075149 -22.88349613 34.41348874 -27 33 C-25.12736623 29.00196455 -22.51899235 25.92173847 -19.625 22.625 C-18.54803804 21.38423526 -17.47121957 20.14334595 -16.39453125 18.90234375 C-15.83846191 18.26409668 -15.28239258 17.62584961 -14.70947266 16.96826172 C-11.89178793 13.72402089 -9.10384352 10.45439946 -6.3125 7.1875 C-1.15418199 1.15418199 -1.15418199 1.15418199 0 0 Z " fill="#A6AEB9" transform="translate(451,442)" />
<path d="M0 0 C5.28 0 10.56 0 16 0 C16 10.56 16 21.12 16 32 C10.72 32 5.44 32 0 32 C0 21.44 0 10.88 0 0 Z " fill="#EF7385" transform="translate(152,424)" />
<path d="M0 0 C1.32 0 2.64 0 4 0 C5.24986533 3.749596 5.56718672 7.47726444 5.97265625 11.38671875 C6.06002548 12.20372757 6.14739471 13.02073639 6.2374115 13.86250305 C6.51557825 16.47051306 6.78909461 19.07898698 7.0625 21.6875 C7.25034485 23.45641275 7.43849222 25.2252934 7.62695312 26.99414062 C8.08814593 31.32906252 8.54516881 35.66440621 9 40 C4.38 40 -0.24 40 -5 40 C-4.61353161 36.07090466 -4.22422226 32.14223452 -3.828125 28.21411133 C-3.62974512 26.2348428 -3.43591043 24.25512038 -3.2421875 22.27539062 C-2.48230381 14.77153916 -1.50188442 7.39278025 0 0 Z " fill="#E87081" transform="translate(318,176)" />
<path d="M0 0 C5.28 0 10.56 0 16 0 C16 5.28 16 10.56 16 16 C10.72 16 5.44 16 0 16 C0 10.72 0 5.44 0 0 Z " fill="#000000" transform="translate(456,152)" />
<path d="M0 0 C5.28 0 10.56 0 16 0 C16 5.28 16 10.56 16 16 C10.72 16 5.44 16 0 16 C0 10.72 0 5.44 0 0 Z " fill="#000000" transform="translate(424,152)" />
<path d="M0 0 C5.28 0 10.56 0 16 0 C16 5.28 16 10.56 16 16 C10.72 16 5.44 16 0 16 C0 10.72 0 5.44 0 0 Z " fill="#000000" transform="translate(392,152)" />
<path d="M0 0 C3 0.625 3 0.625 5.875 2.75 C8 5.625 8 5.625 8.625 8.625 C8 11.625 8 11.625 5.875 14.5 C3 16.625 3 16.625 0 17.25 C-3 16.625 -3 16.625 -5.875 14.5 C-8 11.625 -8 11.625 -8.625 8.625 C-8 5.625 -8 5.625 -5.875 2.75 C-3 0.625 -3 0.625 0 0 Z " fill="#E36D7E" transform="translate(160,359.375)" />
<path d="M0 0 C5.28 0 10.56 0 16 0 C15.67 1.65 15.34 3.3 15 5 C12.3125 6.9375 12.3125 6.9375 9 8 C5.34800846 7.21231555 3.11195742 6.07463828 0 4 C0 2.68 0 1.36 0 0 Z " fill="#E2C4AA" transform="translate(312,151)" />
</svg>
