
<svg version="1.1" xmlns="http://www.w3.org/2000/svg" width="512" height="512" viewBox="0 0 512 512" preserveAspectRatio="xMidYMid meet">
<path d="M0 0 C0.99 0.01546875 0.99 0.01546875 2 0.03125 C2.66 0.0209375 3.32 0.010625 4 0 C6 0.53125 6 0.53125 8.10058594 2.19824219 C10 4.53125 10 4.53125 10.45410156 7.28027344 C10.42268066 8.81989746 10.42268066 8.81989746 10.390625 10.390625 C10.37128906 12.06318359 10.37128906 12.06318359 10.3515625 13.76953125 C10.30128906 15.50783203 10.30128906 15.50783203 10.25 17.28125 C10.23195313 18.45558594 10.21390625 19.62992188 10.1953125 20.83984375 C10.1481912 23.7378034 10.08241305 26.63411418 10 29.53125 C12.30299333 30.23605188 12.30299333 30.23605188 15 30.53125 C17.15296077 29.78047422 17.15296077 29.78047422 19.14453125 28.44140625 C20.28438477 27.75981445 20.28438477 27.75981445 21.44726562 27.06445312 C23.01388757 26.09032734 24.57901549 25.11379436 26.14257812 24.13476562 C29.92441942 21.87842656 32.94515447 20.20229679 37.4140625 20.0859375 C41 20.53125 41 20.53125 43.5625 22.59375 C45 25.53125 45 25.53125 45 29.09375 C43.86623536 32.99106594 43.07465594 33.96821681 40 36.53125 C38.06645844 37.58298827 36.09560894 38.5257056 34.10961914 39.47436523 C30.53034683 41.21592642 27.06265019 42.9626637 24 45.53125 C21.89188905 49.52685564 21.34101154 53.07026227 21 57.53125 C20.67 58.19125 20.34 58.85125 20 59.53125 C21.2065625 59.8096875 21.2065625 59.8096875 22.4375 60.09375 C30.96064579 63.53291409 36.98657913 69.98500713 42 77.53125 C47.15565211 86.07029881 48.12502452 93.78459846 47.97021484 103.62890625 C47.83513621 119.48350861 51.32895558 131.01988471 58.45068359 145.25 C61.25621232 151.19174379 63.46455682 157.35432538 65.6875 163.53125 C66.02971588 164.47528183 66.02971588 164.47528183 66.37884521 165.43838501 C76.9763666 194.72537014 76.9763666 194.72537014 79.70703125 206.60791016 C79.93777344 207.59968262 80.16851562 208.59145508 80.40625 209.61328125 C80.59509766 210.50893799 80.78394531 211.40459473 80.97851562 212.32739258 C81.85093676 214.72046143 81.85093676 214.72046143 84.27294922 216.01220703 C87.0150398 216.78679723 87.0150398 216.78679723 89.52587891 215.52758789 C90.41710449 214.94227295 91.30833008 214.35695801 92.2265625 213.75390625 C93.75216797 212.77756226 93.75216797 212.77756226 95.30859375 211.78149414 C96.40300781 211.05953857 97.49742187 210.33758301 98.625 209.59375 C100.98559122 208.08327644 103.3560593 206.58860606 105.7265625 205.09375 C106.33268372 204.70949356 106.93880493 204.32523712 107.56329346 203.92933655 C126.54321665 191.94046425 146.72732545 181.96033108 166.828125 172.015625 C167.44995667 171.70690964 168.07178833 171.39819427 168.71246338 171.0801239 C180.16776374 165.44364618 180.16776374 165.44364618 183.375 165.78125 C185 166.53125 185 166.53125 186 167.53125 C191.11563206 211.48779217 184.96884614 258.56383338 176 301.53125 C176.70455322 301.47066406 177.40910645 301.41007812 178.13500977 301.34765625 C194.42260328 299.99458514 210.59635769 299.32993296 226.9375 299.34375 C227.78724396 299.3430249 228.63698792 299.3422998 229.51248169 299.34155273 C231.9550191 299.3417891 234.39734239 299.35051413 236.83984375 299.36328125 C237.5616684 299.36447464 238.28349304 299.36566803 239.02719116 299.36689758 C243.45469313 299.40764506 247.64324553 299.8179902 252 300.53125 C252.76171875 302.49609375 252.76171875 302.49609375 253 305.53125 C251.92987813 308.55839179 250.37434417 311.2950879 248.8125 314.09375 C248.35762207 314.92946533 247.90274414 315.76518066 247.43408203 316.6262207 C229.6436229 348.99035816 208.82949396 380.13085476 184 407.53125 C186.57962993 410.40341529 189.52575049 412.28026036 192.8125 414.28125 C193.82957031 414.91546875 194.84664063 415.5496875 195.89453125 416.203125 C198.86807945 417.712448 198.86807945 417.712448 201.8125 417.546875 C206.29176479 416.11965828 210.13967533 413.89494324 214.1875 411.53125 C215.78392652 410.61244337 217.38153475 409.69568607 218.98046875 408.78125 C220.03077271 408.17023438 220.03077271 408.17023438 221.10229492 407.546875 C226.17460055 404.83224855 231.3950116 404.98759675 237 405.53125 C241.5270604 406.8428983 244.31720071 408.76091234 247.4375 412.28125 C249.28956065 416.13353615 250.19219033 419.25292604 250 423.53125 C247.63271825 431.66878101 241.55083566 438.95992789 235.01171875 444.25 C228.65169428 448.30065636 221.43066397 449.97044517 214 450.53125 C214.56847656 450.799375 215.13695312 451.0675 215.72265625 451.34375 C222.68797603 454.878737 227.3071155 459.02186352 231.3203125 465.7421875 C234.7904987 473.04656545 234.83051155 480.59429945 234 488.53125 C232.58746708 494.74137993 229.69679753 500.03520291 225.22704124 504.58658695 C220.04218223 509.1140306 214.1342636 512.06655847 207.30811691 513.07861519 C203.08824475 513.28719072 198.9078783 513.30968261 194.68505859 513.26000977 C193.07703966 513.26323599 191.46902419 513.26906352 189.86102295 513.27726746 C185.52560184 513.29170641 181.19111932 513.26897562 176.8558116 513.23840833 C172.29187743 513.21185439 167.72796664 513.21734347 163.16397095 513.2184906 C155.49603808 513.2156879 147.82846302 513.18974604 140.16064453 513.14868164 C131.3401783 513.10161379 122.52010423 513.08568442 113.69952142 513.0878883 C104.25443805 513.08992827 94.80950257 513.06901971 85.36446428 513.04154849 C82.66926398 513.03520527 79.97408813 513.03303187 77.27888107 513.03183174 C73.01213177 513.02877732 68.74570083 513.01013672 64.47905731 512.98033333 C62.92889742 512.97170377 61.37870083 512.96785192 59.82851791 512.96961594 C46.35757959 512.97912919 33.42027668 511.28239836 20.38048017 507.86372 C2.6536907 503.26761436 -12.38780219 506.50993274 -29.8671875 510.86694336 C-38.85816046 512.77346124 -47.80877505 512.70534572 -56.95605469 512.73999023 C-58.57321366 512.74954186 -60.19037065 512.75943357 -61.80752563 512.76963806 C-67.09561789 512.80086154 -72.38372512 512.82126649 -77.671875 512.83984375 C-78.57410325 512.84314107 -79.4763315 512.84643839 -80.4059 512.84983563 C-88.9260663 512.8806003 -97.44623643 512.90728366 -105.96644211 512.92425442 C-116.83125115 512.94615711 -127.695566 512.98815481 -138.56017756 513.05769199 C-146.21905885 513.10503454 -153.87780722 513.12920123 -161.53683019 513.1364513 C-166.10253927 513.14139021 -170.66768948 513.1563037 -175.23323822 513.1961956 C-179.53121172 513.23325966 -183.82831157 513.24140764 -188.12641525 513.22818947 C-189.69527318 513.22824308 -191.26417187 513.23840192 -192.83288193 513.2599411 C-202.74723171 513.38869206 -210.61418923 512.22466667 -219 506.53125 C-223.84060366 502.30296537 -227.17877049 497.50518052 -229.33984375 491.43359375 C-231.08606235 483.75643151 -231.09202643 475.5517052 -228.4375 468.09375 C-225.66587817 462.25977678 -221.97755741 457.47993805 -216.546875 453.92578125 C-214.39292868 452.71672647 -212.23353225 451.58470739 -210 450.53125 C-211.12535156 450.40169922 -211.12535156 450.40169922 -212.2734375 450.26953125 C-220.49097415 449.14143113 -227.39828176 447.19981663 -233.96484375 441.96484375 C-238.86563421 437.34287288 -243.73578623 431.74058748 -245.69921875 425.203125 C-246.31559244 421.30605266 -246.02567542 418.62753283 -245 414.78125 C-242.59351362 410.87070964 -239.99093889 408.72626639 -236 406.53125 C-231.18723716 404.92699572 -227.0208791 404.71281768 -222 405.53125 C-215.78883282 407.82282348 -209.71178974 411.11086203 -204.16992188 414.72460938 C-201.28937112 416.56171145 -199.41377981 417.53497295 -195.9609375 417.50390625 C-192.52529629 416.37531171 -189.70983344 414.85392599 -186.625 412.96875 C-185.56539062 412.32808594 -184.50578125 411.68742187 -183.4140625 411.02734375 C-182.61742187 410.53363281 -181.82078125 410.03992188 -181 409.53125 C-182.60672129 405.76743879 -184.99522581 403.08973787 -187.6875 400.03125 C-211.02293597 372.91676438 -230.19023945 342.03557873 -247 310.53125 C-247.56726807 309.51417969 -247.56726807 309.51417969 -248.14599609 308.4765625 C-249 306.53125 -249 306.53125 -248.625 303.78125 C-248.41875 303.03875 -248.2125 302.29625 -248 301.53125 C-242.75800023 300.66514291 -237.71063426 300.37155581 -232.40234375 300.36328125 C-231.58237915 300.35922775 -230.76241455 300.35517426 -229.91760254 300.35099792 C-227.25752852 300.34156115 -224.59758848 300.34160108 -221.9375 300.34375 C-221.0325882 300.3430249 -220.12767639 300.3422998 -219.19534302 300.34155273 C-202.72373639 300.34300794 -186.41143754 301.098702 -170 302.53125 C-170.13051758 301.96132324 -170.26103516 301.39139648 -170.39550781 300.80419922 C-174.30531057 283.49767299 -177.01983313 266.16020262 -179 248.53125 C-179.12004395 247.48324219 -179.24008789 246.43523437 -179.36376953 245.35546875 C-181.16058951 228.83864968 -181.17847959 212.31345529 -181.1875 195.71875 C-181.18858765 194.61751801 -181.18967529 193.51628601 -181.1907959 192.38168335 C-181.19044161 189.21662564 -181.18128995 186.05174621 -181.16796875 182.88671875 C-181.16675522 181.93156372 -181.16554169 180.97640869 -181.16429138 179.99230957 C-181.13201133 175.39430421 -180.94110455 171.05465378 -180 166.53125 C-177.73816919 165.76531901 -176.38862179 165.42351133 -174.05908203 166.06933594 C-173.38216309 166.38161133 -172.70524414 166.69388672 -172.0078125 167.015625 C-170.84415161 167.54397949 -170.84415161 167.54397949 -169.65698242 168.08300781 C-168.40365112 168.6761377 -168.40365112 168.6761377 -167.125 169.28125 C-166.24368408 169.68956055 -165.36236816 170.09787109 -164.4543457 170.51855469 C-161.62758494 171.8386562 -158.81242604 173.18089858 -156 174.53125 C-155.10297363 174.96050781 -154.20594727 175.38976562 -153.28173828 175.83203125 C-132.77357106 185.7111702 -113.15889685 197.1504613 -93.58984375 208.75390625 C-92.79046387 209.22715332 -91.99108398 209.70040039 -91.16748047 210.18798828 C-89.26268385 211.36845584 -87.48819664 212.62967709 -85.69140625 213.96484375 C-84.35916016 214.74021484 -84.35916016 214.74021484 -83 215.53125 C-80.37069373 215.18106542 -80.37069373 215.18106542 -78 214.53125 C-77.8047876 213.84949707 -77.6095752 213.16774414 -77.40844727 212.46533203 C-70.36713486 187.99529128 -62.31982419 164.13542433 -52.578125 140.59765625 C-52.15515137 139.57293213 -51.73217773 138.54820801 -51.29638672 137.49243164 C-50.45742592 135.57609351 -49.55561651 133.68557428 -48.58251953 131.83374023 C-44.55049828 124.05462342 -44.32317237 117.13692059 -44.375 108.46875 C-44.375 95.6928195 -43.25950466 85.30707723 -36 74.53125 C-31.04727097 67.87602037 -25.52936394 63.10000056 -18 59.53125 C-17.34 59.53125 -16.68 59.53125 -16 59.53125 C-16.474375 58.335 -16.94875 57.13875 -17.4375 55.90625 C-18.49148327 53.24837915 -19.00006054 51.50860882 -19.0078125 48.609375 C-19.69638969 45.49647757 -19.69638969 45.49647757 -21.82543945 44.08642578 C-24.32172471 42.59728657 -26.85169809 41.23384083 -29.4375 39.90625 C-31.19143794 38.98648648 -32.94040125 38.05715726 -34.68359375 37.1171875 C-35.46275146 36.7154834 -36.24190918 36.3137793 -37.04467773 35.89990234 C-39 34.53125 -39 34.53125 -40.28149414 32.59228516 C-41.41345165 29.3452633 -40.77801857 26.82286703 -40 23.53125 C-38.9375 21.59375 -38.9375 21.59375 -37 20.53125 C-33.11794435 20.11226161 -30.35667483 19.95618405 -26.74047852 21.48901367 C-24.38540213 22.79358448 -22.09432638 24.16497858 -19.8125 25.59375 C-18.26465846 26.55619812 -16.70885956 27.50599364 -15.14453125 28.44140625 C-14.12903198 29.07767944 -14.12903198 29.07767944 -13.09301758 29.72680664 C-10.93735257 30.74728498 -10.93735257 30.74728498 -8.2409668 30.16186523 C-7.50144775 29.95376221 -6.76192871 29.74565918 -6 29.53125 C-6.02094727 28.79487305 -6.04189453 28.05849609 -6.06347656 27.29980469 C-6.14667144 23.96042558 -6.19867157 20.62126451 -6.25 17.28125 C-6.28351563 16.12238281 -6.31703125 14.96351562 -6.3515625 13.76953125 C-6.36445313 12.65449219 -6.37734375 11.53945312 -6.390625 10.390625 C-6.41157227 9.36420898 -6.43251953 8.33779297 -6.45410156 7.28027344 C-6 4.53125 -6 4.53125 -4.10058594 2.19824219 C-2 0.53125 -2 0.53125 0 0 Z " fill="#43A3F8" transform="translate(254,-0.53125)" />
<path d="M0 0 C1.625 0.75 1.625 0.75 2.625 1.75 C7.74063206 45.70654217 1.59384614 92.78258338 -7.375 135.75 C-6.67044678 135.68941406 -5.96589355 135.62882813 -5.23999023 135.56640625 C11.04760328 134.21333514 27.22135769 133.54868296 43.5625 133.5625 C44.41224396 133.5617749 45.26198792 133.5610498 46.13748169 133.56030273 C48.5800191 133.5605391 51.02234239 133.56926413 53.46484375 133.58203125 C54.1866684 133.58322464 54.90849304 133.58441803 55.65219116 133.58564758 C60.07969313 133.62639506 64.26824553 134.0367402 68.625 134.75 C69.38671875 136.71484375 69.38671875 136.71484375 69.625 139.75 C68.55487813 142.77714179 66.99934417 145.5138379 65.4375 148.3125 C64.98262207 149.14821533 64.52774414 149.98393066 64.05908203 150.8449707 C46.04083937 183.62348855 24.94621052 215.15407081 -0.375 242.75 C-4.79350187 241.42403765 -8.4992997 239.68268916 -12.4609375 237.328125 C-13.03173538 236.99122147 -13.60253326 236.65431793 -14.19062805 236.3072052 C-16.04692839 235.21006761 -17.89845709 234.10514386 -19.75 233 C-21.03717231 232.23696829 -22.32469263 231.47452336 -23.61254883 230.71264648 C-25.58348759 229.54656719 -27.55416686 228.3800737 -29.52357483 227.21141052 C-33.85207254 224.64392985 -38.19474438 222.10248079 -42.55078125 219.58203125 C-44.20231201 218.62538574 -44.20231201 218.62538574 -45.88720703 217.64941406 C-47.96911013 216.44502848 -50.05208206 215.24248816 -52.13623047 214.04199219 C-53.0645166 213.50348633 -53.99280273 212.96498047 -54.94921875 212.41015625 C-55.75963623 211.94230713 -56.57005371 211.47445801 -57.4050293 210.99243164 C-59.375 209.75 -59.375 209.75 -61.375 207.75 C-61.88557434 205.25285339 -61.88557434 205.25285339 -62.25708008 202.05151367 C-62.40113785 200.84840546 -62.54519562 199.64529724 -62.69361877 198.4057312 C-62.84402869 197.07648901 -62.9943297 195.7472345 -63.14453125 194.41796875 C-63.30658171 193.04157923 -63.46947504 191.66528871 -63.63316345 190.28909302 C-63.97992608 187.36160376 -64.32163353 184.43358748 -64.65930176 181.5050354 C-65.44917186 174.65831361 -66.26516746 167.81468547 -67.07912064 160.97079277 C-67.34739735 158.71311629 -67.61469834 156.45532571 -67.88192749 154.19752502 C-69.36274558 141.71234452 -70.97651709 129.24920736 -72.72192383 116.79833984 C-73.69136852 109.87213441 -74.59991955 102.94873606 -75.390625 96 C-75.6403048 93.86548982 -75.89115231 91.73111952 -76.14221191 89.59677124 C-76.36464118 87.65302292 -76.5670901 85.7070193 -76.76855469 83.76098633 C-77.81755348 74.86222442 -80.27626464 67.63889294 -85.6875 60.4375 C-88.92868209 57.19631791 -92.39491382 54.98200863 -96.375 52.75 C-96.375 52.09 -96.375 51.43 -96.375 50.75 C-70.48348874 34.47782593 -43.95447984 19.79406321 -16.546875 6.234375 C-15.92504333 5.92565964 -15.30321167 5.61694427 -14.66253662 5.2988739 C-3.20723626 -0.33760382 -3.20723626 -0.33760382 0 0 Z " fill="#FEC8EF" transform="translate(437.375,165.25)" />
<path d="M0 0 C7.07215474 1.50257693 13.73053845 5.05488383 20.1875 8.1875 C21.26410889 8.70868408 22.34071777 9.22986816 23.44995117 9.7668457 C42.61520474 19.13655565 61.36984701 29.20860343 79.625 40.25 C80.22672028 40.61225677 80.82844055 40.97451355 81.44839478 41.3477478 C92.02198556 47.73508137 92.02198556 47.73508137 96 52 C95.20335937 52.53367188 94.40671875 53.06734375 93.5859375 53.6171875 C86.60968465 58.5226305 81.43019435 62.93040609 78 71 C76.34241213 76.1822879 75.48684158 81.12907029 74.921875 86.5078125 C74.83013 87.32934311 74.73838501 88.15087372 74.64385986 88.99729919 C74.44547078 90.77431893 74.24948632 92.55160844 74.05566406 94.32913208 C73.52638448 99.17038095 72.97540945 104.00912814 72.421875 108.84765625 C72.30702759 109.85185104 72.19218018 110.85604584 72.07385254 111.89067078 C70.63583619 124.33109037 68.95269837 136.7388059 67.22265625 149.14160156 C65.89748541 158.72459646 64.74249608 168.29134284 63.859375 177.92578125 C63.57800703 180.81441532 63.29369958 183.70274735 63.00878906 186.59103394 C62.83827007 188.42542013 62.68421036 190.261422 62.54785156 192.09866333 C62.14102897 197.57400717 61.62535634 202.73955158 60 208 C57.11676892 211.46806564 54.07179213 213.16512411 50 215 C48.6378023 215.78360957 47.2805642 216.57593758 45.9296875 217.37890625 C44.58077458 218.11166949 43.22911156 218.83938873 41.875 219.5625 C32.23487077 224.81239593 22.77002332 230.34780126 13.30078125 235.8984375 C11.925271 236.69846191 11.925271 236.69846191 10.52197266 237.51464844 C8.96171435 238.43358469 7.4119347 239.37091057 5.88037109 240.33691406 C1.58680109 243 1.58680109 243 -1.19140625 243 C-10.8791151 237.64351303 -18.50164086 223.72787442 -25 215 C-25.5367334 214.28279785 -26.0734668 213.5655957 -26.62646484 212.82666016 C-43.18863212 190.61772656 -59.53184476 166.29909622 -71 141 C-70.75 138 -70.75 138 -70 136 C-64.75800023 135.13389291 -59.71063426 134.84030581 -54.40234375 134.83203125 C-53.17239685 134.825951 -53.17239685 134.825951 -51.91760254 134.81974792 C-49.25752852 134.81031115 -46.59758848 134.81035108 -43.9375 134.8125 C-43.0325882 134.8117749 -42.12767639 134.8110498 -41.19534302 134.81030273 C-24.72373639 134.81175794 -8.41143754 135.567452 8 137 C7.86948242 136.43007324 7.73896484 135.86014648 7.60449219 135.27294922 C3.69468943 117.96642299 0.98016687 100.62895262 -1 83 C-1.12004395 81.95199219 -1.24008789 80.90398437 -1.36376953 79.82421875 C-3.16058951 63.30739968 -3.17847959 46.78220529 -3.1875 30.1875 C-3.18858765 29.08626801 -3.18967529 27.98503601 -3.1907959 26.85043335 C-3.19044161 23.68537564 -3.18128995 20.52049621 -3.16796875 17.35546875 C-3.16675522 16.40031372 -3.16554169 15.44515869 -3.16429138 14.46105957 C-3.10014579 5.32409307 -3.10014579 5.32409307 -2 1 C-1.34 0.67 -0.68 0.34 0 0 Z " fill="#FEC8F0" transform="translate(76,165)" />
<path d="M0 0 C0.99 0.01546875 0.99 0.01546875 2 0.03125 C2.66 0.0209375 3.32 0.010625 4 0 C6 0.53125 6 0.53125 8.10058594 2.19824219 C10 4.53125 10 4.53125 10.45410156 7.28027344 C10.4331543 8.30668945 10.41220703 9.33310547 10.390625 10.390625 C10.37773437 11.50566406 10.36484375 12.62070313 10.3515625 13.76953125 C10.31804687 14.92839844 10.28453125 16.08726563 10.25 17.28125 C10.23195313 18.45558594 10.21390625 19.62992188 10.1953125 20.83984375 C10.1481912 23.7378034 10.08241305 26.63411418 10 29.53125 C12.30299333 30.23605188 12.30299333 30.23605188 15 30.53125 C17.15296077 29.78047422 17.15296077 29.78047422 19.14453125 28.44140625 C19.90443359 27.98701172 20.66433594 27.53261719 21.44726562 27.06445312 C23.01388757 26.09032734 24.57901549 25.11379436 26.14257812 24.13476562 C29.92441942 21.87842656 32.94515447 20.20229679 37.4140625 20.0859375 C41 20.53125 41 20.53125 43.5625 22.59375 C45 25.53125 45 25.53125 45 29.09375 C43.86623536 32.99106594 43.07465594 33.96821681 40 36.53125 C38.06645844 37.58298827 36.09560894 38.5257056 34.10961914 39.47436523 C30.53034683 41.21592642 27.06265019 42.9626637 24 45.53125 C21.89188905 49.52685564 21.34101154 53.07026227 21 57.53125 C20.505 58.52125 20.505 58.52125 20 59.53125 C20.804375 59.716875 21.60875 59.9025 22.4375 60.09375 C30.96064579 63.53291409 36.98657913 69.98500713 42 77.53125 C47.15565211 86.07029881 48.12502452 93.78459846 47.97021484 103.62890625 C47.83513621 119.48350861 51.32895558 131.01988471 58.45068359 145.25 C61.25618923 151.19169488 63.46485042 157.3542582 65.6875 163.53125 C65.91564392 164.16093689 66.14378784 164.79062378 66.37884521 165.43939209 C72.33560416 181.91162706 77.91612608 198.48892998 82 215.53125 C73.60515109 214.90984508 65.35811429 213.76007439 57.0625 212.34375 C55.87720703 212.16005859 54.69191406 211.97636719 53.47070312 211.78710938 C44.46204253 210.24036732 35.55450063 207.75514695 28.69946289 201.39770508 C25.88205651 198.32242288 23.76510545 195.31361883 22 191.53125 C21.63648438 192.13453125 21.27296875 192.7378125 20.8984375 193.359375 C17.7520875 198.36126474 15.23777324 201.73777094 10 204.53125 C5.62917918 205.98819027 1.56824743 206.01247488 -3 205.53125 C-7.46434449 204.1795886 -10.8151965 202.04600971 -13.875 198.53125 C-15.52788266 196.1977686 -16.77785179 194.08564985 -18 191.53125 C-18.3403125 192.11132812 -18.680625 192.69140625 -19.03125 193.2890625 C-22.53937836 198.94312044 -26.1308832 203.27062956 -32 206.53125 C-37.3412607 208.69999529 -42.40780015 210.19462098 -48.078125 211.171875 C-48.81198425 211.3031781 -49.54584351 211.4344812 -50.30194092 211.56976318 C-51.83734334 211.84229926 -53.37343091 212.11100158 -54.91015625 212.37597656 C-57.26009096 212.78299781 -59.60650663 213.20713319 -61.953125 213.6328125 C-63.45294454 213.89686044 -64.95293907 214.15991675 -66.453125 214.421875 C-67.50007538 214.6123642 -67.50007538 214.6123642 -68.56817627 214.80670166 C-71.97453027 215.38181672 -74.71649544 215.75443413 -78 214.53125 C-70.7921497 189.35880708 -62.5962647 164.80335633 -52.578125 140.59765625 C-52.15515137 139.57293213 -51.73217773 138.54820801 -51.29638672 137.49243164 C-50.45742592 135.57609351 -49.55561651 133.68557428 -48.58251953 131.83374023 C-44.55049828 124.05462342 -44.32317237 117.13692059 -44.375 108.46875 C-44.375 95.6928195 -43.25950466 85.30707723 -36 74.53125 C-31.04727097 67.87602037 -25.52936394 63.10000056 -18 59.53125 C-17.34 59.53125 -16.68 59.53125 -16 59.53125 C-16.474375 58.335 -16.94875 57.13875 -17.4375 55.90625 C-18.49148327 53.24837915 -19.00006054 51.50860882 -19.0078125 48.609375 C-19.69638969 45.49647757 -19.69638969 45.49647757 -21.82543945 44.08642578 C-24.32172471 42.59728657 -26.85169809 41.23384083 -29.4375 39.90625 C-31.19143794 38.98648648 -32.94040125 38.05715726 -34.68359375 37.1171875 C-35.85233032 36.51463135 -35.85233032 36.51463135 -37.04467773 35.89990234 C-39 34.53125 -39 34.53125 -40.28149414 32.59228516 C-41.41345165 29.3452633 -40.77801857 26.82286703 -40 23.53125 C-38.9375 21.59375 -38.9375 21.59375 -37 20.53125 C-33.11794435 20.11226161 -30.35667483 19.95618405 -26.74047852 21.48901367 C-24.38540213 22.79358448 -22.09432638 24.16497858 -19.8125 25.59375 C-18.26465846 26.55619812 -16.70885956 27.50599364 -15.14453125 28.44140625 C-14.12903198 29.07767944 -14.12903198 29.07767944 -13.09301758 29.72680664 C-10.93735257 30.74728498 -10.93735257 30.74728498 -8.2409668 30.16186523 C-7.13168823 29.84971069 -7.13168823 29.84971069 -6 29.53125 C-6.0314209 28.42668457 -6.0314209 28.42668457 -6.06347656 27.29980469 C-6.14667144 23.96042558 -6.19867157 20.62126451 -6.25 17.28125 C-6.28351563 16.12238281 -6.31703125 14.96351562 -6.3515625 13.76953125 C-6.37089844 12.09697266 -6.37089844 12.09697266 -6.390625 10.390625 C-6.4220459 8.85100098 -6.4220459 8.85100098 -6.45410156 7.28027344 C-6 4.53125 -6 4.53125 -4.10058594 2.19824219 C-2 0.53125 -2 0.53125 0 0 Z " fill="#43A3F8" transform="translate(254,-0.53125)" />
<path d="M0 0 C0.81723038 -0.0040535 1.63446075 -0.00810699 2.47645569 -0.01228333 C5.13017704 -0.02172428 7.78376413 -0.02167928 10.4375 -0.01953125 C11.79245071 -0.0206189 11.79245071 -0.0206189 13.17477417 -0.02172852 C29.99440835 -0.02024099 46.67907737 0.76630778 63.4375 2.16796875 C63.673479 2.98249512 63.90945801 3.79702148 64.15258789 4.63623047 C72.15265245 32.11985426 81.19842652 58.69520455 96.4375 83.16796875 C94.04047314 85.81502562 91.47168195 87.46141395 88.38671875 89.2421875 C87.38415039 89.82411865 86.38158203 90.4060498 85.34863281 91.00561523 C84.28483398 91.61606689 83.22103516 92.22651855 82.125 92.85546875 C81.04444336 93.4781665 79.96388672 94.10086426 78.85058594 94.74243164 C76.69791077 95.98268587 74.54444279 97.22156517 72.39013672 98.45898438 C69.87125034 99.91691431 67.37034148 101.39821056 64.87890625 102.90234375 C64.24057861 103.28302002 63.60225098 103.66369629 62.94458008 104.0559082 C61.30813247 105.03341109 59.67726998 106.02024738 58.046875 107.0078125 C55.4375 108.16796875 55.4375 108.16796875 53.32421875 108.109375 C43.65603116 103.28528968 35.76395404 88.66495932 29.4375 80.16796875 C28.9007666 79.4507666 28.3640332 78.73356445 27.81103516 77.99462891 C11.24886788 55.78569531 -5.09434476 31.46706497 -16.5625 6.16796875 C-16.3125 3.16796875 -16.3125 3.16796875 -15.5625 1.16796875 C-10.33204479 0.30440957 -5.29650205 0.0082906 0 0 Z " fill="#FEA1E7" transform="translate(21.5625,299.83203125)" />
<path d="M0 0 C0.84806213 -0.00081573 1.69612427 -0.00163147 2.56988525 -0.00247192 C5.00500884 -0.00220615 7.43991343 0.00661428 9.875 0.01953125 C10.95296341 0.02132889 10.95296341 0.02132889 12.05270386 0.02316284 C16.47138385 0.06398643 20.65179712 0.47616296 25 1.1875 C25.76171875 3.15234375 25.76171875 3.15234375 26 6.1875 C24.92987813 9.21464179 23.37434417 11.9513379 21.8125 14.75 C21.35762207 15.58571533 20.90274414 16.42143066 20.43408203 17.2824707 C2.41583937 50.06098855 -18.67878948 81.59157081 -44 109.1875 C-48.61363071 107.82221078 -52.57932604 105.87758286 -56.68359375 103.4140625 C-57.30218765 103.04904633 -57.92078156 102.68403015 -58.55812073 102.30795288 C-60.52112166 101.14812085 -62.47938488 99.98055782 -64.4375 98.8125 C-66.39308935 97.65341723 -68.34961486 96.49592604 -70.3061676 95.33847046 C-71.5180112 94.62075459 -72.72911614 93.90178934 -73.9393158 93.18130493 C-77.93457264 90.80430776 -81.95873406 88.48496498 -86 86.1875 C-84.53390385 82.194414 -82.61424668 78.71239847 -80.4375 75.0625 C-68.09093513 53.75366457 -59.34619013 30.77668523 -53.875 6.78125 C-53 3.1875 -53 3.1875 -52 2.1875 C-47.64549598 1.63466969 -43.25442725 1.40972873 -38.875 1.125 C-37.86856445 1.05821548 -37.86856445 1.05821548 -36.84179688 0.99008179 C-24.5623842 0.19825172 -12.30271981 -0.00564305 0 0 Z " fill="#FEA1E6" transform="translate(481,298.8125)" />
<path d="M0 0 C0.33 0 0.66 0 1 0 C1.64998069 3.81180475 2.29421929 7.62455932 2.9375 11.4375 C3.11990234 12.50677734 3.30230469 13.57605469 3.49023438 14.67773438 C4.38692063 20.00894176 5.22149619 25.3012065 5.65844727 30.69165039 C6.0683872 33.46218794 6.78888011 36.12711399 7.48500061 38.83717346 C8.32845992 42.37942267 8.85994089 45.96002202 9.40234375 49.55859375 C9.65536948 51.17777025 9.90863196 52.79690977 10.16210938 54.41601562 C10.55117921 56.92768571 10.9378306 59.43967329 11.32006836 61.95239258 C13.43921542 78.46841469 13.43921542 78.46841469 21 93 C26.29798013 98.49105103 32.36408009 101.30307627 39.3125 104.25 C40.45823486 104.74741699 41.60396973 105.24483398 42.78442383 105.75732422 C46.09467717 107.19331681 49.4120998 108.61209975 52.73059082 110.02893066 C56.02368983 111.43803198 59.31214643 112.85783956 62.60098267 114.27685547 C79.79750167 121.69501561 96.99833062 129.10670946 114.33862305 136.18408203 C115.19496338 136.53583496 116.05130371 136.88758789 116.93359375 137.25 C117.65603271 137.54390625 118.37847168 137.8378125 119.12280273 138.140625 C121 139 121 139 124 141 C106.08816919 140.38541592 88.27225337 138.52115169 70.440979 136.80297852 C67.1072909 136.482752 63.77322539 136.16656312 60.43913937 135.8505106 C57.16911391 135.54030449 53.89924543 135.22846966 50.62942696 134.91609001 C49.0952774 134.76953971 47.56110266 134.62325268 46.02689934 134.47726631 C41.01641675 133.99948654 36.00772758 133.50580667 31 133 C30.20539997 132.920807 29.41079994 132.841614 28.59212112 132.76002121 C26.15127027 132.51440543 23.71145538 132.26018008 21.27172852 132.00366211 C20.52702521 131.92948594 19.78232191 131.85530977 19.01505184 131.77888584 C10.40353035 130.85165782 3.60340003 128.12143437 -3.12109375 122.6875 C-12.26704223 114.47325937 -15.47412309 105.80269904 -18.38671875 94.0546875 C-21.73761615 77.36423039 -21.21809589 60.17972093 -16 44 C-15.71125 42.98292969 -15.4225 41.96585937 -15.125 40.91796875 C-13.12402039 34.24505907 -10.16990248 28.36981484 -6.94042969 22.23828125 C-3.33083701 15.13498462 -1.57091129 7.7718769 0 0 Z " fill="#FCDCF5" transform="translate(325,307)" />
<path d="M0 0 C0.33 0 0.66 0 1 0 C1.0515625 0.7528125 1.103125 1.505625 1.15625 2.28125 C2.17434021 11.81427653 5.57695296 18.78282448 10.02783203 27.13671875 C19.85899898 45.97937724 22.93690164 66.89625409 20.50390625 87.88671875 C18.93343935 99.21279338 16.32634528 109.44319803 8.8125 118.375 C1.24790098 126.13899537 -6.39135655 129.65297652 -16.95764923 131.66106415 C-24.31470302 132.88199511 -31.785943 133.37521304 -39.2109375 134.0078125 C-41.1518916 134.17974031 -43.09277803 134.35243369 -45.03359985 134.52584839 C-50.11348333 134.97748635 -55.19427746 135.41793574 -60.27532959 135.85620117 C-64.39374722 136.21334425 -68.51143554 136.57849996 -72.62911034 136.9440937 C-77.59364758 137.38471481 -82.55849515 137.82178233 -87.5234375 138.2578125 C-88.44926006 138.33918583 -89.37508263 138.42055916 -90.32896042 138.50439835 C-101.21312445 139.45741932 -112.09445225 140.32940711 -123 141 C-119.50904301 138.67269534 -115.84152886 137.12960879 -111.99609375 135.5 C-111.18158249 135.15197327 -110.36707123 134.80394653 -109.52787781 134.44537354 C-107.7593283 133.69015201 -105.99018409 132.93632196 -104.22052002 132.18371582 C-101.41317424 130.9896534 -98.6075064 129.7917264 -95.80224609 128.59277344 C-87.90258507 125.21765968 -79.99936487 121.85091368 -72.09521484 118.48632812 C-67.34408168 116.46380112 -62.59439958 114.43789709 -57.8454895 112.41015625 C-55.18526377 111.27569956 -52.52322006 110.14558991 -49.86108398 109.015625 C-31.22008994 102.05511539 -31.22008994 102.05511539 -17 89 C-14.65405704 84.74900874 -13.38305213 80.95493023 -12.5 76.1875 C-12.37922592 75.54573318 -12.25845184 74.90396637 -12.13401794 74.24275208 C-11.74617669 72.16351071 -11.37246986 70.08204539 -11 68 C-10.73333269 66.54513331 -10.46648535 65.0902996 -10.19946289 63.63549805 C-8.60932743 54.87941556 -7.23034971 46.1175139 -6.11987305 37.28662109 C-4.52243689 24.79243039 -2.20511649 12.39838198 0 0 Z " fill="#FCDCF5" transform="translate(186,307)" />
<path d="M0 0 C4.58527663 -0.48779539 7.41034764 -0.07064526 11.5 2.125 C18.58075349 6.44077335 23.3009964 10.91034771 27.73828125 17.94921875 C31.04747635 25.95070906 31.4972527 35.26482001 32.55078125 43.8046875 C32.68978851 44.90969101 32.82879578 46.01469452 32.97201538 47.15318298 C33.26818023 49.50875519 33.56307247 51.8644877 33.85678101 54.22036743 C34.62983465 60.41986112 35.41224385 66.61817071 36.1953125 72.81640625 C36.35031723 74.04427353 36.50532196 75.27214081 36.6650238 76.53721619 C37.55708848 83.57974039 38.47101743 90.61857402 39.4296875 97.65234375 C39.53683578 98.44012711 39.64398407 99.22791046 39.75437927 100.03956604 C40.26201414 103.75484273 40.78028199 107.46827186 41.3137207 111.17993164 C42.25573798 117.8218521 43.07869515 124.4320712 43.56343079 131.12495422 C43.79210165 134.27192751 44.06087313 137.41508654 44.32876587 140.55892944 C44.49430786 142.73758717 44.5933422 144.91237284 44.69018555 147.0949707 C44.96110715 150.97560409 45.51368567 154.36516572 47 158 C50.88103414 161.6556627 55.21216675 163.73069197 60 166 C62.10695425 167.20694146 64.20370193 168.43190217 66.2890625 169.67578125 C68.39993092 170.88995395 70.51193388 172.10215609 72.625 173.3125 C74.89983781 174.61962073 77.17457663 175.92691376 79.44921875 177.234375 C80.55700684 177.87052734 81.66479492 178.50667969 82.80615234 179.16210938 C86.55660893 181.32029904 90.29842715 183.49306243 94.0390625 185.66821289 C100.52206918 189.43698846 107.0174446 193.16373387 113.62109375 196.71875 C117.43576096 198.77328341 121.2165266 200.88872842 125 203 C122.23952781 205.96495162 119.69064293 208.28342189 116 210 C112.20976387 210.59819377 109.98314333 210.42608198 106.44360352 208.89208984 C103.39290832 207.27346132 100.41335756 205.56495453 97.4375 203.8125 C96.33341797 203.17755615 95.22933594 202.5426123 94.09179688 201.88842773 C90.7181388 199.94180769 87.3578526 197.97373404 84 196 C82.11592117 194.90098037 80.23180877 193.8020183 78.34765625 192.703125 C73.85743443 190.0736205 69.38808423 187.41043261 64.92285156 184.73876953 C62.27311113 183.16247055 59.61510052 181.60113292 56.95281982 180.04612732 C55.22037246 179.03286202 53.49060955 178.01516982 51.76171875 176.99584961 C49.55241593 175.69387076 47.33903933 174.39877283 45.12109375 173.11157227 C43.61869141 172.22103149 43.61869141 172.22103149 42.0859375 171.3125 C41.1995459 170.79300781 40.3131543 170.27351562 39.39990234 169.73828125 C36.58655289 167.70053474 34.87090053 165.93961866 33 163 C32.32611969 160.29505515 31.87004404 157.84345503 31.53515625 155.09765625 C31.4209433 154.2724649 31.30673035 153.44727356 31.1890564 152.59707642 C30.93546251 150.74825929 30.68950058 148.89838428 30.44992065 147.04769897 C30.05234546 143.98425602 29.6331238 140.92440847 29.20922852 137.86450195 C27.45549269 125.12883741 25.78621884 112.38185924 24.10735798 99.63615894 C22.99413039 91.1958255 21.86444118 82.75775462 20.72717571 74.32062817 C19.86657631 67.92581253 19.02669703 61.52870084 18.20175934 55.12919235 C17.67219315 51.05644748 17.12440859 46.98629349 16.57210159 42.91657639 C16.31670003 41.00694912 16.06870298 39.09631426 15.82877731 37.18468094 C14.41555768 25.96328701 13.05257498 15.32587033 5.57981873 6.28105164 C4.44115121 5.13062521 3.22656641 4.05620997 2 3 C1.34 2.01 0.68 1.02 0 0 Z " fill="#2F95ED" transform="translate(330,215)" />
<path d="M0 0 C3.90901979 4.84988287 6.00452912 10.43540438 8.4375 16.125 C8.82742126 17.03570755 8.82742126 17.03570755 9.22521973 17.96481323 C35 78.44778961 35 78.44778961 35 94 C26.60515109 93.37859508 18.35811429 92.22882439 10.0625 90.8125 C8.87720703 90.62880859 7.69191406 90.44511719 6.47070312 90.25585938 C-2.53795747 88.70911732 -11.44549937 86.22389695 -18.30053711 79.86645508 C-22.11475921 75.70311911 -24.65457651 72.14690293 -25.5625 66.50390625 C-25.706875 65.20324219 -25.85125 63.90257812 -26 62.5625 C-26.50490401 58.02287195 -27.07625901 54.16008989 -29 50 C-28.43152344 49.5875 -27.86304688 49.175 -27.27734375 48.75 C-15.47860499 39.92556767 -7.54752484 28.84814169 -2.77734375 14.82421875 C-1.43593762 9.95066782 -0.66392524 5.00564688 0 0 Z " fill="#FDDCF6" transform="translate(301,121)" />
<path d="M0 0 C0.33 0 0.66 0 1 0 C1.07476562 0.69222656 1.14953125 1.38445312 1.2265625 2.09765625 C3.15824176 16.47162251 8.78964815 28.86531627 18 40 C23.47992679 45.6735251 23.47992679 45.6735251 30 50 C29.79503906 50.52207031 29.59007812 51.04414063 29.37890625 51.58203125 C27.76632462 55.98769686 26.85986916 59.79962556 26.6875 64.5 C26.31353958 69.64195579 24.88103479 72.88663854 21.80078125 76.99609375 C16.31821299 83.09708619 9.94090273 86.50495341 2.00161743 88.50289917 C-0.02015047 88.91839193 -2.04410608 89.29007133 -4.078125 89.640625 C-4.81198425 89.7719281 -5.54584351 89.9032312 -6.30194092 90.03851318 C-7.83734334 90.31104926 -9.37343091 90.57975158 -10.91015625 90.84472656 C-13.26009096 91.25174781 -15.60650663 91.67588319 -17.953125 92.1015625 C-19.45294454 92.36561044 -20.95293907 92.62866675 -22.453125 92.890625 C-23.15109192 93.0176178 -23.84905884 93.1446106 -24.56817627 93.27545166 C-27.97453027 93.85056672 -30.71649544 94.22318413 -34 93 C-24.86786898 61.10726672 -14.11418657 30.06190118 0 0 Z " fill="#FDDCF6" transform="translate(210,121)" />
<path d="M0 0 C0.99 0.01546875 0.99 0.01546875 2 0.03125 C2.66 0.0209375 3.32 0.010625 4 0 C6 0.53125 6 0.53125 8.10058594 2.19824219 C10 4.53125 10 4.53125 10.45410156 7.28027344 C10.4331543 8.30668945 10.41220703 9.33310547 10.390625 10.390625 C10.37773437 11.50566406 10.36484375 12.62070313 10.3515625 13.76953125 C10.31804687 14.92839844 10.28453125 16.08726563 10.25 17.28125 C10.23195313 18.45558594 10.21390625 19.62992188 10.1953125 20.83984375 C10.1481912 23.7378034 10.08241305 26.63411418 10 29.53125 C12.30299333 30.23605188 12.30299333 30.23605188 15 30.53125 C17.15296077 29.78047422 17.15296077 29.78047422 19.14453125 28.44140625 C19.90443359 27.98701172 20.66433594 27.53261719 21.44726562 27.06445312 C23.01388757 26.09032734 24.57901549 25.11379436 26.14257812 24.13476562 C29.92441942 21.87842656 32.94515447 20.20229679 37.4140625 20.0859375 C41 20.53125 41 20.53125 43.5625 22.59375 C45 25.53125 45 25.53125 45 29.09375 C43.86623536 32.99106594 43.07465594 33.96821681 40 36.53125 C38.06645844 37.58298827 36.09560894 38.5257056 34.10961914 39.47436523 C30.53034683 41.21592642 27.06265019 42.9626637 24 45.53125 C21.89188905 49.52685564 21.34101154 53.07026227 21 57.53125 C20.505 58.52125 20.505 58.52125 20 59.53125 C19.34 59.53125 18.68 59.53125 18 59.53125 C17.7215625 60.3975 17.7215625 60.3975 17.4375 61.28125 C15.2695008 64.67464005 12.58221859 65.70871774 9 67.53125 C4.91300132 68.89358289 1.27393912 69.04218941 -3 68.53125 C-7.31039124 67.02745202 -11.00579861 65.03060807 -14 61.53125 C-14 60.87125 -14 60.21125 -14 59.53125 C-14.66 59.53125 -15.32 59.53125 -16 59.53125 C-18.99882959 51.96898408 -18.99882959 51.96898408 -19.0078125 48.609375 C-19.69638969 45.49647757 -19.69638969 45.49647757 -21.82543945 44.08642578 C-24.32172471 42.59728657 -26.85169809 41.23384083 -29.4375 39.90625 C-31.19143794 38.98648648 -32.94040125 38.05715726 -34.68359375 37.1171875 C-35.85233032 36.51463135 -35.85233032 36.51463135 -37.04467773 35.89990234 C-39 34.53125 -39 34.53125 -40.28149414 32.59228516 C-41.41345165 29.3452633 -40.77801857 26.82286703 -40 23.53125 C-38.9375 21.59375 -38.9375 21.59375 -37 20.53125 C-33.11794435 20.11226161 -30.35667483 19.95618405 -26.74047852 21.48901367 C-24.38540213 22.79358448 -22.09432638 24.16497858 -19.8125 25.59375 C-18.26465846 26.55619812 -16.70885956 27.50599364 -15.14453125 28.44140625 C-14.46753174 28.86558838 -13.79053223 29.28977051 -13.09301758 29.72680664 C-10.93735257 30.74728498 -10.93735257 30.74728498 -8.2409668 30.16186523 C-7.13168823 29.84971069 -7.13168823 29.84971069 -6 29.53125 C-6.02094727 28.79487305 -6.04189453 28.05849609 -6.06347656 27.29980469 C-6.14667144 23.96042558 -6.19867157 20.62126451 -6.25 17.28125 C-6.30027344 15.54294922 -6.30027344 15.54294922 -6.3515625 13.76953125 C-6.36445313 12.65449219 -6.37734375 11.53945312 -6.390625 10.390625 C-6.41157227 9.36420898 -6.43251953 8.33779297 -6.45410156 7.28027344 C-6 4.53125 -6 4.53125 -4.10058594 2.19824219 C-2 0.53125 -2 0.53125 0 0 Z " fill="#FEDCF5" transform="translate(254,-0.53125)" />
<path d="M0 0 C0.33 0 0.66 0 1 0 C1.4712498 9.08464888 1.0777412 15.86723483 -3 24 C-4.32661508 26.68076232 -5.63781225 29.36857971 -6.9375 32.0625 C-7.28498291 32.78260254 -7.63246582 33.50270508 -7.99047852 34.24462891 C-16.83931765 53.08811042 -19.2717433 73.55913707 -16.12866211 94.12792969 C-14.01021417 105.99997967 -10.80601507 115.78357196 -2.4453125 124.6484375 C2.33200571 129.15145993 7.97717562 131.53859257 14 134 C14 134.33 14 134.66 14 135 C2.10799048 135.4735756 -8.8280197 134.00419018 -19.0859375 127.72265625 C-25.3018849 123.42388803 -30.2015615 118.1011121 -33.25390625 111.140625 C-39.11045997 94.45701072 -40.76091203 74.42215173 -36.3125 57.1875 C-30.42493197 37.40444798 -20.24944088 21.70503734 -5.41796875 7.54296875 C-3.14394781 5.15138938 -1.56291354 2.89216892 0 0 Z " fill="#2F95ED" transform="translate(323,303)" />
<path d="M0 0 C4.14781922 0.22203537 8.29237017 0.48271597 12.4375 0.75 C13.60216797 0.811875 14.76683594 0.87375 15.96679688 0.9375 C24.26530684 1.49852603 30.45375288 3.08982271 37.453125 7.5703125 C43.39526645 12.71155662 46.53147523 18.59442568 49 26 C49.66069266 34.93559743 49.68308893 43.10165598 45 51 C41.0086245 57.19274694 36.02491081 60.58435843 29.45898438 63.76953125 C23.4306478 65.91399881 17.5724748 65.63238676 11.25 65.375 C9.32800781 65.33439453 9.32800781 65.33439453 7.3671875 65.29296875 C4.2429597 65.22302335 1.1224296 65.12492281 -2 65 C0.46680432 62.52086166 2.93235938 60.06256757 5.5 57.6875 C10.07851618 52.7655951 13.2425184 47.51439847 15 41 C15.83704948 31.23766707 15.80437047 21.81057076 11 13 C9.45011612 10.8310407 7.81336183 8.96447531 6 7 C6 6.34 6 5.68 6 5 C5.38125 4.731875 4.7625 4.46375 4.125 4.1875 C2 3 2 3 0 0 Z " fill="#2E95ED" transform="translate(439,447)" />
<path d="M0 0 C-4.71741415 32.59944402 -18.59168509 66.84673723 -37 94 C-41.53847198 92.65072455 -45.31932246 90.80840652 -49.375 88.375 C-50.96441406 87.42753906 -50.96441406 87.42753906 -52.5859375 86.4609375 C-53.38257813 85.97882813 -54.17921875 85.49671875 -55 85 C-53.53390385 81.006914 -51.61424668 77.52489847 -49.4375 73.875 C-37.09093513 52.56616457 -28.34619013 29.58918523 -22.875 5.59375 C-22 2 -22 2 -21 1 C-14.03734125 -0.02354874 -7.02339282 -0.13711613 0 0 Z " fill="#FE84DB" transform="translate(450,300)" />
<path d="M0 0 C6.93 0.33 13.86 0.66 21 1 C21.56847656 2.95679688 22.13695313 4.91359375 22.72265625 6.9296875 C30.43187968 33.22334606 39.42347885 58.5912432 54 82 C51.28684051 84.830515 48.43646776 86.7314581 45.0625 88.75 C44.02222656 89.38421875 42.98195312 90.0184375 41.91015625 90.671875 C39 92 39 92 36.95507812 91.76660156 C35 91 35 91 32.80859375 88.0625 C32.00046535 86.71885867 31.21152461 85.36357231 30.4375 84 C30.00985352 83.25886963 29.58220703 82.51773926 29.14160156 81.75415039 C23.25085841 71.24273561 18.59814711 60.12220972 14 49 C13.68015137 48.22736816 13.36030273 47.45473633 13.03076172 46.65869141 C6.94342151 31.73681365 2.1323038 15.99227852 0 0 Z " fill="#FE84DB" transform="translate(64,301)" />
<path d="M0 0 C3.24601316 1.08779484 4.37592046 2.91461286 6.40600586 5.6394043 C10.63906956 11.09313223 15.23541193 15.84782087 20.19116211 20.6472168 C21.22563477 21.69522461 21.22563477 21.69522461 22.28100586 22.7644043 C22.28100586 23.0944043 22.28100586 23.4244043 22.28100586 23.7644043 C0.83697707 26.03108082 -20.61788256 28.17067389 -42.08807373 30.17520142 C-44.50309301 30.40081404 -46.91801098 30.62751393 -49.33282471 30.85531616 C-52.75290539 31.17739777 -56.17337108 31.49501611 -59.59399414 31.8112793 C-60.61540497 31.90796402 -61.6368158 32.00464874 -62.68917847 32.10426331 C-67.7243863 32.56421553 -72.66286313 32.87179427 -77.71899414 32.7644043 C-75.40417575 31.22119204 -73.51374832 30.161232 -70.99902344 29.09130859 C-70.25418701 28.7726181 -69.50935059 28.45392761 -68.74194336 28.12557983 C-67.9338623 27.78338409 -67.12578125 27.44118835 -66.29321289 27.08862305 C-65.44557373 26.72660797 -64.59793457 26.3645929 -63.72460938 25.99160767 C-60.95320133 24.80863658 -58.17999851 23.62995134 -55.40649414 22.4519043 C-51.5829826 20.82569456 -47.76010071 19.19801438 -43.93774414 17.5690918 C-42.506847 16.95965477 -42.506847 16.95965477 -41.04704285 16.33790588 C-35.15515445 13.82257132 -29.28734156 11.25925684 -23.43774414 8.6472168 C-22.05410531 8.03288528 -20.67039998 7.41870349 -19.28662109 6.8046875 C-17.36127671 5.9500705 -15.4383969 5.09144377 -13.52157593 4.21786499 C-11.78402672 3.42620537 -10.03879117 2.65148053 -8.29321289 1.87768555 C-7.32988037 1.44238525 -6.36654785 1.00708496 -5.37402344 0.55859375 C-2.71899414 -0.2355957 -2.71899414 -0.2355957 0 0 Z " fill="#FAA1E7" transform="translate(140.718994140625,415.235595703125)" />
<path d="M0 0 C9.61931651 3.57216279 19.0265917 7.54001102 28.42706299 11.64569092 C32.49438446 13.42204151 36.56517914 15.19037376 40.63671875 16.95703125 C41.84062256 17.47946411 41.84062256 17.47946411 43.06884766 18.01245117 C51.03469914 21.46143988 59.04364125 24.80242333 67.08129883 28.08081055 C67.96454834 28.44343994 68.84779785 28.80606934 69.7578125 29.1796875 C70.5120752 29.48632324 71.26633789 29.79295898 72.04345703 30.10888672 C74 31 74 31 77 33 C58.85451862 32.38569577 40.80539303 30.48154272 22.74151611 28.74468994 C19.31248843 28.41616869 15.88303265 28.0922462 12.45356274 27.76837921 C9.13251117 27.45437069 5.81167248 27.13815835 2.49090004 26.82121277 C0.91336372 26.67078681 -0.66422276 26.52088593 -2.24186134 26.37153625 C-4.43724974 26.16324234 -6.63234979 25.95213551 -8.82739258 25.74023438 C-10.07136307 25.62111694 -11.31533356 25.50199951 -12.59700012 25.37927246 C-15.75807071 25.0269636 -18.86914881 24.55671559 -22 24 C-21.28714844 23.29617188 -20.57429688 22.59234375 -19.83984375 21.8671875 C-17.00042091 19.02676522 -14.27003926 16.09078515 -11.5625 13.125 C-11.08385498 12.60196289 -10.60520996 12.07892578 -10.11206055 11.54003906 C-6.66186042 7.75704289 -3.2950027 3.91838159 0 0 Z " fill="#F8A1E7" transform="translate(372,415)" />
<path d="M0 0 C5.23395264 1.55080078 8.07946638 4.95197141 11.58203125 8.96484375 C14.02044464 12.46460512 14.23772497 15.99222436 14.4375 20.1875 C14.39137756 24.49994841 13.72088249 27.26951323 11.4375 30.9375 C8.43965517 34.91801131 5.4962035 36.92482915 1 39 C0.01 39.495 0.01 39.495 -1 40 C-5.95390974 40.56168865 -10.63652073 40.52173705 -15.25 38.5 C-20.22772182 35.69308993 -23.47825619 31.04348761 -26 26 C-26.43954768 20.9029375 -26.32032168 16.20120629 -25 11.25 C-18.65358737 0.93707948 -11.50932735 -0.73164428 0 0 Z " fill="#FCCF02" transform="translate(262,369)" />
<path d="M0 0 C5.23395264 1.55080078 8.07946638 4.95197141 11.58203125 8.96484375 C13.95699189 12.37353382 14.18893606 15.66588663 14.3125 19.75 C14.24185533 24.11712484 13.56430142 27.36935268 11.41015625 31.17578125 C8.19089144 35.34031495 3.9700794 38.34330687 -1 40 C-6.04765235 40.54690372 -10.64362585 40.51416097 -15.3125 38.375 C-19.93713295 35.73101793 -22.63027718 32.34809626 -25.3125 27.75 C-26.71489496 22.14042017 -26.50826985 16.87424506 -25 11.3125 C-18.73116955 0.92974957 -11.502838 -0.73123176 0 0 Z " fill="#71EBF4" transform="translate(262,165)" />
<path d="M0 0 C5.23395264 1.55080078 8.07946638 4.95197141 11.58203125 8.96484375 C14.02044464 12.46460512 14.23772497 15.99222436 14.4375 20.1875 C14.39137756 24.49994841 13.72088249 27.26951323 11.4375 30.9375 C7.75492321 35.81560528 3.79065153 38.06978282 -2 40 C-6.65718278 40.56033166 -10.85493385 40.39133176 -15.1875 38.5 C-20.21296144 35.70584344 -23.4627208 31.0745584 -26 26 C-26.43954768 20.9029375 -26.32032168 16.20120629 -25 11.25 C-18.65358737 0.93707948 -11.50932735 -0.73164428 0 0 Z " fill="#FD6C82" transform="translate(262,437)" />
<path d="M0 0 C5.23395264 1.55080078 8.07946638 4.95197141 11.58203125 8.96484375 C14.02044464 12.46460512 14.23772497 15.99222436 14.4375 20.1875 C14.39137756 24.49994841 13.72088249 27.26951323 11.4375 30.9375 C7.75492321 35.81560528 3.79065153 38.06978282 -2 40 C-6.65718278 40.56033166 -10.85493385 40.39133176 -15.1875 38.5 C-20.21296144 35.70584344 -23.4627208 31.0745584 -26 26 C-26.43954768 20.9029375 -26.32032168 16.20120629 -25 11.25 C-18.65358737 0.93707948 -11.50932735 -0.73164428 0 0 Z " fill="#FDE667" transform="translate(262,301)" />
<path d="M0 0 C5.23395264 1.55080078 8.07946638 4.95197141 11.58203125 8.96484375 C14.02044464 12.46460512 14.23772497 15.99222436 14.4375 20.1875 C14.39137756 24.49994841 13.72088249 27.26951323 11.4375 30.9375 C7.75492321 35.81560528 3.79065153 38.06978282 -2 40 C-6.65718278 40.56033166 -10.85493385 40.39133176 -15.1875 38.5 C-20.21296144 35.70584344 -23.4627208 31.0745584 -26 26 C-26.43954768 20.9029375 -26.32032168 16.20120629 -25 11.25 C-18.65358737 0.93707948 -11.50932735 -0.73164428 0 0 Z " fill="#A3E96F" transform="translate(262,233)" />
<path d="M0 0 C0.33 0 0.66 0 1 0 C1.17015625 0.58007812 1.3403125 1.16015625 1.515625 1.7578125 C3.8293741 9.2159612 6.94505984 14.43603797 12.92724609 19.48657227 C16.47978225 22.08046763 20.39125187 23.69911641 24.4375 25.375 C25.67790039 25.90673828 25.67790039 25.90673828 26.94335938 26.44921875 C28.95745941 27.31074131 30.97807833 28.15699774 33 29 C33 29.99 33 30.98 33 32 C31.36480831 33.99593922 29.72300181 35.8354182 27.9375 37.6875 C26.92496854 38.76095275 25.91325052 39.83517334 24.90234375 40.91015625 C24.40589355 41.43496582 23.90944336 41.95977539 23.39794922 42.50048828 C20.98994524 45.08343631 18.71445594 47.77836971 16.4375 50.4765625 C15 52 15 52 12 54 C3.81722793 54.85237209 -4.08050203 52.25212722 -11.1875 48.3125 C-12.4655657 47.55371844 -13.73941285 46.7874779 -15 46 C-14.01 45.505 -14.01 45.505 -13 45 C-12.2292218 43.28740121 -12.2292218 43.28740121 -11.62890625 41.17578125 C-10.48138285 37.52693091 -9.28667318 33.9049848 -8.02734375 30.29296875 C-7.33060292 28.25785572 -6.63399026 26.2226988 -5.9375 24.1875 C-5.58623047 23.18396484 -5.23496094 22.18042969 -4.87304688 21.14648438 C-2.499631 14.160835 -0.99514208 7.30881083 0 0 Z " fill="#FDC8F0" transform="translate(338,385)" />
<path d="M0 0 C0.33 0 0.66 0 1 0 C1.09216797 0.70527832 1.18433594 1.41055664 1.27929688 2.13720703 C2.49165569 10.40145296 4.76100058 17.99928281 7.5 25.875 C7.90347656 27.05835938 8.30695313 28.24171875 8.72265625 29.4609375 C9.4703923 31.65232237 10.22185533 33.84244226 10.97851562 36.03076172 C11.69473643 38.11266358 12.36693255 40.20998682 13.00585938 42.31689453 C13.33392578 43.20231934 13.66199219 44.08774414 14 45 C14.99 45.495 14.99 45.495 16 46 C8.21780998 50.25212444 0.68770505 54.26226294 -8.390625 53.90625 C-12.26905078 52.55925182 -14.51466715 49.99240343 -17.3125 47.0625 C-17.8799292 46.48218018 -18.4473584 45.90186035 -19.03198242 45.30395508 C-23.70241967 40.46361135 -27.97233088 35.3905058 -32 30 C-28.69556284 27.2177455 -25.32793729 25.85418054 -21.3125 24.3125 C-14.02247522 21.32857885 -8.01438937 17.55526438 -3.6015625 10.88671875 C-1.73617066 7.3742256 -0.49666537 3.97332298 0 0 Z " fill="#FDC8F0" transform="translate(173,385)" />
<path d="M0 0 C4.90713015 2.31973425 7.8111048 5.71776931 11 10 C12.37875742 14.13627225 12.70728129 17.68150364 12 22 C9.91602445 26.66661667 7.01837933 30.68311822 2.75 33.5625 C-0.92314143 35.31393168 -4.47129841 35.63157637 -8.5078125 35.44140625 C-12.79590081 34.68191726 -15.80433524 32.91932124 -19 30 C-21.80412974 26.86155796 -23.6693489 23.87580911 -24.40625 19.6953125 C-24.55316902 16.05906678 -24.09150343 13.27451028 -22.9375 9.8125 C-16.84183207 0.96394977 -10.46180274 -0.97350982 0 0 Z " fill="#FBC8F0" transform="translate(262,99)" />
<path d="M0 0 C3.125 0.8125 3.125 0.8125 5.2890625 2.5625 C7.125 4.8125 7.125 4.8125 7.65625 7.01953125 C7.53652787 17.0013637 5.59657741 26.6902372 3.75439453 36.46972656 C3.07471977 40.07954304 2.4094238 43.69183324 1.74609375 47.3046875 C0.54986301 53.80932429 -0.65848036 60.31162929 -1.875 66.8125 C-4.54667393 63.66573762 -6.51820308 60.8539172 -8 57 C-8.31195313 56.20980469 -8.62390625 55.41960937 -8.9453125 54.60546875 C-11.23766859 47.71876873 -12.23601874 41.66465228 -12.1875 34.4375 C-12.18331055 33.57697021 -12.17912109 32.71644043 -12.17480469 31.82983398 C-12.07071451 25.77543974 -11.5595625 19.85694417 -10.625 13.875 C-10.51583252 13.13652832 -10.40666504 12.39805664 -10.29418945 11.63720703 C-9.47867227 7.03287724 -8.14696301 4.15421416 -4.875 0.8125 C-2.875 -0.1875 -2.875 -0.1875 0 0 Z " fill="#2E95ED" transform="translate(182.875,273.1875)" />
<path d="M0 0 C1.58203125 1.09765625 1.58203125 1.09765625 3 3 C3.9140625 6.328125 3.9140625 6.328125 4.625 10.25 C4.86476563 11.53390625 5.10453125 12.8178125 5.3515625 14.140625 C7.97369649 29.74706104 8.39580198 43.28784361 2 58 C0.7820585 60.47479486 -0.4813022 62.69382927 -2 65 C-3.98855641 62.01716538 -4.42631046 60.57046778 -5 57.1328125 C-5.24568726 55.69095581 -5.24568726 55.69095581 -5.49633789 54.2199707 C-5.66254639 53.19863037 -5.82875488 52.17729004 -6 51.125 C-6.17587646 50.07723389 -6.35175293 49.02946777 -6.53295898 47.94995117 C-7.56401971 41.77268581 -8.58821747 35.59295413 -9.484375 29.39453125 C-9.91352041 26.56932398 -10.39163293 23.7625195 -10.890625 20.94921875 C-11.19805303 19.13283557 -11.50534443 17.31642927 -11.8125 15.5 C-11.97306885 14.63802002 -12.1336377 13.77604004 -12.29907227 12.88793945 C-13.31332706 6.71804118 -13.31332706 6.71804118 -11.6875 2.9921875 C-8.10364154 -1.23875652 -5.2961683 -1.46489761 0 0 Z " fill="#2E95ED" transform="translate(334,274)" />
<path d="M0 0 C3.05804998 1.39293376 4.36015671 3.20592684 6.36328125 5.89453125 C10.59634495 11.34825918 15.19268732 16.10294783 20.1484375 20.90234375 C20.83808594 21.60101563 21.52773437 22.2996875 22.23828125 23.01953125 C22.23828125 23.34953125 22.23828125 23.67953125 22.23828125 24.01953125 C17.26266163 24.65933538 12.28601703 25.2546264 7.29785156 25.78808594 C5.65705487 25.97247134 4.02070698 26.19632971 2.38671875 26.43359375 C0.17578125 26.64453125 0.17578125 26.64453125 -3.76171875 26.01953125 C-6.94204664 23.75302158 -9.30581981 21.03720464 -11.76171875 18.01953125 C-12.43976563 17.20613281 -13.1178125 16.39273437 -13.81640625 15.5546875 C-15.54390129 13.41439746 -17.2403193 11.31113918 -18.76171875 9.01953125 C-18.76171875 8.35953125 -18.76171875 7.69953125 -18.76171875 7.01953125 C-16.20596837 5.81523524 -13.64380411 4.63112378 -11.07421875 3.45703125 C-9.99237305 2.94366211 -9.99237305 2.94366211 -8.88867188 2.41992188 C-5.78458229 1.01670329 -3.43426981 0.02428762 0 0 Z " fill="#FD84DB" transform="translate(140.76171875,414.98046875)" />
<path d="M0 0 C2.04313484 0.7669334 4.08444372 1.53873202 6.125 2.3125 C7.26195312 2.74175781 8.39890625 3.17101562 9.5703125 3.61328125 C12.81134308 4.92372072 15.89754526 6.39219291 19 8 C15.77712502 14.78167876 10.79981214 21.20969937 5 26 C1.04550211 27.45479339 -1.93348986 26.82255578 -6 26 C-7.41388184 25.82119051 -8.82945011 25.65542032 -10.24609375 25.5 C-14.17484177 25.06519785 -18.08578123 24.55005333 -22 24 C-21.28714844 23.29617188 -20.57429688 22.59234375 -19.83984375 21.8671875 C-17.00042091 19.02676522 -14.27003926 16.09078515 -11.5625 13.125 C-11.08385498 12.60196289 -10.60520996 12.07892578 -10.11206055 11.54003906 C-6.66186042 7.75704289 -3.2950027 3.91838159 0 0 Z " fill="#FD84DB" transform="translate(372,415)" />
<path d="M0 0 C4.42976723 0.67066629 8.0236665 3.06771008 11.81079102 5.34985352 C12.63321289 5.82680664 13.45563477 6.30375977 14.30297852 6.79516602 C16.31510235 7.96500546 18.31660995 9.14977016 20.31079102 10.34985352 C19.7259446 13.20776283 19.28050603 14.38697704 17.37329102 16.72485352 C15.16485534 19.53558983 14.26475519 21.93148189 13.31079102 25.34985352 C8.240704 23.88551161 4.04737787 21.67209434 -0.43920898 18.97485352 C-1.44661133 18.39477539 -1.44661133 18.39477539 -2.47436523 17.80297852 C-5.13848566 16.21198075 -7.34358851 14.8374088 -9.15405273 12.28344727 C-10.03614221 9.09633567 -9.43912031 6.5225553 -8.68920898 3.34985352 C-6.71557083 -0.24913371 -3.87091176 -0.05202016 0 0 Z " fill="#FFC9F0" transform="translate(222.689208984375,19.650146484375)" />
<path d="M0 0 C2.5625 2.0625 2.5625 2.0625 4 5 C4 8.5625 4 8.5625 3 12 C-0.29159084 16.06073142 -4.6171971 18.27433723 -9.125 20.75 C-9.85332031 21.16121094 -10.58164062 21.57242188 -11.33203125 21.99609375 C-16.7310787 25 -16.7310787 25 -19 25 C-19.25394531 24.39671875 -19.50789063 23.7934375 -19.76953125 23.171875 C-21.53094462 19.08170164 -23.20215687 15.49730392 -26 12 C-26 11.34 -26 10.68 -26 10 C-23.18290698 8.30469434 -20.34415614 6.64943225 -17.5 5 C-16.70851563 4.52304687 -15.91703125 4.04609375 -15.1015625 3.5546875 C-9.76604072 0.49332254 -6.16258072 -0.76272905 0 0 Z " fill="#FFC9F0" transform="translate(295,20)" />
<path d="M0 0 C0.99 0.01546875 0.99 0.01546875 2 0.03125 C2.66 0.0209375 3.32 0.010625 4 0 C6 0.53125 6 0.53125 8.10058594 2.19824219 C10 4.53125 10 4.53125 10.45410156 7.28027344 C10.42268066 8.81989746 10.42268066 8.81989746 10.390625 10.390625 C10.37128906 12.06318359 10.37128906 12.06318359 10.3515625 13.76953125 C10.31804687 14.92839844 10.28453125 16.08726563 10.25 17.28125 C10.23195313 18.45558594 10.21390625 19.62992188 10.1953125 20.83984375 C10.1481912 23.7378034 10.08241305 26.63411418 10 29.53125 C9.26394531 29.44746094 8.52789062 29.36367188 7.76953125 29.27734375 C6.79371094 29.17550781 5.81789063 29.07367187 4.8125 28.96875 C3.84957031 28.86433594 2.88664062 28.75992187 1.89453125 28.65234375 C-0.94233377 28.53366249 -3.25423671 28.85359361 -6 29.53125 C-6.11614929 25.4481558 -6.18723457 21.36548623 -6.25 17.28125 C-6.28351563 16.12238281 -6.31703125 14.96351562 -6.3515625 13.76953125 C-6.36445313 12.65449219 -6.37734375 11.53945312 -6.390625 10.390625 C-6.41157227 9.36420898 -6.43251953 8.33779297 -6.45410156 7.28027344 C-6 4.53125 -6 4.53125 -4.10058594 2.19824219 C-2 0.53125 -2 0.53125 0 0 Z " fill="#FFC9F0" transform="translate(254,-0.53125)" />
<path d="M0 0 C0.33 0 0.66 0 1 0 C1.33 2.97 1.66 5.94 2 9 C1.01 9.33 0.02 9.66 -1 10 C-0.67 6.7 -0.34 3.4 0 0 Z " fill="#DAD0F4" transform="translate(325,307)" />
</svg>
