<?xml version="1.0" standalone="no"?>
<!DOCTYPE svg PUBLIC "-//W3C//DTD SVG 20010904//EN"
 "http://www.w3.org/TR/2001/REC-SVG-20010904/DTD/svg10.dtd">
<svg version="1.0" xmlns="http://www.w3.org/2000/svg"
 width="512.000000pt" height="512.000000pt" viewBox="0 0 512.000000 512.000000"
 preserveAspectRatio="xMidYMid meet">

<g transform="translate(0.000000,512.000000) scale(0.100000,-0.100000)"
fill="#000000" stroke="none">
<path d="M1620 4201 c0 -5 -3 -16 -6 -25 -4 -11 0 -16 14 -16 10 0 46 -13 78
-30 69 -35 84 -37 84 -11 0 14 -18 28 -62 50 -76 36 -108 46 -108 32z"/>
<path d="M3410 4179 c-58 -26 -110 -66 -110 -85 0 -22 23 -17 85 21 32 19 74
38 92 41 25 5 33 11 29 21 -3 8 -6 17 -6 19 0 11 -49 2 -90 -17z"/>
<path d="M1540 3950 c-19 -12 -4 -40 20 -40 48 0 130 -69 130 -110 0 -36 19
-70 35 -64 27 11 12 91 -27 145 -34 46 -129 87 -158 69z"/>
<path d="M3534 3950 c-78 -17 -139 -83 -150 -161 -5 -37 -3 -47 10 -52 18 -7
36 26 36 65 0 27 69 95 106 103 49 11 54 14 54 29 0 19 -18 24 -56 16z"/>
<path d="M3707 3634 c-4 -4 -7 -45 -7 -91 0 -113 -10 -123 -125 -123 -78 0
-85 -2 -85 -20 0 -19 7 -20 96 -20 93 0 96 1 125 30 29 29 30 30 27 126 -3 90
-12 117 -31 98z"/>
<path d="M4160 3525 c-10 -12 -7 -18 20 -32 95 -53 125 -105 123 -210 -2 -58
1 -73 13 -73 39 0 45 120 10 195 -25 53 -50 80 -106 114 -42 25 -44 25 -60 6z"/>
<path d="M914 3501 c-47 -29 -100 -97 -114 -147 -23 -81 7 -201 41 -167 9 9 9
23 0 58 -22 87 25 183 114 232 11 7 16 17 12 27 -8 20 -15 20 -53 -3z"/>
<path d="M1292 3473 c3 -16 20 -18 171 -21 162 -2 167 -2 167 18 0 19 -6 20
-171 20 -157 0 -170 -1 -167 -17z"/>
<path d="M1845 3396 c-60 -28 -97 -66 -124 -126 -20 -44 -21 -63 -21 -710 l0
-665 24 -50 c28 -61 66 -97 126 -123 43 -19 72 -20 710 -20 638 0 667 1 710
20 60 26 98 62 126 123 l24 50 0 665 0 665 -24 50 c-28 60 -66 97 -126 124
-44 20 -63 21 -710 21 l-665 0 -50 -24z m748 -818 c75 -222 138 -410 139 -418
2 -9 -5 -15 -17 -15 -16 0 -28 25 -70 147 l-50 148 -156 0 -157 0 -52 -150
c-43 -121 -56 -150 -71 -150 -11 0 -19 6 -19 13 0 11 209 626 261 770 39 104
41 100 192 -345z m385 -16 c2 -372 1 -413 -14 -419 -9 -3 -20 0 -25 8 -10 16
-13 788 -3 814 4 9 14 15 23 13 14 -3 16 -44 19 -416z"/>
<path d="M2371 2692 c-35 -103 -66 -193 -69 -199 -3 -10 29 -13 138 -13 110 0
141 3 137 13 -2 6 -33 96 -68 199 -35 103 -66 188 -69 188 -3 0 -34 -84 -69
-188z"/>
<path d="M628 3073 c-24 -6 -23 -12 11 -64 79 -122 213 -204 344 -211 46 -3
52 -1 52 17 0 17 -9 21 -51 26 -107 13 -187 53 -257 128 -25 26 -52 62 -61 79
-9 18 -18 31 -19 31 -1 -1 -10 -3 -19 -6z"/>
<path d="M4446 3036 c-56 -96 -186 -179 -299 -192 -37 -4 -61 -12 -64 -21 -9
-24 14 -30 80 -21 121 16 250 101 319 207 33 53 34 57 8 64 -15 4 -25 -5 -44
-37z"/>
<path d="M645 2032 c-3 -3 -5 -13 -5 -23 0 -13 15 -20 68 -29 79 -14 106 -11
110 13 3 12 -3 17 -20 17 -13 0 -51 6 -86 14 -34 7 -64 10 -67 8z"/>
<path d="M4410 2024 c-30 -7 -67 -13 -82 -13 -21 -1 -28 -6 -28 -21 0 -17 7
-20 40 -20 47 0 138 18 145 29 2 5 -1 15 -8 23 -10 12 -21 12 -67 2z"/>
<path d="M1437 1774 c-4 -4 -7 -49 -7 -100 0 -84 2 -96 24 -121 22 -25 31 -28
105 -31 92 -5 131 2 131 22 0 21 -23 26 -115 26 -56 0 -87 4 -92 13 -4 6 -10
52 -13 101 -5 82 -14 108 -33 90z"/>
<path d="M3600 1740 c0 -20 4 -20 143 -18 118 3 142 5 142 18 0 13 -24 15
-142 18 -139 2 -143 2 -143 -18z"/>
<path d="M4305 1713 c-3 -21 -16 -52 -28 -70 -24 -35 -83 -73 -115 -73 -25 0
-43 -22 -33 -39 12 -18 71 -5 124 29 71 45 131 190 78 190 -14 0 -21 -10 -26
-37z"/>
<path d="M892 1608 c4 -28 67 -65 125 -74 69 -10 173 35 173 77 0 25 -15 24
-53 -3 -25 -18 -46 -23 -97 -23 -51 0 -72 5 -97 23 -39 28 -55 28 -51 0z"/>
<path d="M3733 1523 c-25 -9 -13 -31 42 -81 49 -45 146 -102 174 -102 6 0 11
8 11 19 0 13 -17 27 -55 46 -30 14 -79 48 -107 74 -29 26 -59 46 -65 44z"/>
<path d="M1218 1407 c-39 -20 -58 -36 -58 -49 0 -24 11 -23 73 8 67 34 77 42
70 60 -7 19 -19 17 -85 -19z"/>
<path d="M1553 1074 c-3 -9 0 -47 6 -85 12 -64 15 -69 38 -69 20 0 24 4 19 17
-4 9 -9 38 -12 63 -9 75 -14 90 -30 90 -8 0 -17 -7 -21 -16z"/>
<path d="M3526 1058 c-14 -90 -18 -111 -23 -124 -4 -10 2 -14 20 -14 22 0 27
6 33 38 14 71 11 126 -8 130 -12 2 -18 -5 -22 -30z"/>
</g>
</svg>
