
<svg version="1.1" xmlns="http://www.w3.org/2000/svg" width="512" height="512" viewBox="0 0 512 512" preserveAspectRatio="xMidYMid meet">
<path d="M0 0 C4.56782194 1.70595793 8.21302881 4.15141349 11.375 7.875 C14.7315169 13.01486554 16.3918207 17.70175933 17.625 23.6875 C17.87540039 24.87617676 17.87540039 24.87617676 18.13085938 26.08886719 C20.42304948 37.50771628 20.42304948 37.50771628 19.375 42.875 C17.63571467 46.41798863 16.07642076 48.32124677 13 50.75 C9.94328219 52.06002192 7.66799001 52.10474349 4.375 51.875 C4.375 54.515 4.375 57.155 4.375 59.875 C4.96055664 60.08688965 5.54611328 60.2987793 6.14941406 60.51708984 C13.22439356 63.19759462 19.60635629 66.6825459 26.125 70.5 C28.11687959 71.66385243 30.11159067 72.82287513 32.109375 73.9765625 C32.97788086 74.48525879 33.84638672 74.99395508 34.74121094 75.51806641 C37.55402967 76.96723646 40.35367651 77.94871856 43.375 78.875 C46.92107018 75.11088667 50.43720826 71.32330838 53.90869141 67.49023438 C55.11019221 66.16670302 56.32477659 64.85505973 57.54296875 63.546875 C59.13228681 61.68952468 60.3732279 60.10475081 61.375 57.875 C61.56056461 54.75414064 60.97615507 51.92741671 60.375 48.875 C60.034629 45.80665558 59.85542347 42.92751211 60.375 39.875 C62.5 36.8125 62.5 36.8125 65.375 34.875 C68.375 34.25 68.375 34.25 71.375 34.875 C74.125 37.375 74.125 37.375 76.375 39.875 C78.4495356 40.0240712 78.4495356 40.0240712 80.375 38.875 C83.62568855 38.28396572 85.23941378 38.077218 88.375 38.875 C92.37908409 41.51493406 95.88133943 44.59833698 99.375 47.875 C100.1278125 48.55820313 100.880625 49.24140625 101.65625 49.9453125 C103.375 51.875 103.375 51.875 104.125 55.5 C103.88331999 59.27020812 102.60381531 61.40976842 100.3125 64.375 C98.69326494 66.24290331 97.05738579 68.06587448 95.375 69.875 C94.80136719 70.49536133 94.22773438 71.11572266 93.63671875 71.75488281 C90.46619871 75.1732023 87.27314801 78.56840702 84.05859375 81.9453125 C80.96804846 85.2102255 77.99370053 88.56072717 75.04711914 91.95556641 C70.61443947 97.04386069 66.02478052 101.98517666 61.375 106.875 C60.72273438 107.56722656 60.07046875 108.25945312 59.3984375 108.97265625 C55.70453096 112.53526279 52.19749931 113.82635607 47.1953125 114.84375 C39.11971254 114.93323033 32.81432934 111.84745045 26 107.8125 C24.43086568 106.90291238 22.8606001 105.99527277 21.2890625 105.08984375 C20.6079541 104.68886475 19.9268457 104.28788574 19.22509766 103.87475586 C17.24382746 102.73527299 17.24382746 102.73527299 14.375 101.875 C14.11847656 103.12667969 13.86195313 104.37835938 13.59765625 105.66796875 C12.34819389 111.28999893 10.60138679 116.7175637 8.8125 122.1875 C8.18512179 124.12074486 7.55877773 126.0543257 6.93359375 127.98828125 C6.65829834 128.83173096 6.38300293 129.67518066 6.09936523 130.54418945 C5.4472503 132.64251815 4.88275176 134.73776229 4.375 136.875 C5.04966309 137.26768066 5.72432617 137.66036133 6.41943359 138.06494141 C9.53001957 139.87594638 12.64001253 141.68796744 15.75 143.5 C16.81089844 144.11746094 17.87179688 144.73492187 18.96484375 145.37109375 C21.08251817 146.60532117 23.19873863 147.84204674 25.31347656 149.08129883 C27.29646624 150.24310306 29.28261113 151.39954539 31.27246094 152.54956055 C32.15450195 153.06558838 33.03654297 153.58161621 33.9453125 154.11328125 C34.71891113 154.56227783 35.49250977 155.01127441 36.28955078 155.47387695 C40.4512337 158.26993154 43.21444937 161.92316485 45.75 166.1875 C47.58901902 174.09528178 46.01867025 181.65181875 43.93359375 189.3359375 C43.68706558 190.28892731 43.44053741 191.24191711 43.1865387 192.2237854 C42.40658447 195.23563786 41.61117982 198.24306342 40.8125 201.25 C40.01121538 204.27857202 39.21364711 207.30788125 38.42774963 210.34048462 C37.94066142 212.21934333 37.44468887 214.09592664 36.93882751 215.96981812 C36.71852371 216.81815216 36.49821991 217.66648621 36.27124023 218.54052734 C36.0736058 219.28313812 35.87597137 220.0257489 35.67234802 220.79086304 C35.33021718 223.18888649 35.49110446 224.62185141 36.375 226.875 C38.35760426 228.56232277 40.3582342 230.22866057 42.375 231.875 C44.24048697 234.50364074 44.37319212 235.73018848 44.4140625 239.00390625 C44.39472656 240.42509766 44.39472656 240.42509766 44.375 241.875 C45.56258911 241.85143433 45.56258911 241.85143433 46.77416992 241.82739258 C50.37020695 241.76493301 53.9661297 241.72597365 57.5625 241.6875 C58.80837891 241.66236328 60.05425781 241.63722656 61.33789062 241.61132812 C62.53994141 241.60166016 63.74199219 241.59199219 64.98046875 241.58203125 C66.08543701 241.5663208 67.19040527 241.55061035 68.32885742 241.53442383 C71.84844687 241.92793407 73.59600665 242.69563578 76.375 244.875 C78.81560433 247.86725691 79.35555984 249.69044077 79.76318359 253.56030273 C79.78284642 254.97626735 79.7853651 256.39254285 79.7734375 257.80859375 C79.77630768 258.56415054 79.77917786 259.31970734 79.78213501 260.09815979 C79.78416988 261.69085442 79.77868045 263.28357436 79.76611328 264.8762207 C79.75007263 267.30151863 79.76596879 269.72514467 79.78515625 272.15039062 C79.78317328 273.70312865 79.77932848 275.25586564 79.7734375 276.80859375 C79.77951019 277.52752304 79.78558289 278.24645233 79.7918396 278.98716736 C79.72705092 283.67434209 78.88811317 286.9134332 76.375 290.875 C75.385 291.535 74.395 292.195 73.375 292.875 C74.5815625 294.0196875 74.5815625 294.0196875 75.8125 295.1875 C78.375 297.875 78.375 297.875 79.375 300.875 C79.4956029 303.46339405 79.56307753 306.02406481 79.578125 308.61328125 C79.58382507 309.37166794 79.58952515 310.13005463 79.59539795 310.91142273 C79.60483856 312.51604827 79.61137821 314.12069312 79.61523438 315.7253418 C79.62492327 318.16815455 79.6559474 320.61011961 79.6875 323.05273438 C79.69403227 324.61457836 79.69928186 326.17642834 79.703125 327.73828125 C79.7154718 328.46348465 79.7278186 329.18868805 79.74053955 329.93586731 C79.72008877 334.64184608 78.95568569 337.92119904 76.375 341.875 C75.385 342.205 74.395 342.535 73.375 342.875 C73.375 343.535 73.375 344.195 73.375 344.875 C73.99375 345.101875 74.6125 345.32875 75.25 345.5625 C77.375 346.875 77.375 346.875 78.49560547 348.94799805 C79.61344317 352.66864109 79.62419548 356.17453493 79.5703125 360.01953125 C79.56829834 360.70253296 79.56628418 361.38553467 79.56420898 362.0892334 C79.55380493 364.622058 79.52588258 367.15478628 79.5 369.6875 C79.45875 375.359375 79.4175 381.03125 79.375 386.875 C94.555 386.875 109.735 386.875 125.375 386.875 C125.21697357 374.92309587 125.21697357 374.92309587 125.01464844 362.97192383 C125.00295949 361.4669712 124.99276814 359.96200587 124.984375 358.45703125 C124.96391113 357.6837146 124.94344727 356.91039795 124.92236328 356.11364746 C124.91990571 352.29766032 125.23036451 350.10621228 127.27441406 346.83862305 C127.96760742 346.19062744 128.66080078 345.54263184 129.375 344.875 C130.035 344.875 130.695 344.875 131.375 344.875 C131.375 344.215 131.375 343.555 131.375 342.875 C130.75625 342.606875 130.1375 342.33875 129.5 342.0625 C127.375 340.875 127.375 340.875 125.375 337.875 C125.14248044 334.9719331 125.02293676 332.16727569 125.00390625 329.26171875 C124.99487778 328.41454788 124.9858493 327.56737701 124.97654724 326.6945343 C124.96204109 324.90161676 124.95315709 323.10864624 124.94946289 321.31567383 C124.93758725 318.5825789 124.88842617 315.85175758 124.83789062 313.11914062 C124.82842358 311.37501099 124.82118989 309.63086752 124.81640625 307.88671875 C124.78710777 306.66767097 124.78710777 306.66767097 124.75721741 305.42399597 C124.78272124 302.19003766 124.81934691 299.78881954 126.52584839 296.98233032 C127.90991211 295.31176758 127.90991211 295.31176758 130.375 292.875 C129.15804443 291.91678345 129.15804443 291.91678345 127.91650391 290.93920898 C125.375 287.875 125.375 287.875 124.89373779 285.91653442 C124.71417101 283.54793946 124.68198381 281.22296786 124.7109375 278.84765625 C124.70615387 277.98111923 124.70137024 277.11458221 124.69644165 276.2217865 C124.69304743 274.39368876 124.70221652 272.56552993 124.72314453 270.73754883 C124.74988686 267.94929604 124.72339994 265.16508016 124.69140625 262.37695312 C124.69471107 260.59634533 124.70111881 258.81574004 124.7109375 257.03515625 C124.69575577 255.79270897 124.69575577 255.79270897 124.68026733 254.52516174 C124.74584405 251.26214411 124.81008666 248.8030634 126.53253174 245.97335815 C127.91650391 244.30249023 127.91650391 244.30249023 130.375 241.875 C129.56369629 241.23167725 128.75239258 240.58835449 127.91650391 239.92553711 C125.375 236.875 125.375 236.875 124.89373779 234.95535278 C124.71434619 232.64642092 124.68194543 230.38220881 124.7109375 228.06640625 C124.70376205 226.79989479 124.70376205 226.79989479 124.69644165 225.50779724 C124.69304792 223.72677746 124.7022136 221.94569494 124.72314453 220.16479492 C124.74988742 217.44893347 124.72339947 214.73721674 124.69140625 212.02148438 C124.6947111 210.28644927 124.70111889 208.55141672 124.7109375 206.81640625 C124.70081635 206.00998184 124.69069519 205.20355743 124.68026733 204.37269592 C124.74656131 201.1582006 124.82705109 198.76883714 126.53253174 195.98678589 C127.91650391 194.31616211 127.91650391 194.31616211 130.375 191.875 C129.56297119 191.0694165 128.75094238 190.26383301 127.91430664 189.43383789 C126.3598471 187.55745636 125.46120756 186.24133084 124.90060425 183.85910034 C124.73264675 181.53762354 124.70783154 179.26087491 124.74609375 176.93359375 C124.74368179 176.08829605 124.74126984 175.24299835 124.73878479 174.37208557 C124.73976044 172.59281705 124.75308664 170.81351712 124.77807617 169.03442383 C124.81244537 166.31681984 124.79870722 163.60246032 124.77929688 160.88476562 C124.78619446 159.15102788 124.79586607 157.41729849 124.80859375 155.68359375 C124.80363388 154.87514511 124.79867401 154.06669647 124.79356384 153.23374939 C124.87614509 149.26504431 125.09448877 147.31374466 127.28540039 143.88696289 C129.375 141.875 129.375 141.875 131.375 140.875 C132.82537107 140.78550583 134.27978629 140.7574156 135.73291016 140.76147461 C137.08408432 140.76158791 137.08408432 140.76158791 138.46255493 140.76170349 C139.43655243 140.76686478 140.41054993 140.77202606 141.4140625 140.77734375 C142.41005463 140.7787587 143.40604675 140.78017365 144.43222046 140.78163147 C147.62151053 140.78724064 150.81073106 140.7997947 154 140.8125 C156.15885315 140.81751382 158.31770741 140.82207693 160.4765625 140.82617188 C165.7760655 140.83721305 171.07552778 140.85396012 176.375 140.875 C176.37223462 139.91420595 176.37223462 139.91420595 176.36941338 138.93400192 C176.32525432 123.35211643 176.29215317 107.77025269 176.27137566 92.18832016 C176.26106087 84.65303043 176.24699668 77.11778246 176.22412109 69.58251953 C176.2041934 63.01517053 176.19128503 56.44785177 176.18682301 49.88047338 C176.18421457 46.4027477 176.17807944 42.92510854 176.16353989 39.44741058 C176.14744462 35.56616081 176.14701992 31.68499586 176.14794922 27.80371094 C176.14075867 26.64924973 176.13356812 25.49478851 176.12615967 24.30534363 C176.128909 23.24807571 176.13165833 22.1908078 176.13449097 21.10150146 C176.13172559 19.72434275 176.13172559 19.72434275 176.12890434 18.31936264 C176.39254478 15.70073522 176.9929812 14.0997606 178.375 11.875 C180.0625 10.5625 180.0625 10.5625 182.375 9.875 C185.76032098 10.05317479 188.3543401 10.22858206 191.25 12.0625 C192.79476384 14.55128619 192.94765818 17.00403994 193.375 19.875 C194.27765091 20.16679138 195.18030182 20.45858276 196.11030579 20.75921631 C204.65763684 23.5225202 213.20428029 26.28794159 221.7502718 29.05538559 C226.14282785 30.47775109 230.53561465 31.89939485 234.92895508 33.31933594 C239.17649745 34.69218498 243.42339923 36.06699937 247.66988182 37.44312286 C249.28218567 37.96523924 250.89471102 38.48667215 252.50747108 39.00737762 C277.61534636 47.11534636 277.61534636 47.11534636 279.375 48.875 C279.41592937 51.20797433 279.41741723 53.54205225 279.375 55.875 C275.48612216 58.42530946 271.54391739 59.98587412 267.14135742 61.38696289 C266.0768914 61.73392967 266.0768914 61.73392967 264.99092102 62.08790588 C262.65602441 62.84723211 260.31835327 63.59758496 257.98046875 64.34765625 C256.34753008 64.87619507 254.71474529 65.4052095 253.08210754 65.93467712 C249.66298027 67.04208051 246.2425523 68.14533413 242.82104492 69.24536133 C238.4514389 70.65031633 234.08438814 72.06301549 229.71819592 73.47853947 C226.34645494 74.57117683 222.97378581 75.66092416 219.60079384 76.74969292 C217.99117373 77.26937581 216.38174341 77.78964691 214.77251244 78.31053352 C212.51481799 79.04055983 210.25599983 79.76699781 207.99682617 80.49243164 C207.34148895 80.70494568 206.68615173 80.91745972 206.01095581 81.13641357 C201.48426012 82.5842299 197.00935594 83.71641101 192.375 84.875 C192.375 103.355 192.375 121.835 192.375 140.875 C207.28890828 140.67734576 207.28890828 140.67734576 222.2019043 140.42456055 C224.07599464 140.40995314 225.95010086 140.39721307 227.82421875 140.38671875 C229.27568298 140.348349 229.27568298 140.348349 230.75646973 140.3092041 C233.39158814 140.30749808 235.78974127 140.36562307 238.375 140.875 C241.21312147 143.07949435 242.78421032 144.69342063 244.375 147.875 C244.51050876 150.57620365 244.58769102 153.25036415 244.61328125 155.953125 C244.621353 156.75731873 244.62942474 157.56151245 244.63774109 158.39007568 C244.65158298 160.0948267 244.66230467 161.79960545 244.67016602 163.50439453 C244.6873421 166.10112744 244.73122084 168.69657476 244.77539062 171.29296875 C244.78552105 172.95051148 244.79403606 174.60806503 244.80078125 176.265625 C244.82704338 177.42375702 244.82704338 177.42375702 244.85383606 178.60528564 C244.83827737 182.50808056 244.53515203 185.11489015 242.34838867 188.41308594 C241.69717041 189.22551758 241.04595215 190.03794922 240.375 190.875 C239.715 190.875 239.055 190.875 238.375 190.875 C238.375 191.535 238.375 192.195 238.375 192.875 C238.99375 193.1225 239.6125 193.37 240.25 193.625 C242.375 194.875 242.375 194.875 243.48461914 196.43823242 C244.76946362 199.95455617 244.72022548 203.41479848 244.74609375 207.11328125 C244.75512222 207.91227341 244.7641507 208.71126556 244.77345276 209.5344696 C244.78793844 211.22305567 244.79683782 212.91169765 244.80053711 214.6003418 C244.81241345 217.16878203 244.86159349 219.73480232 244.91210938 222.30273438 C244.92157699 223.94790501 244.92881041 225.59309033 244.93359375 227.23828125 C244.96289223 228.37926018 244.96289223 228.37926018 244.99278259 229.54328918 C244.95703421 233.82133714 244.34684264 236.38860189 241.84008789 239.91479492 C240.61986938 241.38009644 240.61986938 241.38009644 239.375 242.875 C240.18775391 243.68960693 241.00050781 244.50421387 241.83789062 245.34350586 C243.36032623 247.1806538 244.28073691 248.4842081 244.8425293 250.81326294 C245.00045887 253.01589108 245.01621124 255.17109868 244.96875 257.37890625 C244.96879028 258.17981186 244.96883057 258.98071747 244.96887207 259.80589294 C244.96353365 261.4910369 244.94602276 263.17618165 244.91699219 264.86108398 C244.87506427 267.43355695 244.87593413 270.00341401 244.8828125 272.57617188 C244.87232096 274.2187681 244.85938304 275.86135091 244.84375 277.50390625 C244.84354858 278.26860733 244.84334717 279.03330841 244.84313965 279.82118225 C244.76845553 283.20538898 244.48238916 285.65814932 242.97070312 288.71069336 C242.44412109 289.42491455 241.91753906 290.13913574 241.375 290.875 C240.715 291.865 240.055 292.855 239.375 293.875 C240.3340625 294.803125 240.3340625 294.803125 241.3125 295.75 C243.375 297.875 243.375 297.875 244.375 299.875 C244.49834212 302.58796605 244.5634001 305.27424215 244.578125 307.98828125 C244.58382507 308.79484665 244.58952515 309.60141205 244.59539795 310.43241882 C244.60485195 312.14137458 244.61138352 313.8503486 244.61523438 315.55932617 C244.6249232 318.16683041 244.655935 320.77354078 244.6875 323.38085938 C244.69403185 325.04166199 244.69928161 326.70247024 244.703125 328.36328125 C244.7154718 329.14053055 244.7278186 329.91777985 244.74053955 330.71858215 C244.72649798 334.1525246 244.45591359 336.69475238 243.04199219 339.84448242 C241.375 341.875 241.375 341.875 238.375 342.875 C238.375 343.535 238.375 344.195 238.375 344.875 C238.99375 345.1225 239.6125 345.37 240.25 345.625 C242.375 346.875 242.375 346.875 243.49560547 348.43652344 C244.77125456 351.97377582 244.62025263 355.43082819 244.5703125 359.140625 C244.56606766 360.33072174 244.56606766 360.33072174 244.56173706 361.54486084 C244.55056779 364.07172917 244.52546944 366.59823932 244.5 369.125 C244.48996598 370.8411407 244.48084087 372.55728698 244.47265625 374.2734375 C244.45063914 378.47409574 244.41613187 382.6744872 244.375 386.875 C245.05079102 386.85928955 245.72658203 386.8435791 246.42285156 386.82739258 C249.49014897 386.76496133 252.55731259 386.72598353 255.625 386.6875 C257.22021484 386.64979492 257.22021484 386.64979492 258.84765625 386.61132812 C259.87246094 386.60166016 260.89726562 386.59199219 261.953125 386.58203125 C262.89575195 386.5663208 263.83837891 386.55061035 264.80957031 386.53442383 C267.375 386.875 267.375 386.875 269.65136719 388.18237305 C271.375 389.875 271.375 389.875 272.375 393.25 C272.375 396.875 272.375 396.875 270.5625 399.75 C268.375 401.875 268.375 401.875 266.375 402.875 C263.71741099 402.97537592 261.08587144 403.01423905 258.42788982 403.00922108 C257.59302352 403.01157331 256.75815721 403.01392554 255.89799193 403.01634905 C253.06997723 403.02306365 250.24200822 403.02258009 247.41398621 403.02217102 C245.37817146 403.02546811 243.34235737 403.02919334 241.30654413 403.0333125 C235.68833745 403.04335813 230.07014146 403.0470534 224.45192707 403.04970181 C218.40204402 403.05359724 212.35216949 403.06317603 206.30229187 403.07191467 C192.37207705 403.0907644 178.44186303 403.10093793 164.51163913 403.10937535 C157.63106981 403.11357939 150.75050136 403.11880168 143.86993278 403.12405988 C120.32695471 403.14195074 96.7839764 403.15694804 73.24099255 403.16438007 C71.76253607 403.16485483 70.2840796 403.16533072 68.80562313 403.16580774 C68.07242664 403.16604411 67.33923014 403.16628049 66.58381557 403.16652403 C62.86894671 403.16772525 59.15407784 403.16894069 55.43920898 403.17016602 C54.3333599 403.17052624 54.3333599 403.17052624 53.20517043 403.17089374 C29.29356783 403.17878953 5.38201479 403.20222678 -18.52956616 403.23472196 C-43.79758535 403.26899795 -69.06557552 403.28872911 -94.33361834 403.29202431 C-97.10593872 403.29244187 -99.87825909 403.29292144 -102.65057945 403.29344749 C-103.33322567 403.29357069 -104.0158719 403.29369388 -104.71920437 403.2938208 C-115.7180589 403.29615554 -126.71685599 403.31183065 -137.71569003 403.33228934 C-148.76527057 403.35251681 -159.81479684 403.35770506 -170.86439637 403.34851871 C-176.85381357 403.34395711 -182.84304376 403.34596782 -188.83243561 403.36528015 C-194.31059343 403.38279214 -199.78842616 403.38201207 -205.26658686 403.36638286 C-207.25314786 403.3639885 -209.23973067 403.36842397 -211.22625814 403.38021151 C-213.91802818 403.39520013 -216.60862681 403.38574894 -219.3003664 403.36998463 C-220.07920629 403.38020683 -220.85804617 403.39042904 -221.66048726 403.40096101 C-225.36890239 403.35326451 -227.45027258 402.98671462 -230.60598296 400.96906346 C-232.625 398.875 -232.625 398.875 -233.25390625 396.875 C-233.23199219 396.215 -233.21007812 395.555 -233.1875 394.875 C-233.18878906 394.215 -233.19007813 393.555 -233.19140625 392.875 C-232.37081536 389.97746527 -230.93147633 388.77689569 -228.625 386.875 C-226.05957031 386.42089844 -226.05957031 386.42089844 -223.203125 386.484375 C-221.66591797 386.50371094 -221.66591797 386.50371094 -220.09765625 386.5234375 C-218.50244141 386.57371094 -218.50244141 386.57371094 -216.875 386.625 C-215.79605469 386.64304687 -214.71710938 386.66109375 -213.60546875 386.6796875 C-210.94441212 386.72678585 -208.28515746 386.792544 -205.625 386.875 C-205.64594727 385.81587402 -205.66689453 384.75674805 -205.68847656 383.66552734 C-205.76113385 379.71840043 -205.80689254 375.77133208 -205.84472656 371.82373047 C-205.86478369 370.11855106 -205.89203657 368.41343994 -205.92675781 366.70849609 C-205.97553861 364.25080476 -205.99802719 361.79402634 -206.015625 359.3359375 C-206.03627014 358.57944916 -206.05691528 357.82296082 -206.07818604 357.04354858 C-206.07980992 353.17204634 -205.76984109 350.61729234 -203.60058594 347.34619141 C-202.94864258 346.53069824 -202.29669922 345.71520508 -201.625 344.875 C-200.965 344.875 -200.305 344.875 -199.625 344.875 C-199.625 344.215 -199.625 343.555 -199.625 342.875 C-200.24375 342.6275 -200.8625 342.38 -201.5 342.125 C-203.625 340.875 -203.625 340.875 -204.73901367 339.30029297 C-206.00376101 335.83818217 -205.93021527 332.4592981 -205.92578125 328.8203125 C-205.93006638 328.04114471 -205.9343515 327.26197693 -205.93876648 326.459198 C-205.94449977 324.81346608 -205.94501741 323.16770883 -205.94067383 321.52197266 C-205.93751951 319.01550592 -205.9609645 316.51022668 -205.98632812 314.00390625 C-205.98860193 312.40104315 -205.98930424 310.79817689 -205.98828125 309.1953125 C-205.997491 308.45137238 -206.00670074 307.70743225 -206.01618958 306.94094849 C-205.97432047 302.18601246 -205.26354912 298.85426772 -202.625 294.875 C-199.74013163 293.06675965 -197.52985714 292.62224284 -194.15345764 292.60757446 C-192.81819786 292.59477951 -192.81819786 292.59477951 -191.45596313 292.58172607 C-190.48702118 292.58263245 -189.51807922 292.58353882 -188.51977539 292.58447266 C-186.98012871 292.57439682 -186.98012871 292.57439682 -185.40937805 292.56411743 C-182.01375499 292.54510747 -178.61832922 292.54121186 -175.22265625 292.5390625 C-172.8638043 292.53263727 -170.50495316 292.52590912 -168.14610291 292.51889038 C-163.20065462 292.50691053 -158.25527623 292.50321035 -153.30981445 292.50439453 C-146.96984502 292.5045979 -140.63032297 292.47728038 -134.29045963 292.44285011 C-129.41859372 292.42062526 -124.54683628 292.41655562 -119.67492485 292.41761398 C-117.33731988 292.41525196 -114.99971219 292.40639479 -112.66215706 292.39094925 C-109.39432439 292.37137678 -106.12746716 292.37709323 -102.85961914 292.38916016 C-101.89270142 292.37792114 -100.92578369 292.36668213 -99.92956543 292.35510254 C-95.63084819 292.39548565 -93.27091272 292.47505394 -89.5478363 294.78036499 C-87.625 296.875 -87.625 296.875 -86.625 298.875 C-86.4891977 301.81769525 -86.4122425 304.73553126 -86.38671875 307.6796875 C-86.378647 308.55521271 -86.37057526 309.43073792 -86.36225891 310.33279419 C-86.34841779 312.18717467 -86.33769576 314.04158063 -86.32983398 315.89599609 C-86.31260971 318.73193566 -86.26872357 321.56671286 -86.22460938 324.40234375 C-86.21448345 326.20311642 -86.20596703 328.00389901 -86.19921875 329.8046875 C-86.17295662 331.07673538 -86.17295662 331.07673538 -86.14616394 332.3744812 C-86.15441833 334.61493065 -86.20221217 336.6746338 -86.625 338.875 C-88.65161133 341.44189453 -88.65161133 341.44189453 -90.625 342.875 C-89.47326645 345.34300047 -88.57716435 346.92283565 -86.625 348.875 C-86.44973225 351.7429834 -86.39348189 354.51572722 -86.4296875 357.3828125 C-86.43170166 358.12781006 -86.43371582 358.87280762 -86.43579102 359.64038086 C-86.4462659 362.42698308 -86.47418848 365.21349764 -86.5 368 C-86.54125 374.22875 -86.5825 380.4575 -86.625 386.875 C-71.115 386.875 -55.605 386.875 -39.625 386.875 C-39.955 386.215 -40.285 385.555 -40.625 384.875 C-40.8612138 380.3987484 -40.85345451 375.91851716 -40.86523438 371.43676758 C-40.87488791 369.21331629 -40.90588421 366.99081033 -40.9375 364.76757812 C-40.94403566 363.3411513 -40.94928391 361.91471788 -40.953125 360.48828125 C-40.9624707 359.19704346 -40.97181641 357.90580566 -40.98144531 356.57543945 C-40.56908955 352.29456525 -39.59851435 349.67158276 -37.625 345.875 C-36.965 345.545 -36.305 345.215 -35.625 344.875 C-35.625 344.215 -35.625 343.555 -35.625 342.875 C-36.264375 342.276875 -36.90375 341.67875 -37.5625 341.0625 C-39.625 338.875 -39.625 338.875 -40.24121094 336.67724609 C-40.96946213 331.35990052 -40.85042642 325.99570866 -40.86523438 320.63769531 C-40.87493936 318.51327337 -40.90600127 316.38982042 -40.9375 314.265625 C-40.94403167 312.89844318 -40.9492815 311.53125452 -40.953125 310.1640625 C-40.96714355 308.31868896 -40.96714355 308.31868896 -40.98144531 306.43603516 C-40.5621684 302.24728647 -39.5024826 299.62475961 -37.625 295.875 C-35.9375 293.9375 -35.9375 293.9375 -34.625 292.875 C-35.8315625 291.76125 -35.8315625 291.76125 -37.0625 290.625 C-39.63233231 287.86713118 -40.08461313 287.36169287 -40.625 283.875 C-40.84739438 279.34725253 -40.85318658 274.8183712 -40.86523438 270.28588867 C-40.87492234 268.08018016 -40.90596133 265.87541132 -40.9375 263.66992188 C-40.94403292 262.25260965 -40.94928226 260.83529082 -40.953125 259.41796875 C-40.9624707 258.13946045 -40.97181641 256.86095215 -40.98144531 255.54370117 C-40.5763334 251.37410068 -39.66336052 248.53321841 -37.625 244.875 C-34.67734738 242.31275156 -32.83229767 241.89929838 -28.9362793 241.44262695 C-27.52427568 241.40154467 -26.11176394 241.37585407 -24.69921875 241.36328125 C-23.95162796 241.34533005 -23.20403717 241.32737885 -22.43379211 241.30888367 C-20.06008442 241.25496151 -17.68657568 241.22094446 -15.3125 241.1875 C-13.69723805 241.15431079 -12.08200229 241.11981965 -10.46679688 241.08398438 C-6.51967524 240.99924601 -2.57261073 240.93234951 1.375 240.875 C1.045 240.215 0.715 239.555 0.375 238.875 C-0.30747453 230.9894257 0.99418791 223.89018346 3 216.30078125 C3.39952881 214.72601265 3.39952881 214.72601265 3.80712891 213.11943054 C4.65085737 209.8055134 5.51257568 206.49659509 6.375 203.1875 C6.95432645 200.92543757 7.53246289 198.66307001 8.109375 196.40039062 C9.51751998 190.8883269 10.94041762 185.3802387 12.375 179.875 C8.71114708 178.20208986 5.04433314 176.53585606 1.375 174.875 C0.66456543 174.55321777 -0.04586914 174.23143555 -0.77783203 173.89990234 C-7.54461693 170.8815343 -13.86619714 168.21595617 -21.37890625 168.17578125 C-24.8270297 169.24919707 -27.19425458 171.29320253 -29.625 173.875 C-31.5121404 176.4527565 -33.09855669 179.16847489 -34.6875 181.9375 C-35.64205504 183.54704404 -36.59918998 185.15506019 -37.55859375 186.76171875 C-38.05601074 187.59751465 -38.55342773 188.43331055 -39.06591797 189.29443359 C-59.30171154 222.78837941 -59.30171154 222.78837941 -68.80078125 228.10546875 C-72.5948656 229.70597114 -76.21720359 230.05557673 -80.31152344 230.26391602 C-81.45240417 230.32390274 -82.59328491 230.38388947 -83.76873779 230.44569397 C-84.99489807 230.50615402 -86.22105835 230.56661407 -87.484375 230.62890625 C-88.74388977 230.69407944 -90.00340454 230.75925262 -91.30108643 230.82640076 C-94.64149143 230.99854241 -97.98203323 231.16727269 -101.32269287 231.33435059 C-104.73480679 231.50584419 -108.14668906 231.68182319 -111.55859375 231.85742188 C-118.24719013 232.20074685 -124.936003 232.53957583 -131.625 232.875 C-131.74979736 233.49133301 -131.87459473 234.10766602 -132.00317383 234.74267578 C-132.25877075 235.95673096 -132.25877075 235.95673096 -132.51953125 237.1953125 C-132.68557861 237.99727051 -132.85162598 238.79922852 -133.02270508 239.62548828 C-133.8895709 242.86314602 -135.16426776 244.61378659 -137.625 246.875 C-142.42294146 249.50028873 -146.17654139 250.4693773 -151.625 249.875 C-156.8840971 247.98172504 -159.41508594 245.27716785 -162.625 240.875 C-164.96759068 233.84722797 -163.25432066 227.17381297 -161.375 220.25 C-161.17003906 219.43015625 -160.96507812 218.6103125 -160.75390625 217.765625 C-159.44575872 212.83430523 -157.98087877 208.83779302 -154.625 204.875 C-150.42763699 202.39532241 -147.09656454 201.45392933 -142.25244141 201.16723633 C-141.01160797 201.08737991 -139.77077454 201.0075235 -138.49234009 200.92524719 C-137.15376288 200.85222708 -135.81516993 200.77949508 -134.4765625 200.70703125 C-133.0950126 200.62277802 -131.71353287 200.537367 -130.3321228 200.45085144 C-126.71275415 200.22727502 -123.09265271 200.01935007 -119.47216797 199.8147583 C-115.77123431 199.60281459 -112.07121739 199.37596133 -108.37109375 199.15039062 C-101.12320772 198.71072831 -93.8744818 198.28760984 -86.625 197.875 C-79.97091983 185.99546857 -73.47360456 174.04531972 -67.125 162 C-66.320476 160.47777816 -65.51578882 158.95564255 -64.7109375 157.43359375 C-63.94256246 155.97924373 -63.17432764 154.52481961 -62.40625 153.0703125 C-62.05421509 152.40371613 -61.70218018 151.73711975 -61.33947754 151.05032349 C-60.43129982 149.32697789 -59.52789971 147.60111673 -58.625 145.875 C-58.20951904 145.14627686 -57.79403809 144.41755371 -57.3659668 143.66674805 C-56.24132857 140.94723572 -56.92546411 138.46572798 -57.31884766 135.62255859 C-57.9452418 130.00099583 -57.80957409 124.33742785 -57.8125 118.6875 C-57.82474609 117.46224609 -57.83699219 116.23699219 -57.84960938 114.97460938 C-57.86321755 106.36970657 -57.00648657 98.36595498 -55.625 89.875 C-62.555 90.865 -69.485 91.855 -76.625 92.875 C-76.625 95.845 -76.625 98.815 -76.625 101.875 C-76.87018479 103.77322467 -77.1619166 105.66658666 -77.51953125 107.546875 C-79.02110024 116.68075278 -79.02110024 116.68075278 -78.625 125.875 C-76.25117526 130.41755259 -72.59325832 133.20416158 -68.5390625 136.19140625 C-67.57742187 137.07699219 -66.61578125 137.96257812 -65.625 138.875 C-65.14061577 142.59648858 -65.15752083 144.83004656 -66.6875 148.25 C-68.625 149.875 -68.625 149.875 -72 150.8125 C-75.625 150.875 -75.625 150.875 -78.5625 149.4375 C-79.243125 148.921875 -79.92375 148.40625 -80.625 147.875 C-81.058125 148.803125 -81.49125 149.73125 -81.9375 150.6875 C-84.29480325 155.14018392 -84.29480325 155.14018392 -86.625 156.875 C-93.96849071 157.83284661 -102.60098544 157.41069638 -109.625 154.875 C-111.3359375 153.73828125 -111.3359375 153.73828125 -112.625 151.875 C-114.25911349 144.95984283 -113.19746216 138.16120574 -112.48046875 131.1640625 C-112.34873727 129.82804903 -112.21758806 128.49197804 -112.08699036 127.15585327 C-111.81219521 124.36311371 -111.53168987 121.57102699 -111.24682617 118.77929688 C-110.88435727 115.22434076 -110.53413206 111.66831254 -110.18798351 108.11173439 C-109.91852871 105.35386642 -109.64351404 102.59657468 -109.36678505 99.83942795 C-109.17265153 97.89838324 -108.9822979 95.95696167 -108.79203796 94.01553345 C-106.86917327 75.31784145 -106.86917327 75.31784145 -101.625 68.875 C-96.89209485 64.00289175 -90.60629648 62.72771981 -84.13735962 61.3421936 C-81.61289933 60.87790081 -79.08559749 60.4546738 -76.55078125 60.05078125 C-75.16042915 59.82409004 -75.16042915 59.82409004 -73.74198914 59.59281921 C-71.79380971 59.27767811 -69.84505074 58.96610056 -67.89575195 58.65795898 C-64.96003054 58.19108309 -62.02801478 57.70457257 -59.09570312 57.21679688 C-33.13929327 53.00694419 -33.13929327 53.00694419 -23.625 55.875 C-23.19003989 52.11915398 -23.04942078 48.62122679 -23.625 44.875 C-25.15918719 42.52010514 -26.8814171 40.74346937 -28.8671875 38.76171875 C-31.62361349 35.80315486 -32.82579636 32.80621788 -33.625 28.875 C-34.26862658 23.20020793 -33.94968315 18.0251426 -31.66015625 12.75390625 C-28.87558422 7.69964532 -25.59744791 4.13688515 -20.4375 1.5 C-13.56152605 -1.61927812 -7.29501393 -2.12354857 0 0 Z " fill="#FFC250" transform="translate(232.625,55.125)" />
<path d="M0 0 C4.56782194 1.70595793 8.21302881 4.15141349 11.375 7.875 C14.7315169 13.01486554 16.3918207 17.70175933 17.625 23.6875 C17.87540039 24.87617676 17.87540039 24.87617676 18.13085938 26.08886719 C20.42304948 37.50771628 20.42304948 37.50771628 19.375 42.875 C17.63571467 46.41798863 16.07642076 48.32124677 13 50.75 C9.94328219 52.06002192 7.66799001 52.10474349 4.375 51.875 C4.375 54.515 4.375 57.155 4.375 59.875 C4.96055664 60.08688965 5.54611328 60.2987793 6.14941406 60.51708984 C13.22439356 63.19759462 19.60635629 66.6825459 26.125 70.5 C28.11687959 71.66385243 30.11159067 72.82287513 32.109375 73.9765625 C32.97788086 74.48525879 33.84638672 74.99395508 34.74121094 75.51806641 C37.55402967 76.96723646 40.35367651 77.94871856 43.375 78.875 C46.92107018 75.11088667 50.43720826 71.32330838 53.90869141 67.49023438 C55.11019221 66.16670302 56.32477659 64.85505973 57.54296875 63.546875 C59.13228681 61.68952468 60.3732279 60.10475081 61.375 57.875 C61.56056461 54.75414064 60.97615507 51.92741671 60.375 48.875 C60.034629 45.80665558 59.85542347 42.92751211 60.375 39.875 C62.5 36.8125 62.5 36.8125 65.375 34.875 C68.375 34.25 68.375 34.25 71.375 34.875 C74.125 37.375 74.125 37.375 76.375 39.875 C78.4495356 40.0240712 78.4495356 40.0240712 80.375 38.875 C83.62568855 38.28396572 85.23941378 38.077218 88.375 38.875 C92.37908409 41.51493406 95.88133943 44.59833698 99.375 47.875 C100.1278125 48.55820313 100.880625 49.24140625 101.65625 49.9453125 C103.375 51.875 103.375 51.875 104.125 55.5 C103.88331999 59.27020812 102.60381531 61.40976842 100.3125 64.375 C98.69326494 66.24290331 97.05738579 68.06587448 95.375 69.875 C94.80136719 70.49536133 94.22773438 71.11572266 93.63671875 71.75488281 C90.46619871 75.1732023 87.27314801 78.56840702 84.05859375 81.9453125 C80.96804846 85.2102255 77.99370053 88.56072717 75.04711914 91.95556641 C70.61443947 97.04386069 66.02478052 101.98517666 61.375 106.875 C60.72273437 107.56722656 60.07046875 108.25945312 59.3984375 108.97265625 C55.70453096 112.53526279 52.19749931 113.82635607 47.1953125 114.84375 C39.11971254 114.93323033 32.81432934 111.84745045 26 107.8125 C24.43086568 106.90291238 22.8606001 105.99527277 21.2890625 105.08984375 C20.6079541 104.68886475 19.9268457 104.28788574 19.22509766 103.87475586 C17.24382746 102.73527299 17.24382746 102.73527299 14.375 101.875 C14.11847656 103.12667969 13.86195313 104.37835938 13.59765625 105.66796875 C12.34819389 111.28999893 10.60138679 116.7175637 8.8125 122.1875 C8.18512179 124.12074486 7.55877773 126.0543257 6.93359375 127.98828125 C6.65829834 128.83173096 6.38300293 129.67518066 6.09936523 130.54418945 C5.4472503 132.64251815 4.88275176 134.73776229 4.375 136.875 C5.04966309 137.26768066 5.72432617 137.66036133 6.41943359 138.06494141 C9.53001957 139.87594638 12.64001253 141.68796744 15.75 143.5 C16.81089844 144.11746094 17.87179688 144.73492187 18.96484375 145.37109375 C21.08251817 146.60532117 23.19873863 147.84204674 25.31347656 149.08129883 C27.29646624 150.24310306 29.28261113 151.39954539 31.27246094 152.54956055 C32.15450195 153.06558838 33.03654297 153.58161621 33.9453125 154.11328125 C34.71891113 154.56227783 35.49250977 155.01127441 36.28955078 155.47387695 C40.4512337 158.26993154 43.21444937 161.92316485 45.75 166.1875 C47.58901902 174.09528178 46.01867025 181.65181875 43.93359375 189.3359375 C43.68706558 190.28892731 43.44053741 191.24191711 43.1865387 192.2237854 C42.40658447 195.23563786 41.61117982 198.24306342 40.8125 201.25 C40.01121538 204.27857202 39.21364711 207.30788125 38.42774963 210.34048462 C37.94066142 212.21934333 37.44468887 214.09592664 36.93882751 215.96981812 C36.60837181 217.24231918 36.60837181 217.24231918 36.27124023 218.54052734 C36.0736058 219.28313812 35.87597137 220.0257489 35.67234802 220.79086304 C35.33021718 223.18888649 35.49110446 224.62185141 36.375 226.875 C38.35760426 228.56232277 40.3582342 230.22866057 42.375 231.875 C44.76273717 235.66024221 44.78798663 239.02793964 44.69140625 243.40625 C44.22113026 247.07556389 42.7950872 249.12787399 40.375 251.875 C37.66164979 254.32363311 35.84456331 255.7184789 32.375 256.875 C26.85758968 257.48191514 23.44687842 256.29716734 18.71240234 253.72680664 C17.94105957 253.28071045 17.1697168 252.83461426 16.375 252.375 C15.57916504 251.91794678 14.78333008 251.46089355 13.96337891 250.98999023 C3.16602711 244.58903793 3.16602711 244.58903793 0.375 238.875 C-0.6735002 231.12627362 1.03017345 223.75402478 3 216.30078125 C3.39952881 214.72601265 3.39952881 214.72601265 3.80712891 213.11943054 C4.65085737 209.8055134 5.51257568 206.49659509 6.375 203.1875 C6.95432645 200.92543757 7.53246289 198.66307001 8.109375 196.40039062 C9.51751998 190.8883269 10.94041762 185.3802387 12.375 179.875 C8.71114708 178.20208986 5.04433314 176.53585606 1.375 174.875 C0.66456543 174.55321777 -0.04586914 174.23143555 -0.77783203 173.89990234 C-7.54461693 170.8815343 -13.86619714 168.21595617 -21.37890625 168.17578125 C-24.8270297 169.24919707 -27.19425458 171.29320253 -29.625 173.875 C-31.5121404 176.4527565 -33.09855669 179.16847489 -34.6875 181.9375 C-35.64205504 183.54704404 -36.59918998 185.15506019 -37.55859375 186.76171875 C-38.05601074 187.59751465 -38.55342773 188.43331055 -39.06591797 189.29443359 C-59.30171154 222.78837941 -59.30171154 222.78837941 -68.80078125 228.10546875 C-72.5948656 229.70597114 -76.21720359 230.05557673 -80.31152344 230.26391602 C-81.45240417 230.32390274 -82.59328491 230.38388947 -83.76873779 230.44569397 C-84.99489807 230.50615402 -86.22105835 230.56661407 -87.484375 230.62890625 C-88.74388977 230.69407944 -90.00340454 230.75925262 -91.30108643 230.82640076 C-94.64149143 230.99854241 -97.98203323 231.16727269 -101.32269287 231.33435059 C-104.73480679 231.50584419 -108.14668906 231.68182319 -111.55859375 231.85742188 C-118.24719013 232.20074685 -124.936003 232.53957583 -131.625 232.875 C-131.74979736 233.49133301 -131.87459473 234.10766602 -132.00317383 234.74267578 C-132.17357178 235.5520459 -132.34396973 236.36141602 -132.51953125 237.1953125 C-132.68557861 237.99727051 -132.85162598 238.79922852 -133.02270508 239.62548828 C-133.8895709 242.86314602 -135.16426776 244.61378659 -137.625 246.875 C-142.42294146 249.50028873 -146.17654139 250.4693773 -151.625 249.875 C-156.8840971 247.98172504 -159.41508594 245.27716785 -162.625 240.875 C-164.96759068 233.84722797 -163.25432066 227.17381297 -161.375 220.25 C-161.17003906 219.43015625 -160.96507812 218.6103125 -160.75390625 217.765625 C-159.44575872 212.83430523 -157.98087877 208.83779302 -154.625 204.875 C-150.42763699 202.39532241 -147.09656454 201.45392933 -142.25244141 201.16723633 C-141.01160797 201.08737991 -139.77077454 201.0075235 -138.49234009 200.92524719 C-137.15376288 200.85222708 -135.81516993 200.77949508 -134.4765625 200.70703125 C-133.0950126 200.62277802 -131.71353287 200.537367 -130.3321228 200.45085144 C-126.71275415 200.22727502 -123.09265271 200.01935007 -119.47216797 199.8147583 C-115.77123431 199.60281459 -112.07121739 199.37596133 -108.37109375 199.15039062 C-101.12320772 198.71072831 -93.8744818 198.28760984 -86.625 197.875 C-79.97091983 185.99546857 -73.47360456 174.04531972 -67.125 162 C-66.320476 160.47777816 -65.51578882 158.95564255 -64.7109375 157.43359375 C-63.94256246 155.97924373 -63.17432764 154.52481961 -62.40625 153.0703125 C-62.05421509 152.40371613 -61.70218018 151.73711975 -61.33947754 151.05032349 C-60.43129982 149.32697789 -59.52789971 147.60111673 -58.625 145.875 C-58.00177856 144.78191528 -58.00177856 144.78191528 -57.3659668 143.66674805 C-56.24132857 140.94723572 -56.92546411 138.46572798 -57.31884766 135.62255859 C-57.9452418 130.00099583 -57.80957409 124.33742785 -57.8125 118.6875 C-57.82474609 117.46224609 -57.83699219 116.23699219 -57.84960938 114.97460938 C-57.86321755 106.36970657 -57.00648657 98.36595498 -55.625 89.875 C-62.555 90.865 -69.485 91.855 -76.625 92.875 C-76.625 95.845 -76.625 98.815 -76.625 101.875 C-76.87018479 103.77322467 -77.1619166 105.66658666 -77.51953125 107.546875 C-79.02110024 116.68075278 -79.02110024 116.68075278 -78.625 125.875 C-76.25117526 130.41755259 -72.59325832 133.20416158 -68.5390625 136.19140625 C-67.57742187 137.07699219 -66.61578125 137.96257812 -65.625 138.875 C-65.14061577 142.59648858 -65.15752083 144.83004656 -66.6875 148.25 C-68.625 149.875 -68.625 149.875 -72 150.8125 C-75.625 150.875 -75.625 150.875 -78.5625 149.4375 C-79.243125 148.921875 -79.92375 148.40625 -80.625 147.875 C-81.058125 148.803125 -81.49125 149.73125 -81.9375 150.6875 C-84.29480325 155.14018392 -84.29480325 155.14018392 -86.625 156.875 C-93.96849071 157.83284661 -102.60098544 157.41069638 -109.625 154.875 C-111.3359375 153.73828125 -111.3359375 153.73828125 -112.625 151.875 C-114.25911349 144.95984283 -113.19746216 138.16120574 -112.48046875 131.1640625 C-112.34873727 129.82804903 -112.21758806 128.49197804 -112.08699036 127.15585327 C-111.81219521 124.36311371 -111.53168987 121.57102699 -111.24682617 118.77929688 C-110.88435727 115.22434076 -110.53413206 111.66831254 -110.18798351 108.11173439 C-109.91852871 105.35386642 -109.64351404 102.59657468 -109.36678505 99.83942795 C-109.17265153 97.89838324 -108.9822979 95.95696167 -108.79203796 94.01553345 C-106.86917327 75.31784145 -106.86917327 75.31784145 -101.625 68.875 C-96.89209485 64.00289175 -90.60629648 62.72771981 -84.13735962 61.3421936 C-81.61289933 60.87790081 -79.08559749 60.4546738 -76.55078125 60.05078125 C-75.16042915 59.82409004 -75.16042915 59.82409004 -73.74198914 59.59281921 C-71.79380971 59.27767811 -69.84505074 58.96610056 -67.89575195 58.65795898 C-64.96003054 58.19108309 -62.02801478 57.70457257 -59.09570312 57.21679688 C-33.13929327 53.00694419 -33.13929327 53.00694419 -23.625 55.875 C-23.19003989 52.11915398 -23.04942078 48.62122679 -23.625 44.875 C-25.15918719 42.52010514 -26.8814171 40.74346937 -28.8671875 38.76171875 C-31.62361349 35.80315486 -32.82579636 32.80621788 -33.625 28.875 C-34.26862658 23.20020793 -33.94968315 18.0251426 -31.66015625 12.75390625 C-28.87558422 7.69964532 -25.59744791 4.13688515 -20.4375 1.5 C-13.56152605 -1.61927812 -7.29501393 -2.12354857 0 0 Z " fill="#E17F86" transform="translate(232.625,55.125)" />
<path d="M0 0 C0.77775284 -0.00761353 1.55550568 -0.01522705 2.35682678 -0.02307129 C3.99655966 -0.03384338 5.63636099 -0.03673716 7.27612305 -0.03222656 C9.77444695 -0.03125417 12.26969717 -0.07290319 14.76757812 -0.1171875 C16.36587905 -0.12239523 17.96419059 -0.12508268 19.5625 -0.125 C20.30330307 -0.14139526 21.04410614 -0.15779053 21.80735779 -0.17468262 C24.65533237 -0.13704661 27.10437492 0.00588673 29.56059265 1.53544617 C31.04447263 2.78412081 32.44944662 4.12483855 33.84765625 5.46875 C36.41193997 7.22177308 39.08562116 8.7463204 41.78515625 10.28125 C42.46255859 10.68794922 43.13996094 11.09464844 43.83789062 11.51367188 C47.32190247 13.50119541 49.5817012 14.44526732 53.65234375 14.8046875 C57.41321086 14.40929071 59.67087576 13.51600854 62.84765625 11.46875 C66.16844019 8.05572206 67.43537861 4.95954512 68.84765625 0.46875 C73.24336419 0.3815247 77.63884896 0.32828131 82.03515625 0.28125 C83.28103516 0.25611328 84.52691406 0.23097656 85.81054688 0.20507812 C87.01259766 0.19541016 88.21464844 0.18574219 89.453125 0.17578125 C90.55809326 0.1600708 91.66306152 0.14436035 92.80151367 0.12817383 C96.32110312 0.52168407 98.0686629 1.28938578 100.84765625 3.46875 C103.28826058 6.46100691 103.82821609 8.28419077 104.23583984 12.15405273 C104.25550267 13.57001735 104.25802135 14.98629285 104.24609375 16.40234375 C104.24896393 17.15790054 104.25183411 17.91345734 104.25479126 18.69190979 C104.25682613 20.28460442 104.2513367 21.87732436 104.23876953 23.4699707 C104.22272888 25.89526863 104.23862504 28.31889467 104.2578125 30.74414062 C104.25582953 32.29687865 104.25198473 33.84961564 104.24609375 35.40234375 C104.25216644 36.12127304 104.25823914 36.84020233 104.26449585 37.58091736 C104.19970717 42.26809209 103.36076942 45.5071832 100.84765625 49.46875 C99.85765625 50.12875 98.86765625 50.78875 97.84765625 51.46875 C98.65203125 52.231875 99.45640625 52.995 100.28515625 53.78125 C102.84765625 56.46875 102.84765625 56.46875 103.84765625 59.46875 C103.96825915 62.05714405 104.03573378 64.61781481 104.05078125 67.20703125 C104.05648132 67.96541794 104.0621814 68.72380463 104.0680542 69.50517273 C104.07749481 71.10979827 104.08403446 72.71444312 104.08789062 74.3190918 C104.09757952 76.76190455 104.12860365 79.20386961 104.16015625 81.64648438 C104.16668852 83.20832836 104.17193811 84.77017834 104.17578125 86.33203125 C104.18812805 87.05723465 104.20047485 87.78243805 104.2131958 88.52961731 C104.19274502 93.23559608 103.42834194 96.51494904 100.84765625 100.46875 C99.36265625 100.96375 99.36265625 100.96375 97.84765625 101.46875 C97.84765625 102.12875 97.84765625 102.78875 97.84765625 103.46875 C98.46640625 103.695625 99.08515625 103.9225 99.72265625 104.15625 C100.42390625 104.589375 101.12515625 105.0225 101.84765625 105.46875 C106.80571792 117.86390416 103.84765625 132.1187604 103.84765625 145.46875 C64.57765625 145.46875 25.30765625 145.46875 -15.15234375 145.46875 C-17.37624993 141.02093763 -16.37957775 134.97662036 -16.39257812 130.03051758 C-16.40223166 127.80706629 -16.43322796 125.58456033 -16.46484375 123.36132812 C-16.47137941 121.9349013 -16.47662766 120.50846788 -16.48046875 119.08203125 C-16.48981445 117.79079346 -16.49916016 116.49955566 -16.50878906 115.16918945 C-16.0964333 110.88831525 -15.1258581 108.26533276 -13.15234375 104.46875 C-12.16234375 103.97375 -12.16234375 103.97375 -11.15234375 103.46875 C-11.15234375 102.80875 -11.15234375 102.14875 -11.15234375 101.46875 C-11.79171875 100.870625 -12.43109375 100.2725 -13.08984375 99.65625 C-15.15234375 97.46875 -15.15234375 97.46875 -15.76855469 95.27099609 C-16.49680588 89.95365052 -16.37777017 84.58945866 -16.39257812 79.23144531 C-16.40228311 77.10702337 -16.43334502 74.98357042 -16.46484375 72.859375 C-16.47137542 71.49219318 -16.47662525 70.12500452 -16.48046875 68.7578125 C-16.48981445 67.52756348 -16.49916016 66.29731445 -16.50878906 65.02978516 C-16.08951215 60.84103647 -15.02982635 58.21850961 -13.15234375 54.46875 C-11.46484375 52.53125 -11.46484375 52.53125 -10.15234375 51.46875 C-10.95671875 50.72625 -11.76109375 49.98375 -12.58984375 49.21875 C-15.15967606 46.46088118 -15.61195688 45.95544287 -16.15234375 42.46875 C-16.37473813 37.94100253 -16.38053033 33.4121212 -16.39257812 28.87963867 C-16.40226609 26.67393016 -16.43330508 24.46916132 -16.46484375 22.26367188 C-16.47137667 20.84635965 -16.47662601 19.42904082 -16.48046875 18.01171875 C-16.48981445 16.73321045 -16.49916016 15.45470215 -16.50878906 14.13745117 C-16.10367715 9.96785068 -15.19070427 7.12696841 -13.15234375 3.46875 C-9.19319795 0.00000394 -5.04865282 0.00136893 0 0 Z " fill="#FFC250" transform="translate(208.15234375,296.53125)" />
<path d="M0 0 C0.89017319 -0.00852997 1.78034637 -0.01705994 2.69749451 -0.02584839 C3.66643646 -0.02494202 4.63537842 -0.02403564 5.63368225 -0.02310181 C6.66011337 -0.02981903 7.68654449 -0.03653625 8.74407959 -0.04345703 C12.13970265 -0.06246699 15.53512842 -0.0663626 18.93080139 -0.06851196 C21.28965334 -0.07493719 23.64850448 -0.08166534 26.00735474 -0.08868408 C30.95280302 -0.10066393 35.89818141 -0.10436411 40.84364319 -0.10317993 C47.18361262 -0.10297657 53.52313468 -0.13029408 59.86299801 -0.16472435 C64.73486392 -0.1869492 69.60662136 -0.19101884 74.47853279 -0.18996048 C76.81613776 -0.1923225 79.15374545 -0.20117967 81.49130058 -0.21662521 C84.75913325 -0.23619768 88.02599048 -0.23048123 91.2938385 -0.21841431 C92.26075623 -0.22965332 93.22767395 -0.24089233 94.22389221 -0.25247192 C98.52260945 -0.21208881 100.88254492 -0.13252052 104.60562134 2.17279053 C106.52845764 4.26742554 106.52845764 4.26742554 107.52845764 6.26742554 C107.66425994 9.21012079 107.74121515 12.1279568 107.76673889 15.07211304 C107.77481064 15.94763824 107.78288239 16.82316345 107.79119873 17.72521973 C107.80503986 19.5796002 107.81576189 21.43400616 107.82362366 23.28842163 C107.84084793 26.1243612 107.88473407 28.9591384 107.92884827 31.79476929 C107.93897419 33.59554196 107.94749061 35.39632454 107.95423889 37.19711304 C107.97174698 38.04514496 107.98925507 38.89317688 108.0072937 39.76690674 C107.99903931 42.00735619 107.95124548 44.06705934 107.52845764 46.26742554 C105.50184631 48.83432007 105.50184631 48.83432007 103.52845764 50.26742554 C104.68019119 52.73542601 105.5762933 54.31526119 107.52845764 56.26742554 C107.52845764 68.80742554 107.52845764 81.34742554 107.52845764 94.26742554 C68.25845764 94.26742554 28.98845764 94.26742554 -11.47154236 94.26742554 C-11.47154236 58.26742554 -11.47154236 58.26742554 -7.47154236 52.26742554 C-6.81154236 52.26742554 -6.15154236 52.26742554 -5.47154236 52.26742554 C-5.47154236 51.60742554 -5.47154236 50.94742554 -5.47154236 50.26742554 C-6.09029236 50.01992554 -6.70904236 49.77242554 -7.34654236 49.51742554 C-9.47154236 48.26742554 -9.47154236 48.26742554 -10.58555603 46.69271851 C-11.85030337 43.23060771 -11.77675763 39.85172364 -11.77232361 36.21273804 C-11.77660873 35.43357025 -11.78089386 34.65440247 -11.78530884 33.85162354 C-11.79104213 32.20589162 -11.79155977 30.56013436 -11.78721619 28.91439819 C-11.78406187 26.40793146 -11.80750686 23.90265222 -11.83287048 21.39633179 C-11.83514429 19.79346868 -11.83584659 18.19060243 -11.83482361 16.58773804 C-11.84403336 15.84379791 -11.8532431 15.09985779 -11.86273193 14.33337402 C-11.82086283 9.578438 -11.11009148 6.24669326 -8.47154236 2.26742554 C-5.58667399 0.45918519 -3.3763995 0.01466837 0 0 Z " fill="#FFC250" transform="translate(38.47154235839844,347.7325744628906)" />
<path d="M0 0 C7.30230686 -0.44414747 11.89898858 1.23021568 18.12353516 4.99707031 C19.12255859 5.63773438 20.12158203 6.27839844 21.15087891 6.93847656 C22.15763672 7.5559375 23.16439453 8.17339844 24.20166016 8.80957031 C26.19452404 10.03416326 28.18010509 11.27069813 30.15771484 12.51977539 C33.69633999 14.73277155 37.29670902 16.83104947 40.9140625 18.91235352 C45.100438 21.68988057 47.86114377 25.35460384 50.40087891 29.62597656 C52.23989792 37.53375834 50.66954915 45.09029531 48.58447266 52.77441406 C48.33794449 53.72740387 48.09141632 54.68039368 47.8374176 55.66226196 C47.05746338 58.67411443 46.26205872 61.68153998 45.46337891 64.68847656 C44.66209428 67.71704858 43.86452601 70.74635781 43.07862854 73.77896118 C42.59154033 75.65781989 42.09556778 77.53440321 41.58970642 79.40829468 C41.25925072 80.68079575 41.25925072 80.68079575 40.92211914 81.97900391 C40.72448471 82.72161469 40.52685028 83.46422546 40.32322693 84.2293396 C39.98109609 86.62736305 40.14198337 88.06032797 41.02587891 90.31347656 C43.00848316 92.00079933 45.00911311 93.66713714 47.02587891 95.31347656 C49.41361608 99.09871877 49.43886553 102.4664162 49.34228516 106.84472656 C48.87200917 110.51404046 47.44596611 112.56635055 45.02587891 115.31347656 C42.3125287 117.76210968 40.49544222 119.15695546 37.02587891 120.31347656 C31.50846858 120.9203917 28.09775732 119.73564391 23.36328125 117.1652832 C22.59193848 116.71918701 21.8205957 116.27309082 21.02587891 115.81347656 C20.23004395 115.35642334 19.43420898 114.89937012 18.61425781 114.4284668 C7.81690602 108.0275145 7.81690602 108.0275145 5.02587891 102.31347656 C3.9773787 94.56475018 5.68105236 87.19250135 7.65087891 79.73925781 C7.91723145 78.68941208 8.18358398 77.63956635 8.45800781 76.5579071 C9.30173627 73.24398996 10.16345459 69.93507166 11.02587891 66.62597656 C11.60520536 64.36391413 12.1833418 62.10154657 12.76025391 59.83886719 C14.16839889 54.32680346 15.59129653 48.81871526 17.02587891 43.31347656 C13.36202599 41.64056642 9.69521205 39.97433262 6.02587891 38.31347656 C5.31544434 37.99169434 4.60500977 37.66991211 3.87304688 37.33837891 C-2.89373802 34.32001086 -9.21531823 31.65443273 -16.72802734 31.61425781 C-20.17615079 32.68767363 -22.54337567 34.73167909 -24.97412109 37.31347656 C-26.8612615 39.89123307 -28.44767779 42.60695146 -30.03662109 45.37597656 C-30.99117613 46.9855206 -31.94831107 48.59353675 -32.90771484 50.20019531 C-33.40513184 51.03599121 -33.90254883 51.87178711 -34.41503906 52.73291016 C-54.65083263 86.22685598 -54.65083263 86.22685598 -64.14990234 91.54394531 C-67.9439867 93.14444771 -71.56632469 93.49405329 -75.66064453 93.70239258 C-76.80152527 93.7623793 -77.94240601 93.82236603 -79.11785889 93.88417053 C-80.34401917 93.94463058 -81.57017944 94.00509064 -82.83349609 94.06738281 C-84.09301086 94.132556 -85.35252563 94.19772919 -86.65020752 94.26487732 C-89.99061252 94.43701897 -93.33115433 94.60574925 -96.67181396 94.77282715 C-100.08392789 94.94432076 -103.49581016 95.12029975 -106.90771484 95.29589844 C-113.59631123 95.63922341 -120.28512409 95.97805239 -126.97412109 96.31347656 C-127.09891846 96.92980957 -127.22371582 97.54614258 -127.35229492 98.18115234 C-127.52269287 98.99052246 -127.69309082 99.79989258 -127.86865234 100.63378906 C-128.03469971 101.43574707 -128.20074707 102.23770508 -128.37182617 103.06396484 C-129.23869199 106.30162259 -130.51338885 108.05226315 -132.97412109 110.31347656 C-137.77206256 112.93876529 -141.52566248 113.90785387 -146.97412109 113.31347656 C-152.23321819 111.42020161 -154.76420704 108.71564441 -157.97412109 104.31347656 C-160.31671177 97.28570453 -158.60344176 90.61228953 -156.72412109 83.68847656 C-156.51916016 82.86863281 -156.31419922 82.04878906 -156.10302734 81.20410156 C-154.79487982 76.2727818 -153.32999987 72.27626958 -149.97412109 68.31347656 C-145.77675808 65.83379897 -142.44568564 64.89240589 -137.6015625 64.60571289 C-136.36072906 64.52585648 -135.11989563 64.44600006 -133.84146118 64.36372375 C-132.50288398 64.29070364 -131.16429103 64.21797164 -129.82568359 64.14550781 C-128.4441337 64.06125459 -127.06265397 63.97584356 -125.6812439 63.889328 C-122.06187525 63.66575158 -118.44177381 63.45782663 -114.82128906 63.25323486 C-111.1203554 63.04129115 -107.42033849 62.81443789 -103.72021484 62.58886719 C-96.47232881 62.14920487 -89.22360289 61.72608641 -81.97412109 61.31347656 C-75.30729048 49.41908501 -68.81465059 37.44716484 -62.47412109 25.37597656 C-61.27904417 23.10199733 -60.083342 20.8283582 -58.88562012 18.55577087 C-58.15170667 17.16317626 -57.41927891 15.76979728 -56.68859863 14.37550354 C-55.22075173 11.58979931 -53.72282729 8.93653586 -51.97412109 6.31347656 C-49.94067383 5.74511719 -49.94067383 5.74511719 -47.40771484 5.46972656 C-46.45928711 5.35927002 -45.51085937 5.24881348 -44.53369141 5.13500977 C-43.5034082 5.02890381 -42.473125 4.92279785 -41.41162109 4.81347656 C-39.22800332 4.56759604 -37.04441036 4.32149515 -34.86083984 4.07519531 C-33.16193604 3.89029541 -33.16193604 3.89029541 -31.42871094 3.70166016 C-28.02878484 3.31961899 -24.63669715 2.89669951 -21.24365234 2.45800781 C-20.15189697 2.31878906 -19.0601416 2.17957031 -17.93530273 2.03613281 C-15.85713918 1.77069415 -13.7794609 1.50141605 -11.70239258 1.22753906 C-7.80771052 0.74488004 -3.90231239 0.41130924 0 0 Z " fill="#5E54AB" transform="translate(227.97412109375,191.6865234375)" />
<path d="M0 0 C1.51808554 -0.02060431 3.03656568 -0.0190097 4.55467606 -0.00032526 C5.39552639 -0.00583943 6.23637673 -0.0113536 7.10270739 -0.01703486 C9.93930577 -0.03070314 12.77503891 -0.0156936 15.61162186 -0.00095946 C17.65812823 -0.00484969 19.7046319 -0.0104879 21.75112915 -0.01773036 C27.38964535 -0.03254278 33.02788393 -0.02226943 38.66639137 -0.00799364 C44.74145154 0.00307945 50.81647159 -0.00881428 56.89152908 -0.01783568 C68.10963868 -0.03098765 79.32765707 -0.02596833 90.54575646 -0.01176039 C100.9083365 0.00127981 111.27088443 0.0064896 121.63347244 0.00392145 C122.32024499 0.00376103 123.00701753 0.00360062 123.71460137 0.00343534 C126.50227702 0.00277178 129.28995267 0.00206937 132.0776283 0.00131 C158.24021448 -0.00571763 184.40274411 0.00978926 210.5653159 0.03593346 C233.82067783 0.05904935 257.07597759 0.06443708 280.33134842 0.05420107 C286.28591789 0.05159916 292.24048736 0.04901418 298.19505692 0.04660314 C298.92808296 0.0463057 299.661109 0.04600825 300.41634795 0.04570179 C319.83537568 0.03809077 339.25439831 0.04449559 358.67342377 0.05529916 C360.76237683 0.05644699 362.8513299 0.05759017 364.94028297 0.05872599 C366.32610064 0.05948124 367.71191831 0.06024688 369.09773597 0.061023 C379.45503108 0.06668686 389.81231009 0.06534764 400.16960526 0.06079477 C411.94365971 0.05569276 423.71766296 0.06181421 435.49170589 0.08168907 C441.50325121 0.09158543 447.51469831 0.09664096 453.52624893 0.08879656 C459.02336326 0.08177 464.52027888 0.08847317 470.01736689 0.10640018 C472.01191793 0.1104644 474.00648691 0.10941205 476.0010314 0.10288132 C478.7009983 0.09479371 481.40028545 0.10496652 484.10020828 0.11992925 C484.88431218 0.1131916 485.66841607 0.10645395 486.47628069 0.09951213 C489.6497817 0.13379582 491.95621125 0.30146004 494.77914429 1.81307828 C496.32744217 3.50024599 496.32744217 3.50024599 497.32744217 6.87524599 C497.32744217 10.50024599 497.32744217 10.50024599 495.51494217 13.37524599 C493.32744217 15.50024599 493.32744217 15.50024599 491.32744217 16.50024599 C488.66985316 16.60062191 486.0383136 16.63948504 483.38033199 16.63446707 C482.54546569 16.6368193 481.71059938 16.63917153 480.85043409 16.64159504 C478.0224194 16.64830964 475.19445039 16.64782608 472.36642838 16.64741701 C470.33061363 16.6507141 468.29479954 16.65443933 466.25898629 16.65855849 C460.64077962 16.66860412 455.02258362 16.67229938 449.40436924 16.6749478 C443.35448619 16.67884323 437.30461166 16.68842202 431.25473404 16.69716066 C417.32451922 16.71601039 403.3943052 16.72618392 389.4640813 16.73462134 C382.58351198 16.73882538 375.70294353 16.74404767 368.82237495 16.74930587 C345.27939688 16.76719673 321.73641857 16.78219403 298.19343472 16.78962606 C296.71497824 16.79010082 295.23652177 16.79057671 293.7580653 16.79105372 C293.02486881 16.7912901 292.29167231 16.79152648 291.53625774 16.79177002 C287.82138887 16.79297124 284.10652001 16.79418668 280.39165115 16.795412 C279.28580207 16.79577223 279.28580207 16.79577223 278.1576126 16.79613973 C254.24601 16.80403552 230.33445696 16.82747277 206.42287601 16.85996795 C181.15485682 16.89424394 155.88686665 16.9139751 130.61882383 16.9172703 C127.84650344 16.91768786 125.07418308 16.91816742 122.30186272 16.91869348 C121.6192165 16.91881667 120.93657027 16.91893987 120.2332378 16.91906679 C109.23438327 16.92140153 98.23558618 16.93707664 87.23675214 16.95753533 C76.18717159 16.9777628 65.13764533 16.98295105 54.0880458 16.9737647 C48.0986286 16.9692031 42.10939841 16.97121381 36.12000656 16.99052614 C30.64184874 17.00803812 25.164016 17.00725806 19.68585531 16.99162885 C17.69929431 16.98923448 15.7127115 16.99366996 13.72618403 17.0054575 C11.03441399 17.02044612 8.34381536 17.01099493 5.65207577 16.99523062 C4.87323588 17.00545282 4.094396 17.01567503 3.2919549 17.026207 C-0.41646022 16.9785105 -2.49783041 16.61196061 -5.65354079 14.59430945 C-7.67255783 12.50024599 -7.67255783 12.50024599 -8.30146408 10.50024599 C-8.27955002 9.84024599 -8.25763596 9.18024599 -8.23505783 8.50024599 C-8.23634689 7.84024599 -8.23763596 7.18024599 -8.23896408 6.50024599 C-7.67255783 4.50024599 -7.67255783 4.50024599 -6.15135956 2.40653169 C-3.67255783 0.50024599 -3.67255783 0.50024599 0 0 Z " fill="#6B61B0" transform="translate(7.672557830810547,441.499754011631)" />
<path d="M0 0 C1.875 1.1875 1.875 1.1875 3 3 C3.36534808 4.99440013 3.7014829 6.99450788 4 9 C5.35397636 9.43768707 5.35397636 9.43768707 6.73530579 9.88421631 C15.28263684 12.6475202 23.82928029 15.41294159 32.3752718 18.18038559 C36.76782785 19.60275109 41.16061465 21.02439485 45.55395508 22.44433594 C49.80149745 23.81718498 54.04839923 25.19199937 58.29488182 26.56812286 C59.90718567 27.09023924 61.51971102 27.61167215 63.13247108 28.13237762 C88.24034636 36.24034636 88.24034636 36.24034636 90 38 C90.04092937 40.33297433 90.04241723 42.66705225 90 45 C86.11112216 47.55030946 82.16891739 49.11087412 77.76635742 50.51196289 C77.05671341 50.74327408 76.3470694 50.97458527 75.61592102 51.21290588 C73.28102441 51.97223211 70.94335327 52.72258496 68.60546875 53.47265625 C66.97253008 54.00119507 65.33974529 54.5302095 63.70710754 55.05967712 C60.28798027 56.16708051 56.8675523 57.27033413 53.44604492 58.37036133 C49.0764389 59.77531633 44.70938814 61.18801549 40.34319592 62.60353947 C36.97145494 63.69617683 33.59878581 64.78592416 30.22579384 65.87469292 C28.61617373 66.39437581 27.00674341 66.91464691 25.39751244 67.43553352 C23.13981799 68.16555983 20.88099983 68.89199781 18.62182617 69.61743164 C17.96648895 69.82994568 17.31115173 70.04245972 16.63595581 70.26141357 C12.10926012 71.7092299 7.63435594 72.84141101 3 74 C3 92.48 3 110.96 3 130 C-2.28 130 -7.56 130 -13 130 C-13.04628787 113.77111429 -13.08198409 97.54225578 -13.10362434 81.31332016 C-13.11393913 73.77803043 -13.12800332 66.24278246 -13.15087891 58.70751953 C-13.1708066 52.14017053 -13.18371497 45.57285177 -13.18817699 39.00547338 C-13.19078543 35.5277477 -13.19692056 32.05010854 -13.21146011 28.57241058 C-13.22755538 24.69116081 -13.22798008 20.80999586 -13.22705078 16.92871094 C-13.23424133 15.77424973 -13.24143188 14.61978851 -13.24884033 13.43034363 C-13.246091 12.37307571 -13.24334167 11.3158078 -13.24050903 10.22650146 C-13.24235262 9.30839565 -13.24419621 8.39028984 -13.24609566 7.44436264 C-12.98245522 4.82573522 -12.3820188 3.2247606 -11 1 C-7.4367155 -1.7714435 -4.20758349 -0.99451973 0 0 Z " fill="#DD636E" transform="translate(422,66)" />
<path d="M0 0 C0.88815903 -0.00029205 1.77631805 -0.00058411 2.69139099 -0.00088501 C5.62411299 0.00050721 8.55658025 0.01606341 11.48925781 0.03173828 C13.52378195 0.03546879 15.55830789 0.03831558 17.59283447 0.04031372 C22.9456682 0.04794716 28.29839326 0.06759324 33.65118408 0.08972168 C39.11412079 0.11018629 44.57707507 0.11931676 50.04003906 0.12939453 C60.7575347 0.15083934 71.47494972 0.18497187 82.19238281 0.22705078 C82.28005836 3.60188491 82.33299909 6.97642294 82.37988281 10.35205078 C82.40501953 11.30337891 82.43015625 12.25470703 82.45605469 13.23486328 C82.49985458 17.43965264 82.36872341 20.71353778 80.99316406 24.71923828 C78.87177308 27.67353982 77.57765492 28.86957005 74.19238281 30.22705078 C71.20635102 30.49771311 68.4364389 30.6071228 65.45483398 30.56762695 C64.58603607 30.56806503 63.71723816 30.56850311 62.82211304 30.56895447 C59.95962806 30.5668698 57.09773382 30.54355391 54.23535156 30.52001953 C52.247099 30.51442243 50.25884229 30.51015287 48.27058411 30.50715637 C43.04428634 30.49571659 37.81823973 30.46625673 32.59204102 30.43304443 C27.25638222 30.40232496 21.92068273 30.38864701 16.58496094 30.37353516 C6.12065804 30.34138631 -4.34345867 30.29020031 -14.80761719 30.22705078 C-14.80761719 34.84705078 -14.80761719 39.46705078 -14.80761719 44.22705078 C-15.13761719 44.22705078 -15.46761719 44.22705078 -15.80761719 44.22705078 C-15.88203725 39.20999357 -15.93634627 34.19326106 -15.97241211 29.17578125 C-15.98745456 27.47064615 -16.00789372 25.76554946 -16.03393555 24.06054688 C-16.07052003 21.60293066 -16.08738891 19.1458281 -16.10058594 16.68798828 C-16.11606979 15.93149994 -16.13155365 15.1750116 -16.14750671 14.39559937 C-16.14900552 9.63119826 -15.53005345 6.30859417 -12.80761719 2.22705078 C-9.00221118 -0.57754862 -4.51306068 -0.03879258 0 0 Z " fill="#FFCF63" transform="translate(42.8076171875,347.77294921875)" />
<path d="M0 0 C0.88815903 -0.00043808 1.77631805 -0.00087616 2.69139099 -0.00132751 C5.62423763 0.0007609 8.55651115 0.02409457 11.48925781 0.04760742 C13.52378019 0.05320318 15.55830661 0.05747338 17.59283447 0.06047058 C22.94573135 0.07192087 28.29838375 0.10138979 33.65118408 0.13458252 C39.1141021 0.16527933 44.57705965 0.1789751 50.04003906 0.1940918 C60.75759435 0.22625919 71.47496825 0.27745791 82.19238281 0.34057617 C82.27979405 3.90292045 82.33291177 7.46498725 82.37988281 11.02807617 C82.40501953 12.03547852 82.43015625 13.04288086 82.45605469 14.08081055 C82.49691826 18.208031 82.5273274 21.49721405 80.99316406 25.36010742 C78.79141511 27.78155367 77.22956143 29.05627507 74.19238281 30.34057617 C71.20635102 30.6112385 68.4364389 30.7206482 65.45483398 30.68115234 C64.58603607 30.68159042 63.71723816 30.6820285 62.82211304 30.68247986 C59.95962806 30.68039519 57.09773382 30.6570793 54.23535156 30.63354492 C52.247099 30.62794782 50.25884229 30.62367826 48.27058411 30.62068176 C43.04428634 30.60924198 37.81823973 30.57978212 32.59204102 30.54656982 C27.25638222 30.51585035 21.92068273 30.5021724 16.58496094 30.48706055 C6.12065804 30.4549117 -4.34345867 30.4037257 -14.80761719 30.34057617 C-14.80761719 33.97057617 -14.80761719 37.60057617 -14.80761719 41.34057617 C-15.13761719 41.34057617 -15.46761719 41.34057617 -15.80761719 41.34057617 C-15.88224447 37.05390881 -15.93644227 32.7675941 -15.97241211 28.48046875 C-15.98742032 27.0246725 -16.00783352 25.56892086 -16.03393555 24.11328125 C-16.07067394 22.01054828 -16.08742278 19.90841733 -16.10058594 17.80541992 C-16.11629639 16.54334717 -16.13200684 15.28127441 -16.14819336 13.98095703 C-15.76127553 9.84523537 -14.77144021 6.99329252 -12.80761719 3.34057617 C-9.20897109 -0.54052887 -4.93923867 -0.06368378 0 0 Z " fill="#FFCF63" transform="translate(207.8076171875,347.659423828125)" />
<path d="M0 0 C0.88786697 -0.00014603 1.77573395 -0.00029205 2.69050598 -0.0004425 C5.63402728 0.00025584 8.57748581 0.00804458 11.52099609 0.01586914 C13.55837978 0.0177336 15.5957639 0.01915737 17.63314819 0.02015686 C23.00241325 0.02397984 28.37165137 0.03380828 33.74090576 0.04486084 C39.217078 0.05507966 44.69325458 0.05965549 50.16943359 0.06469727 C60.91944545 0.07543072 71.66943728 0.09250454 82.41943359 0.11352539 C82.56536148 3.82144084 82.65371254 7.52861265 82.73193359 11.23852539 C82.77382813 12.28524414 82.81572266 13.33196289 82.85888672 14.41040039 C82.97900402 22.00181364 82.97900402 22.00181364 81.38964844 25.15942383 C79.2899618 27.79367635 77.6215759 29.04614462 74.41943359 30.11352539 C71.57422955 30.20502005 68.75398413 30.23950313 65.90893555 30.22705078 C65.04042969 30.22719681 64.17192383 30.22734283 63.27709961 30.22749329 C60.40394602 30.22679615 57.53085712 30.219013 54.65771484 30.21118164 C52.66660091 30.20931676 50.67548651 30.20789319 48.68437195 30.20689392 C43.44170873 30.20307429 38.19907318 30.19324871 32.9564209 30.18218994 C27.60750706 30.17196393 22.25858876 30.16739375 16.90966797 30.16235352 C6.41291102 30.15162597 -4.0838254 30.13455617 -14.58056641 30.11352539 C-14.69699945 26.21794451 -14.7678955 22.32281281 -14.83056641 18.42602539 C-14.86408203 17.32323242 -14.89759766 16.22043945 -14.93212891 15.08422852 C-15.03129674 6.87809068 -15.03129674 6.87809068 -12.68994141 2.90649414 C-8.67864021 -0.50311188 -5.04475675 -0.02149664 0 0 Z " fill="#FFCF63" transform="translate(372.58056640625,347.886474609375)" />
<path d="M0 0 C1.64430992 0.00906466 3.28857622 0.03505316 4.93244934 0.07402039 C5.83021591 0.08333588 6.72798248 0.09265137 7.6529541 0.10224915 C10.62386052 0.13665635 13.59395868 0.19254437 16.56452942 0.24858093 C18.6228869 0.27660968 20.681263 0.30330055 22.73965454 0.32870483 C28.16011606 0.39920781 33.58013369 0.48791897 39.0002594 0.58036804 C44.52999335 0.67148246 50.05995336 0.74545253 55.58992004 0.82084656 C66.44242455 0.97134353 77.29453742 1.14106872 88.14656067 1.32279968 C88.26337879 4.86418586 88.33401567 8.40507209 88.39656067 11.94779968 C88.43007629 12.94682312 88.46359192 13.94584656 88.49812317 14.97514343 C88.60865036 23.3199462 88.60865036 23.3199462 86.25593567 26.97123718 C84.14656067 29.32279968 84.14656067 29.32279968 82.14656067 30.32279968 C79.24773503 30.41617756 76.37309493 30.44854241 73.47419739 30.43632507 C72.57657684 30.4364711 71.6789563 30.43661713 70.75413513 30.43676758 C67.77814849 30.43606921 64.80222392 30.42828036 61.82624817 30.42045593 C59.76644424 30.41859148 57.70663986 30.41716771 55.64683533 30.41616821 C50.21838665 30.41234516 44.78996462 30.40251667 39.36152649 30.39146423 C33.82503113 30.38124556 28.28853148 30.37666961 22.75202942 30.37162781 C11.88352811 30.36089423 1.0150466 30.34382033 -9.85343933 30.32279968 C-9.94141214 27.13547714 -9.99415274 23.94847181 -10.04093933 20.76029968 C-10.06607605 19.86504578 -10.09121277 18.96979187 -10.11711121 18.04740906 C-10.18003633 12.32122321 -9.63633965 8.3631576 -6.85343933 3.32279968 C-4.455318 0.38730026 -4.07263303 0.34116137 0 0 Z " fill="#FFCF63" transform="translate(201.8534393310547,397.6772003173828)" />
<path d="M0 0 C1.63963855 -0.01443037 3.27966234 -0.0013413 4.91899109 0.03364563 C5.81704971 0.0329155 6.71510834 0.03218536 7.64038086 0.03143311 C10.60065182 0.03490894 13.55933775 0.07376994 16.51933289 0.11299133 C18.5748407 0.12231947 20.63035965 0.12943558 22.68588257 0.13442993 C28.08992834 0.15349955 33.49329972 0.2026006 38.89707947 0.25794983 C44.41364926 0.30914275 49.93032828 0.3319441 55.44706726 0.35713196 C66.26702465 0.41071891 77.08648201 0.49603174 87.90605164 0.60127258 C87.99346288 4.16361687 88.0465806 7.72568366 88.09355164 11.28877258 C88.11868835 12.29617493 88.14382507 13.30357727 88.16972351 14.34150696 C88.21114831 18.52541163 88.24182739 21.78106494 86.64433289 25.68330383 C84.67286804 27.85856055 83.72715589 28.76150083 80.90605164 29.60127258 C77.96791993 29.78256802 75.12706287 29.85385264 72.19023132 29.82832336 C70.87262314 29.82876144 70.87262314 29.82876144 69.52839661 29.82920837 C66.62813909 29.82781626 63.72813922 29.81226053 60.82792664 29.79658508 C58.81582276 29.79285454 56.80371706 29.79000776 54.79161072 29.78800964 C49.49796018 29.78037648 44.20441953 29.76073065 38.91081238 29.73860168 C33.50819892 29.71813647 28.10556769 29.70900648 22.70292664 29.69892883 C12.10392004 29.67748452 1.50499498 29.64335233 -9.09394836 29.60127258 C-9.23948436 25.70583381 -9.32809895 21.81109607 -9.40644836 17.91377258 C-9.4483429 16.81097961 -9.49023743 15.70818665 -9.53340149 14.57197571 C-9.54951477 13.50527649 -9.56562805 12.43857727 -9.58222961 11.33955383 C-9.6084137 10.36026917 -9.63459778 9.3809845 -9.66157532 8.37202454 C-9.09394836 5.60127258 -9.09394836 5.60127258 -7.1267395 2.77810669 C-4.16574665 0.65280694 -3.41084497 0.25599721 0 0 Z " fill="#FFCF63" transform="translate(367.0939483642578,297.3987274169922)" />
<path d="M0 0 C0.88786697 -0.00014603 1.77573395 -0.00029205 2.69050598 -0.0004425 C5.63402728 0.00025584 8.57748581 0.00804458 11.52099609 0.01586914 C13.55837978 0.0177336 15.5957639 0.01915737 17.63314819 0.02015686 C23.00241325 0.02397984 28.37165137 0.03380828 33.74090576 0.04486084 C39.217078 0.05507966 44.69325458 0.05965549 50.16943359 0.06469727 C60.91944545 0.07543072 71.66943728 0.09250454 82.41943359 0.11352539 C82.5359198 3.84242795 82.60677935 7.57086053 82.66943359 11.30102539 C82.70294922 12.35612305 82.73646484 13.4112207 82.77099609 14.49829102 C82.87015242 22.35642952 82.87015242 22.35642952 80.52880859 26.28930664 C78.41943359 28.11352539 78.41943359 28.11352539 76.41943359 29.11352539 C73.55111808 29.20686971 70.70725096 29.2392735 67.83886719 29.22705078 C66.95100021 29.22719681 66.06313324 29.22734283 65.14836121 29.22749329 C62.20483991 29.22679495 59.26138138 29.2190062 56.31787109 29.21118164 C54.28048741 29.20931718 52.24310328 29.20789341 50.20571899 29.20689392 C44.83645394 29.20307094 39.46721582 29.1932425 34.09796143 29.18218994 C28.62178919 29.17197113 23.14561261 29.16739529 17.66943359 29.16235352 C6.91942174 29.15162006 -3.83057009 29.13454624 -14.58056641 29.11352539 C-14.69705261 25.38462284 -14.76791217 21.65619026 -14.83056641 17.92602539 C-14.86408203 16.87092773 -14.89759766 15.81583008 -14.93212891 14.72875977 C-15.03128523 6.87062126 -15.03128523 6.87062126 -12.68994141 2.93774414 C-8.69379271 -0.51818445 -5.05673568 -0.02154769 0 0 Z " fill="#FFCF63" transform="translate(372.58056640625,398.886474609375)" />
<path d="M0 0 C1.31738914 -0.00021904 1.31738914 -0.00021904 2.66139221 -0.0004425 C5.56701113 0.00025467 8.4725661 0.008038 11.37817383 0.01586914 C13.39170802 0.01773401 15.40524266 0.01915759 17.41877747 0.02015686 C22.7206243 0.0239766 28.02244377 0.03380227 33.32427979 0.04486084 C38.73351674 0.05508662 44.14275812 0.05965699 49.55200195 0.06469727 C60.16724835 0.075425 70.78247444 0.09249493 81.39770508 0.11352539 C81.54324107 4.00896416 81.63185567 7.9037019 81.71020508 11.80102539 C81.75209961 12.90381836 81.79399414 14.00661133 81.8371582 15.14282227 C81.85327148 16.20952148 81.86938477 17.2762207 81.88598633 18.37524414 C81.91217041 19.35452881 81.93835449 20.33381348 81.96533203 21.34277344 C81.39770508 24.11352539 81.39770508 24.11352539 79.43049622 26.93669128 C76.46950336 29.06199103 75.71460169 29.45880076 72.30375671 29.71479797 C70.66411816 29.72922834 69.02409437 29.71613927 67.38476562 29.68115234 C66.486707 29.68188248 65.58864838 29.68261261 64.66337585 29.68336487 C61.70310489 29.67988904 58.74441896 29.64102804 55.78442383 29.60180664 C53.72891601 29.5924785 51.67339706 29.5853624 49.61787415 29.58036804 C44.21382837 29.56129842 38.81045699 29.51219737 33.40667725 29.45684814 C27.89010745 29.40565522 22.37342844 29.38285387 16.85668945 29.35766602 C6.03673207 29.30407906 -4.7827253 29.21876623 -15.60229492 29.11352539 C-15.71911304 25.57213921 -15.78974992 22.03125299 -15.85229492 18.48852539 C-15.88581055 17.48950195 -15.91932617 16.49047852 -15.95385742 15.46118164 C-16.06441335 7.11420909 -16.06441335 7.11420909 -13.77416992 3.46508789 C-9.86573382 -0.76670804 -5.38143302 -0.02328862 0 0 Z " fill="#FFD063" transform="translate(42.602294921875,398.886474609375)" />
<path d="M0 0 C0.88786697 -0.00014603 1.77573395 -0.00029205 2.69050598 -0.0004425 C5.63402728 0.00025584 8.57748581 0.00804458 11.52099609 0.01586914 C13.55837978 0.0177336 15.5957639 0.01915737 17.63314819 0.02015686 C23.00241325 0.02397984 28.37165137 0.03380828 33.74090576 0.04486084 C39.217078 0.05507966 44.69325458 0.05965549 50.16943359 0.06469727 C60.91944545 0.07543072 71.66943728 0.09250454 82.41943359 0.11352539 C82.5359198 3.84242795 82.60677935 7.57086053 82.66943359 11.30102539 C82.70294922 12.35612305 82.73646484 13.4112207 82.77099609 14.49829102 C82.87015242 22.35642952 82.87015242 22.35642952 80.52880859 26.28930664 C78.41943359 28.11352539 78.41943359 28.11352539 76.41943359 29.11352539 C73.55111808 29.20686971 70.70725096 29.2392735 67.83886719 29.22705078 C66.95100021 29.22719681 66.06313324 29.22734283 65.14836121 29.22749329 C62.20483991 29.22679495 59.26138138 29.2190062 56.31787109 29.21118164 C54.28048741 29.20931718 52.24310328 29.20789341 50.20571899 29.20689392 C44.83645394 29.20307094 39.46721582 29.1932425 34.09796143 29.18218994 C28.62178919 29.17197113 23.14561261 29.16739529 17.66943359 29.16235352 C6.91942174 29.15162006 -3.83057009 29.13454624 -14.58056641 29.11352539 C-14.69705261 25.38462284 -14.76791217 21.65619026 -14.83056641 17.92602539 C-14.86408203 16.87092773 -14.89759766 15.81583008 -14.93212891 14.72875977 C-15.03128523 6.87062126 -15.03128523 6.87062126 -12.68994141 2.93774414 C-8.69379271 -0.51818445 -5.05673568 -0.02154769 0 0 Z " fill="#FECF64" transform="translate(372.58056640625,195.886474609375)" />
<path d="M0 0 C1.63962749 -0.01731632 3.27980965 -0.00160579 4.91899109 0.04037476 C6.26607903 0.03906052 6.26607903 0.03906052 7.64038086 0.03771973 C10.60092459 0.04189111 13.55918635 0.08852152 16.51933289 0.1355896 C18.57483686 0.14678334 20.63035686 0.15532269 22.68588257 0.16131592 C28.09006625 0.18420004 33.49327887 0.24312047 38.89707947 0.30953979 C44.41360844 0.37097085 49.93029467 0.39833274 55.44706726 0.42855835 C66.26715484 0.49286347 77.08652242 0.59523856 87.90605164 0.7215271 C88.02286975 4.26291328 88.09350663 7.8037995 88.15605164 11.3465271 C88.18956726 12.34555054 88.22308289 13.34457397 88.25761414 14.37387085 C88.36814132 22.71867362 88.36814132 22.71867362 86.01542664 26.3699646 C83.90605164 28.7215271 83.90605164 28.7215271 81.90605164 29.7215271 C79.03773612 29.81487142 76.193869 29.84727521 73.32548523 29.83505249 C72.43761826 29.83519852 71.54975128 29.83534454 70.63497925 29.835495 C67.69145795 29.83479665 64.74799942 29.82700791 61.80448914 29.81918335 C59.76710545 29.81731889 57.72972133 29.81589512 55.69233704 29.81489563 C50.32307198 29.81107265 44.95383386 29.80124421 39.58457947 29.79019165 C34.10840723 29.77997283 28.63223065 29.775397 23.15605164 29.77035522 C12.40603978 29.75962177 1.65604795 29.74254795 -9.09394836 29.7215271 C-9.23987625 26.01361165 -9.32822731 22.30643984 -9.40644836 18.5965271 C-9.4483429 17.54980835 -9.49023743 16.5030896 -9.53340149 15.4246521 C-9.54951477 14.40629272 -9.56562805 13.38793335 -9.58222961 12.3387146 C-9.6084137 11.40656128 -9.63459778 10.47440796 -9.66157532 9.51400757 C-9.02499829 6.38232241 -7.91277062 4.26948509 -5.74326515 1.90559006 C-3.74452504 0.47067219 -2.44297272 0.21443281 0 0 Z " fill="#FFCF63" transform="translate(367.0939483642578,246.27847290039063)" />
<path d="M0 0 C0.77775284 -0.00761353 1.55550568 -0.01522705 2.35682678 -0.02307129 C3.99655966 -0.03384338 5.63636099 -0.03673716 7.27612305 -0.03222656 C9.77444695 -0.03125417 12.26969717 -0.07290319 14.76757812 -0.1171875 C16.36587905 -0.12239523 17.96419059 -0.12508268 19.5625 -0.125 C20.30330307 -0.14139526 21.04410614 -0.15779053 21.80735779 -0.17468262 C24.65533237 -0.13704661 27.10437492 0.00588673 29.56059265 1.53544617 C31.04447263 2.78412081 32.44944662 4.12483855 33.84765625 5.46875 C36.41193997 7.22177308 39.08562116 8.7463204 41.78515625 10.28125 C42.46255859 10.68794922 43.13996094 11.09464844 43.83789062 11.51367188 C47.32190247 13.50119541 49.5817012 14.44526732 53.65234375 14.8046875 C57.41321086 14.40929071 59.67087576 13.51600854 62.84765625 11.46875 C66.426518 7.79047543 67.13575085 5.60446619 68.84765625 0.46875 C73.13765625 0.46875 77.42765625 0.46875 81.84765625 0.46875 C81.98293195 4.1783104 82.08191575 7.88291469 82.16015625 11.59375 C82.20205078 12.64046875 82.24394531 13.6871875 82.28710938 14.765625 C82.40779024 22.39265581 82.40779024 22.39265581 80.78271484 25.51464844 C79.04244196 27.65308145 77.32057684 29.2322897 74.84765625 30.46875 C72.00984888 30.56206014 69.19675851 30.59450361 66.35888672 30.58227539 C65.04171661 30.58249443 65.04171661 30.58249443 63.69793701 30.5827179 C60.78688105 30.58201958 57.87588857 30.57423095 54.96484375 30.56640625 C52.94988032 30.56454178 50.93491644 30.56311802 48.91995239 30.56211853 C43.60987095 30.55829562 38.29981675 30.54846724 32.98974609 30.53741455 C27.57389698 30.52719559 22.15804347 30.52261987 16.7421875 30.51757812 C6.1106651 30.50684479 -4.52083706 30.48977106 -15.15234375 30.46875 C-15.15234375 34.42875 -15.15234375 38.38875 -15.15234375 42.46875 C-15.48234375 42.46875 -15.81234375 42.46875 -16.15234375 42.46875 C-16.22694609 38.03966622 -16.28115746 33.6109231 -16.31713867 29.18139648 C-16.33215097 27.67709983 -16.35256728 26.17284639 -16.37866211 24.66870117 C-16.41538191 22.49647304 -16.43214536 20.32482749 -16.4453125 18.15234375 C-16.46102295 16.84837646 -16.4767334 15.54440918 -16.49291992 14.20092773 C-16.10864408 9.9898705 -15.21569795 7.15718165 -13.15234375 3.46875 C-9.19319795 0.00000394 -5.04865282 0.00136893 0 0 Z " fill="#FECF64" transform="translate(208.15234375,296.53125)" />
<path d="M0 0 C7.43332037 -0.43606109 12.06364791 1.11955556 18.3984375 4.953125 C19.39746094 5.59378906 20.39648438 6.23445312 21.42578125 6.89453125 C22.43253906 7.51199219 23.43929687 8.12945312 24.4765625 8.765625 C26.46942639 9.99021794 28.45500743 11.22675282 30.43261719 12.47583008 C33.97124233 14.68882624 37.57161136 16.78710416 41.18896484 18.8684082 C45.37534034 21.64593525 48.13604612 25.31065853 50.67578125 29.58203125 C52.51480027 37.48981303 50.9444515 45.04635 48.859375 52.73046875 C48.61284683 53.68345856 48.36631866 54.63644836 48.11231995 55.61831665 C47.33236572 58.63016911 46.53696107 61.63759467 45.73828125 64.64453125 C44.93699663 67.67310327 44.13942836 70.7024125 43.35353088 73.73501587 C42.86644267 75.61387458 42.37047012 77.49045789 41.86460876 79.36434937 C41.53415306 80.63685043 41.53415306 80.63685043 41.19702148 81.93505859 C40.99938705 82.67766937 40.80175262 83.42028015 40.59812927 84.18539429 C40.25599843 86.58341774 40.41688571 88.01638266 41.30078125 90.26953125 C43.28338551 91.95685402 45.28401545 93.62319182 47.30078125 95.26953125 C49.68851842 99.05477346 49.71376788 102.42247089 49.6171875 106.80078125 C49.14691151 110.47009514 47.72086845 112.52240524 45.30078125 115.26953125 C43.11328125 117.64453125 43.11328125 117.64453125 40.30078125 119.26953125 C37.26883694 119.58599682 34.33618161 119.50760187 31.30078125 119.26953125 C31.46578125 118.63015625 31.63078125 117.99078125 31.80078125 117.33203125 C32.46643558 113.25489849 32.82504954 109.38358102 32.30078125 105.26953125 C30.42181644 101.6507842 28.60032434 99.52247875 25.48828125 96.89453125 C24.76640625 96.02828125 24.04453125 95.16203125 23.30078125 94.26953125 C23.66044633 88.39699319 25.0490116 82.89941546 26.5859375 77.23828125 C27.03866404 75.52350416 27.49113012 73.8086583 27.94335938 72.09375 C28.65293722 69.42687697 29.36560451 66.76090471 30.08325195 64.09619141 C30.78026058 61.49992395 31.46501082 58.90065176 32.1484375 56.30078125 C32.36403824 55.51409058 32.57963898 54.7273999 32.80177307 53.91687012 C34.39886192 47.80041869 35.45853966 41.34315673 33.30078125 35.20703125 C30.76951133 29.46484019 25.90827059 25.93728932 20.71777344 22.61743164 C17.89481659 20.97356032 15.0458772 19.39207761 12.17578125 17.83203125 C10.14048804 16.70467432 8.10533158 15.57707046 6.0703125 14.44921875 C5.08756348 13.9087793 4.10481445 13.36833984 3.09228516 12.81152344 C-0.67294548 10.73165666 -4.40774262 8.60101846 -8.13671875 6.45703125 C-9.22855469 5.83183594 -10.32039062 5.20664063 -11.4453125 4.5625 C-12.56099609 3.92248047 -12.56099609 3.92248047 -13.69921875 3.26953125 C-13.03921875 2.60953125 -12.37921875 1.94953125 -11.69921875 1.26953125 C-7.79390783 0.63964239 -3.93007417 0.39243867 0 0 Z " fill="#524798" transform="translate(227.69921875,191.73046875)" />
<path d="M0 0 C1.69229603 1.22689533 1.69229603 1.22689533 3 3 C3.36914349 5.35254955 3.36914349 5.35254955 3.36076355 8.18217468 C3.36488754 9.25489624 3.36901154 10.3276178 3.3732605 11.43284607 C3.36247467 12.60960403 3.35168884 13.786362 3.34057617 14.9987793 C3.34123329 16.85749161 3.34123329 16.85749161 3.34190369 18.75375366 C3.34017034 22.1524418 3.32511359 25.55058491 3.30418181 28.94917655 C3.28544231 32.50059136 3.28366673 36.05201323 3.28010559 39.60346985 C3.27077708 46.32893229 3.24615248 53.05424862 3.21605712 59.77964669 C3.18253812 67.43614005 3.16603341 75.09264034 3.15097082 82.74918878 C3.11960355 98.49954614 3.06622401 114.2497485 3 130 C-2.28 130 -7.56 130 -13 130 C-13.04628787 113.77111429 -13.08198409 97.54225578 -13.10362434 81.31332016 C-13.11393913 73.77803043 -13.12800332 66.24278246 -13.15087891 58.70751953 C-13.1708066 52.14017053 -13.18371497 45.57285177 -13.18817699 39.00547338 C-13.19078543 35.5277477 -13.19692056 32.05010854 -13.21146011 28.57241058 C-13.22755538 24.69116081 -13.22798008 20.80999586 -13.22705078 16.92871094 C-13.23424133 15.77424973 -13.24143188 14.61978851 -13.24884033 13.43034363 C-13.246091 12.37307571 -13.24334167 11.3158078 -13.24050903 10.22650146 C-13.24235262 9.30839565 -13.24419621 8.39028984 -13.24609566 7.44436264 C-12.98245522 4.82573522 -12.3820188 3.2247606 -11 1 C-7.4367155 -1.7714435 -4.20758349 -0.99451973 0 0 Z " fill="#6B61B0" transform="translate(422,66)" />
<path d="M0 0 C3.94139078 1.66751148 6.7892812 4.22710649 10 7 C8.34949687 11.09166645 5.42861892 13.9792319 2.4375 17.125 C1.34699051 18.28583329 0.25715276 19.44729795 -0.83203125 20.609375 C-1.37037598 21.18236328 -1.9087207 21.75535156 -2.46337891 22.34570312 C-4.60352667 24.64974526 -6.67420346 27.01301162 -8.75 29.375 C-19.21741911 40.91359126 -19.21741911 40.91359126 -25.9375 42.5625 C-30.82089191 43.50902365 -35.32967339 42.50389144 -40 41 C-43.24491411 39.50515946 -46.30252763 37.75679478 -49.375 35.9375 C-50.94413432 35.02791238 -52.5143999 34.12027277 -54.0859375 33.21484375 C-54.7670459 32.81386475 -55.4481543 32.41288574 -56.14990234 31.99975586 C-58.13117254 30.86027299 -58.13117254 30.86027299 -61 30 C-61.2578125 31.25167969 -61.515625 32.50335938 -61.78125 33.79296875 C-63.02995336 39.40663784 -64.73685675 44.84232962 -66.5 50.3125 C-66.80808594 51.28767578 -67.11617187 52.26285156 -67.43359375 53.26757812 C-68.73564932 57.33859735 -69.99654545 61.21296894 -72 65 C-75.20782685 65.338329 -78.41633098 65.66976146 -81.625 66 C-82.52863281 66.09539062 -83.43226563 66.19078125 -84.36328125 66.2890625 C-88.93063039 66.75579891 -93.40117188 67.12222799 -98 67 C-97.360625 66.505 -96.72125 66.01 -96.0625 65.5 C-95.051875 64.675 -94.04125 63.85 -93 63 C-92.29875 62.46375 -91.5975 61.9275 -90.875 61.375 C-79.75152109 52.35596304 -76.77076136 39.90216835 -72.89038086 26.63305664 C-72.57335205 25.57852295 -72.25632324 24.52398926 -71.9296875 23.4375 C-71.65366699 22.48746094 -71.37764648 21.53742188 -71.09326172 20.55859375 C-69.85713017 17.66563737 -68.34099293 16.06790749 -66 14 C-62.46130956 14.57028162 -59.78281158 15.46670887 -56.6796875 17.25 C-55.89722656 17.6934375 -55.11476562 18.136875 -54.30859375 18.59375 C-53.10396484 19.28984375 -53.10396484 19.28984375 -51.875 20 C-50.26949848 20.91888799 -48.66277686 21.83564837 -47.0546875 22.75 C-46.34812012 23.15734375 -45.64155273 23.5646875 -44.91357422 23.984375 C-39.81068802 26.6927198 -34.6301326 26.4196864 -29 26 C-16.59051189 22.42438478 -7.83538357 9.60466374 0 0 Z " fill="#DD636E" transform="translate(308,127)" />
<path d="M0 0 C4.94966156 3.09841019 8.91387871 6.84459744 12 11.8125 C15.38011761 21.06642428 18.27442619 31.9002963 17 41.8125 C15.3125 45.3125 15.3125 45.3125 13 47.8125 C10.4375 48.75 10.4375 48.75 8 48.8125 C6.515 48.3175 6.515 48.3175 5 47.8125 C5.061875 48.76125 5.12375 49.71 5.1875 50.6875 C5.20775553 55.62984906 3.70179163 60.20972678 2 64.8125 C1.67 65.1425 1.34 65.4725 1 65.8125 C-0.92578125 66.0859375 -0.92578125 66.0859375 -3.3125 66.1875 C-4.09238281 66.23648438 -4.87226563 66.28546875 -5.67578125 66.3359375 C-8 65.8125 -8 65.8125 -10.3359375 63.80859375 C-12 60.8125 -12 60.8125 -11.92578125 56.88671875 C-11.73123393 55.42313193 -11.52641985 53.96088101 -11.3125 52.5 C-10.61587525 46.65683366 -10.61587525 46.65683366 -12.37109375 41.203125 C-14.21854744 39.23593034 -14.21854744 39.23593034 -16.20703125 37.48828125 C-18.62510048 35.22825576 -19.58138864 33.06555461 -20.56640625 29.9453125 C-21.84208571 23.67034869 -21.59956663 17.59551387 -19.03515625 11.69140625 C-16.33530897 6.79092873 -12.90142885 3.0621753 -8.125 0.125 C-4.95193431 -1.26246218 -3.19236444 -1.36457931 0 0 Z " fill="#FECABD" transform="translate(220,56.1875)" />
<path d="M0 0 C3 0.625 3 0.625 5.75 3.125 C6.86375 4.3625 6.86375 4.3625 8 5.625 C10.0745356 5.7740712 10.0745356 5.7740712 12 4.625 C15.25068855 4.03396572 16.86441378 3.827218 20 4.625 C24.00408409 7.26493406 27.50633943 10.34833698 31 13.625 C31.7528125 14.30820313 32.505625 14.99140625 33.28125 15.6953125 C35 17.625 35 17.625 35.75 21.25 C35.59753592 24.08898626 35.02894064 25.57826736 33.51953125 28.015625 C31.44149653 30.65360919 29.26243976 33.14337478 27 35.625 C26.16339844 36.56859375 25.32679688 37.5121875 24.46484375 38.484375 C22.32801136 40.8819619 20.17331618 43.26051249 18 45.625 C10.01182698 40.03327889 3.0209501 33.36460888 -4 26.625 C-4.54785156 26.10977783 -5.09570312 25.59455566 -5.66015625 25.0637207 C-7 23.625 -7 23.625 -7.51171875 21.6796875 C-7.70132821 19.32853015 -7.86997659 16.98028115 -8 14.625 C-8.07605469 13.82835938 -8.15210938 13.03171875 -8.23046875 12.2109375 C-8.37269914 9.91218686 -8.38656317 7.89605864 -8 5.625 C-5.56887157 2.12131491 -4.17862962 0.87054784 0 0 Z " fill="#FECABD" transform="translate(301,89.375)" />
<path d="M0 0 C5.43980672 -0.88554993 10.75070933 0.05153019 15.86328125 1.9609375 C20.84288975 4.38246558 24.04812307 7.542382 27.05859375 12.15234375 C29.28753238 16.20272899 30.32210242 20.30856917 31.25 24.8125 C31.41693359 25.60495117 31.58386719 26.39740234 31.75585938 27.21386719 C34.04804948 38.63271628 34.04804948 38.63271628 33 44 C31.26071467 47.54298863 29.70142076 49.44624677 26.625 51.875 C23.56598515 53.18600636 21.29550938 53.08170684 18 53 C17.90203125 53.80824219 17.8040625 54.61648437 17.703125 55.44921875 C17.06637718 59.99976996 16.43315785 64.06149133 14.5 68.25 C11.65474597 70.24167782 10.4666888 70.30418478 7.0625 70.375 C3.63658836 70.20294535 0.32509849 69.88669293 -3 69 C-3 68.67 -3 68.34 -3 68 C-0.525 67.505 -0.525 67.505 2 67 C3.80996216 61.34244531 5.35729017 55.9129304 6 50 C6.9075 50.0825 7.815 50.165 8.75 50.25 C12.07274053 50.30409468 12.07274053 50.30409468 14.3125 48.125 C15.96224528 46.04754298 16.93075998 44.81766569 17.15478516 42.17211914 C17.19532553 32.56085106 15.89457481 21.82087099 11.57421875 13.1328125 C8.02104785 8.26671282 3.524773 4.45545467 -2 2 C-1.34 1.34 -0.68 0.68 0 0 Z " fill="#EBAD9E" transform="translate(219,54)" />
<path d="M0 0 C18.03143063 5.57493507 36.03705489 11.20835449 54 17 C51.71923693 19.28076307 50.26345703 19.72402907 47.21484375 20.69580078 C46.2204126 21.01598175 45.22598145 21.33616272 44.20141602 21.66604614 C43.12432373 22.00570404 42.04723145 22.34536194 40.9375 22.6953125 C39.835271 23.04761932 38.73304199 23.39992615 37.59741211 23.76290894 C35.26476228 24.50712529 32.93115518 25.24834677 30.59667969 25.98681641 C27.01272001 27.1209747 23.43194705 28.2647679 19.8515625 29.41015625 C17.58872318 30.13077855 15.32570814 30.85084937 13.0625 31.5703125 C11.44686157 32.08587204 11.44686157 32.08587204 9.79858398 32.61184692 C8.80415283 32.92572357 7.80972168 33.23960022 6.78515625 33.56298828 C5.90738525 33.84119415 5.02961426 34.11940002 4.12524414 34.40603638 C2 35 2 35 0 35 C0 23.45 0 11.9 0 0 Z " fill="#E27F86" transform="translate(425,75)" />
<path d="M0 0 C2.03961714 -0.10050287 4.08291351 -0.12965168 6.125 -0.125 C7.24132812 -0.12757813 8.35765625 -0.13015625 9.5078125 -0.1328125 C13.06658941 0.00253248 16.485732 0.43664406 20 1 C19.74952929 5.02237072 19.47098769 9.04233204 19.1875 13.0625 C19.11724609 14.19623047 19.04699219 15.32996094 18.97460938 16.49804688 C18.52765328 22.6302845 17.89123847 27.54229231 15 33 C4.29151943 32.65842167 4.29151943 32.65842167 -0.1875 30.375 C-2.49674459 27.34909329 -2.81681682 24.70191535 -3 21 C-2.86252804 17.5222743 -2.51034093 14.08305947 -2.125 10.625 C-2.03347656 9.71105469 -1.94195312 8.79710937 -1.84765625 7.85546875 C-1.32712329 2.92140276 -1.32712329 2.92140276 -1 1 C-0.67 0.67 -0.34 0.34 0 0 Z " fill="#FECABD" transform="translate(122,179)" />
<path d="M0 0 C3.9662826 -1.01990124 7.02942758 -1.0603494 11 0 C13.85883396 1.90269728 16.25734345 4.14478984 18.6875 6.5625 C19.31156738 7.1704541 19.93563477 7.7784082 20.57861328 8.40478516 C22.27755546 10.2044758 23.71740929 11.8827772 25 14 C25.45374523 17.75685671 25.47550564 19.93710505 23.9375 23.375 C22 25 22 25 18.625 25.9375 C15 26 15 26 12.0625 24.5625 C11.381875 24.046875 10.70125 23.53125 10 23 C9.566875 23.928125 9.13375 24.85625 8.6875 25.8125 C6.4 30.13333333 6.4 30.13333333 4 32 C1.73828125 32.29296875 1.73828125 32.29296875 -0.6875 32.1875 C-1.89986328 32.14689453 -1.89986328 32.14689453 -3.13671875 32.10546875 C-3.75160156 32.07066406 -4.36648437 32.03585938 -5 32 C-4.69191406 31.06542969 -4.38382813 30.13085938 -4.06640625 29.16796875 C-2.67253459 24.2888039 -2.34147427 19.35339629 -1.9375 14.3125 C-1.78274756 12.45419182 -1.62529826 10.59610578 -1.46484375 8.73828125 C-1.399021 7.92399658 -1.33319824 7.10971191 -1.26538086 6.27075195 C-1.01247431 4.10673743 -0.57978151 2.09761285 0 0 Z " fill="#EAAC9D" transform="translate(142,180)" />
<path d="M0 0 C2.46800047 1.15173355 4.04783565 2.04783565 6 4 C6.57602127 7.2257191 6.7539935 8.89042681 6 12 C3.73201006 15.69375549 0.91406072 18.8036247 -2 22 C-2.83660156 22.94359375 -3.67320312 23.8871875 -4.53515625 24.859375 C-6.67198864 27.2569619 -8.82668382 29.63551249 -11 32 C-12.29608947 31.06862408 -13.58671632 30.1296434 -14.875 29.1875 C-15.59429687 28.66542969 -16.31359375 28.14335937 -17.0546875 27.60546875 C-19 26 -19 26 -21 23 C-20.61255615 22.5875 -20.2251123 22.175 -19.82592773 21.75 C-9.73361738 11.03710535 -9.73361738 11.03710535 0 0 Z " fill="#EBAD9E" transform="translate(330,103)" />
<path d="M0 0 C0.12455223 6.87989631 -0.21178302 13.59723148 -0.9375 20.4375 C-1.06801758 21.76297852 -1.06801758 21.76297852 -1.20117188 23.11523438 C-1.55901798 26.6009205 -1.8873907 29.6621721 -3 33 C-4.64574566 33.02688151 -6.29161413 33.04634123 -7.9375 33.0625 C-8.85402344 33.07410156 -9.77054688 33.08570313 -10.71484375 33.09765625 C-11.84599609 33.04931641 -11.84599609 33.04931641 -13 33 C-13.33 32.67 -13.66 32.34 -14 32 C-14.01629849 27.90822007 -13.66030211 23.8302731 -13.375 19.75 C-13.31699219 18.60402344 -13.25898438 17.45804688 -13.19921875 16.27734375 C-12.61238137 8.01351902 -12.61238137 8.01351902 -10.87255859 5.1340332 C-7.6765397 1.88209869 -4.53986572 0 0 0 Z " fill="#DD646F" transform="translate(156,147)" />
</svg>
